<svg width="375" height="312" viewBox="0 0 375 312" fill="none" xmlns="http://www.w3.org/2000/svg">
<path d="M16 65C17.664 59.624 19.328 54.184 20.992 48.68C22.688 43.176 24.368 37.736 26.032 32.36C27.92 32.36 29.824 32.36 31.744 32.36C33.696 32.36 35.616 32.36 37.504 32.36C39.168 37.736 40.832 43.176 42.496 48.68C44.192 54.184 45.872 59.624 47.536 65C46.16 65 44.752 65 43.312 65C41.904 65 40.496 65 39.088 65C38.768 63.976 38.464 62.952 38.176 61.928C37.888 60.872 37.584 59.832 37.264 58.808C35.44 58.808 33.6 58.808 31.744 58.808C29.92 58.808 28.096 58.808 26.272 58.808C25.952 59.832 25.648 60.872 25.36 61.928C25.072 62.952 24.768 63.976 24.448 65C23.072 65 21.664 65 20.224 65C18.816 65 17.408 65 16 65ZM28.384 51.656C29.504 51.656 30.624 51.656 31.744 51.656C32.896 51.656 34.032 51.656 35.152 51.656C34.608 49.768 34.048 47.864 33.472 45.944C32.896 44.024 32.336 42.12 31.792 40.232C31.248 42.12 30.672 44.024 30.064 45.944C29.488 47.864 28.928 49.768 28.384 51.656ZM50.1269 65C50.1269 59.208 50.1269 53.368 50.1269 47.48C50.1269 41.592 50.1269 35.752 50.1269 29.96C51.4389 29.96 52.7669 29.96 54.1109 29.96C55.4549 29.96 56.7669 29.96 58.0469 29.96C58.0469 35.752 58.0469 41.592 58.0469 47.48C58.0469 53.368 58.0469 59.208 58.0469 65C56.7669 65 55.4549 65 54.1109 65C52.7669 65 51.4389 65 50.1269 65ZM68.3144 65C67.0664 60.904 65.8024 56.776 64.5224 52.616C63.2744 48.424 62.0264 44.28 60.7784 40.184C62.0904 40.184 63.4184 40.184 64.7624 40.184C66.1384 40.184 67.4824 40.184 68.7944 40.184C69.4344 42.424 70.0744 44.696 70.7144 47C71.3864 49.272 72.0264 51.528 72.6344 53.768C73.1784 51.528 73.7224 49.272 74.2664 47C74.8424 44.696 75.3864 42.424 75.8984 40.184C77.0184 40.184 78.1384 40.184 79.2584 40.184C80.4104 40.184 81.5464 40.184 82.6664 40.184C83.2104 42.424 83.7544 44.712 84.2984 47.048C84.8744 49.352 85.4184 51.64 85.9304 53.912C86.5704 51.64 87.2104 49.352 87.8504 47.048C88.5224 44.712 89.1624 42.424 89.7704 40.184C91.0824 40.184 92.3944 40.184 93.7064 40.184C95.0504 40.184 96.3624 40.184 97.6424 40.184C96.3944 44.28 95.1304 48.424 93.8504 52.616C92.6024 56.776 91.3544 60.904 90.1064 65C88.8264 65 87.5304 65 86.2184 65C84.9064 65 83.6104 65 82.3304 65C81.8184 63.016 81.2904 61.016 80.7464 59C80.2344 56.984 79.7224 55 79.2104 53.048C78.6984 55 78.1704 56.984 77.6264 59C77.1144 61.016 76.6024 63.016 76.0904 65C74.8104 65 73.5144 65 72.2024 65C70.8904 65 69.5944 65 68.3144 65ZM116.237 65C116.237 64.744 116.237 64.504 116.237 64.28C116.237 64.024 116.237 63.784 116.237 63.56C115.437 64.232 114.525 64.744 113.501 65.096C112.509 65.48 111.437 65.672 110.285 65.672C108.653 65.672 107.117 65.368 105.677 64.76C104.237 64.12 102.957 63.224 101.837 62.072C100.749 60.888 99.8855 59.496 99.2455 57.896C98.6375 56.296 98.3335 54.52 98.3335 52.568C98.3335 50.584 98.6375 48.792 99.2455 47.192C99.8855 45.592 100.749 44.232 101.837 43.112C102.957 41.96 104.237 41.08 105.677 40.472C107.117 39.832 108.637 39.512 110.237 39.512C111.389 39.512 112.477 39.704 113.501 40.088C114.525 40.44 115.437 40.936 116.237 41.576C116.237 41.32 116.237 41.08 116.237 40.856C116.237 40.632 116.237 40.408 116.237 40.184C117.549 40.184 118.877 40.184 120.221 40.184C121.565 40.184 122.877 40.184 124.157 40.184C124.157 44.28 124.157 48.424 124.157 52.616C124.157 56.776 124.157 60.904 124.157 65C122.877 65 121.565 65 120.221 65C118.877 65 117.549 65 116.237 65ZM111.341 58.664C112.877 58.664 114.109 58.104 115.037 56.984C115.965 55.864 116.429 54.392 116.429 52.568C116.429 50.744 115.965 49.288 115.037 48.2C114.109 47.08 112.877 46.52 111.341 46.52C109.773 46.52 108.525 47.064 107.597 48.152C106.701 49.24 106.253 50.712 106.253 52.568C106.253 54.424 106.701 55.912 107.597 57.032C108.525 58.12 109.773 58.664 111.341 58.664ZM131.447 72.68C132.087 70.984 132.743 69.272 133.415 67.544C134.119 65.848 134.791 64.168 135.431 62.504C133.927 58.824 132.391 55.112 130.823 51.368C129.287 47.592 127.767 43.864 126.263 40.184C127.671 40.184 129.079 40.184 130.487 40.184C131.895 40.184 133.287 40.184 134.663 40.184C135.495 42.232 136.327 44.312 137.159 46.424C138.023 48.536 138.871 50.632 139.703 52.712C140.471 50.632 141.255 48.536 142.055 46.424C142.855 44.312 143.639 42.232 144.407 40.184C145.783 40.184 147.159 40.184 148.535 40.184C149.911 40.184 151.287 40.184 152.663 40.184C150.519 45.528 148.359 50.952 146.183 56.456C144.039 61.928 141.895 67.336 139.751 72.68C138.375 72.68 136.983 72.68 135.575 72.68C134.199 72.68 132.823 72.68 131.447 72.68ZM173.491 57.32C173.491 59.304 172.931 60.936 171.811 62.216C170.723 63.464 169.251 64.376 167.395 64.952C165.539 65.528 163.459 65.768 161.155 65.672C158.883 65.608 156.563 65.24 154.195 64.568C154.195 63.352 154.195 62.104 154.195 60.824C154.195 59.544 154.195 58.296 154.195 57.08C155.539 57.688 156.883 58.168 158.227 58.52C159.571 58.84 160.787 59.032 161.875 59.096C162.963 59.16 163.843 59.08 164.515 58.856C165.187 58.6 165.523 58.184 165.523 57.608C165.523 57.16 165.235 56.808 164.659 56.552C164.115 56.296 163.395 56.072 162.499 55.88C161.603 55.656 160.643 55.4 159.619 55.112C158.627 54.792 157.683 54.36 156.787 53.816C155.891 53.24 155.155 52.488 154.579 51.56C154.035 50.6 153.763 49.368 153.763 47.864C153.763 46.072 154.275 44.552 155.299 43.304C156.355 42.024 157.763 41.064 159.523 40.424C161.283 39.752 163.251 39.416 165.427 39.416C167.603 39.416 169.827 39.784 172.099 40.52C172.099 41.736 172.099 42.984 172.099 44.264C172.099 45.544 172.099 46.792 172.099 48.008C170.307 47.144 168.627 46.568 167.059 46.28C165.491 45.992 164.227 45.96 163.267 46.184C162.307 46.376 161.827 46.808 161.827 47.48C161.827 47.928 162.099 48.28 162.643 48.536C163.219 48.76 163.939 48.968 164.803 49.16C165.699 49.352 166.643 49.608 167.635 49.928C168.659 50.248 169.603 50.696 170.467 51.272C171.363 51.816 172.083 52.584 172.627 53.576C173.203 54.536 173.491 55.784 173.491 57.32ZM193.174 32.36C193.91 35.656 194.646 39 195.382 42.392C196.118 45.784 196.838 49.144 197.542 52.472C198.278 49.144 199.014 45.784 199.75 42.392C200.518 39 201.254 35.656 201.958 32.36C203.206 32.36 204.47 32.36 205.75 32.36C207.03 32.36 208.294 32.36 209.542 32.36C210.31 35.656 211.078 38.984 211.846 42.344C212.614 45.704 213.382 49.048 214.15 52.376C214.886 49.048 215.606 45.704 216.31 42.344C217.046 38.984 217.766 35.656 218.47 32.36C219.75 32.36 221.03 32.36 222.31 32.36C223.622 32.36 224.918 32.36 226.198 32.36C225.014 37.736 223.83 43.176 222.646 48.68C221.462 54.184 220.278 59.624 219.094 65C217.526 65 215.926 65 214.294 65C212.694 65 211.094 65 209.494 65C208.822 62.024 208.134 59.032 207.43 56.024C206.726 52.984 206.038 49.976 205.366 47C204.726 49.976 204.07 52.984 203.398 56.024C202.726 59.032 202.07 62.024 201.43 65C199.862 65 198.278 65 196.678 65C195.11 65 193.542 65 191.974 65C190.79 59.624 189.606 54.184 188.422 48.68C187.238 43.176 186.054 37.736 184.87 32.36C186.246 32.36 187.622 32.36 188.998 32.36C190.406 32.36 191.798 32.36 193.174 32.36ZM233.464 37.352C232.536 37.352 231.688 37.128 230.92 36.68C230.184 36.232 229.592 35.64 229.144 34.904C228.696 34.168 228.472 33.352 228.472 32.456C228.472 31.56 228.696 30.76 229.144 30.056C229.592 29.32 230.184 28.728 230.92 28.28C231.688 27.832 232.536 27.608 233.464 27.608C234.36 27.608 235.176 27.832 235.912 28.28C236.68 28.728 237.288 29.32 237.736 30.056C238.184 30.76 238.408 31.56 238.408 32.456C238.408 33.352 238.184 34.168 237.736 34.904C237.288 35.64 236.68 36.232 235.912 36.68C235.176 37.128 234.36 37.352 233.464 37.352ZM229.48 65C229.48 60.904 229.48 56.776 229.48 52.616C229.48 48.424 229.48 44.28 229.48 40.184C230.792 40.184 232.12 40.184 233.464 40.184C234.808 40.184 236.12 40.184 237.4 40.184C237.4 44.28 237.4 48.424 237.4 52.616C237.4 56.776 237.4 60.904 237.4 65C236.12 65 234.808 65 233.464 65C232.12 65 230.792 65 229.48 65ZM245.22 65C245.22 62.056 245.22 59.096 245.22 56.12C245.22 53.144 245.22 50.2 245.22 47.288C244.58 47.288 243.924 47.288 243.252 47.288C242.612 47.288 241.972 47.288 241.332 47.288C241.332 46.104 241.332 44.92 241.332 43.736C241.332 42.552 241.332 41.368 241.332 40.184C241.972 40.184 242.612 40.184 243.252 40.184C243.924 40.184 244.58 40.184 245.22 40.184C245.22 39.064 245.22 37.96 245.22 36.872C245.22 35.752 245.22 34.648 245.22 33.56C246.532 33.56 247.86 33.56 249.204 33.56C250.548 33.56 251.86 33.56 253.14 33.56C253.14 34.648 253.14 35.752 253.14 36.872C253.14 37.96 253.14 39.064 253.14 40.184C253.876 40.184 254.628 40.184 255.396 40.184C256.164 40.184 256.916 40.184 257.652 40.184C257.652 41.368 257.652 42.552 257.652 43.736C257.652 44.92 257.652 46.104 257.652 47.288C256.916 47.288 256.164 47.288 255.396 47.288C254.628 47.288 253.876 47.288 253.14 47.288C253.14 50.2 253.14 53.144 253.14 56.12C253.14 59.096 253.14 62.056 253.14 65C251.86 65 250.548 65 249.204 65C247.86 65 246.532 65 245.22 65ZM261.411 65C261.411 59.208 261.411 53.368 261.411 47.48C261.411 41.592 261.411 35.752 261.411 29.96C262.723 29.96 264.051 29.96 265.395 29.96C266.739 29.96 268.051 29.96 269.331 29.96C269.331 31.848 269.331 33.768 269.331 35.72C269.331 37.64 269.331 39.544 269.331 41.432C270.195 40.824 271.155 40.36 272.211 40.04C273.299 39.688 274.467 39.512 275.715 39.512C277.539 39.512 279.139 39.928 280.515 40.76C281.923 41.592 283.011 42.792 283.779 44.36C284.579 45.896 284.979 47.752 284.979 49.928C284.979 52.424 284.979 54.936 284.979 57.464C284.979 59.992 284.979 62.504 284.979 65C283.699 65 282.387 65 281.043 65C279.699 65 278.371 65 277.059 65C277.059 62.696 277.059 60.36 277.059 57.992C277.059 55.624 277.059 53.288 277.059 50.984C277.059 49.704 276.755 48.68 276.147 47.912C275.571 47.112 274.643 46.712 273.363 46.712C272.083 46.712 271.091 47.08 270.387 47.816C269.683 48.552 269.331 49.608 269.331 50.984C269.331 53.288 269.331 55.624 269.331 57.992C269.331 60.36 269.331 62.696 269.331 65C268.051 65 266.739 65 265.395 65C264.051 65 262.723 65 261.411 65ZM26.176 123C26.176 121.048 26.176 119.08 26.176 117.096C26.176 115.112 26.176 113.144 26.176 111.192C24.48 107.768 22.752 104.296 20.992 100.776C19.232 97.256 17.504 93.784 15.808 90.36C17.28 90.36 18.768 90.36 20.272 90.36C21.776 90.36 23.264 90.36 24.736 90.36C25.664 92.312 26.608 94.28 27.568 96.264C28.56 98.216 29.52 100.168 30.448 102.12C31.376 100.168 32.32 98.216 33.28 96.264C34.24 94.28 35.184 92.312 36.112 90.36C37.584 90.36 39.056 90.36 40.528 90.36C42 90.36 43.472 90.36 44.944 90.36C43.248 93.784 41.52 97.256 39.76 100.776C38 104.296 36.272 107.768 34.576 111.192C34.576 113.144 34.576 115.112 34.576 117.096C34.576 119.08 34.576 121.048 34.576 123C33.2 123 31.808 123 30.4 123C28.992 123 27.584 123 26.176 123ZM60.1765 123.768C57.8405 123.768 55.6805 123.352 53.6965 122.52C51.7125 121.656 50.0005 120.456 48.5605 118.92C47.1205 117.384 46.0005 115.576 45.2005 113.496C44.4005 111.384 44.0005 109.096 44.0005 106.632C44.0005 104.168 44.4005 101.896 45.2005 99.816C46.0005 97.736 47.1205 95.944 48.5605 94.44C50.0005 92.904 51.7125 91.72 53.6965 90.888C55.6805 90.024 57.8405 89.592 60.1765 89.592C62.5125 89.592 64.6565 90.024 66.6085 90.888C68.5925 91.72 70.3045 92.904 71.7445 94.44C73.2165 95.944 74.3525 97.736 75.1525 99.816C75.9525 101.896 76.3525 104.168 76.3525 106.632C76.3525 109.096 75.9525 111.384 75.1525 113.496C74.3525 115.576 73.2165 117.384 71.7445 118.92C70.3045 120.456 68.5925 121.656 66.6085 122.52C64.6565 123.352 62.5125 123.768 60.1765 123.768ZM60.1765 115.992C61.7445 115.992 63.0885 115.608 64.2085 114.84C65.3285 114.04 66.1925 112.936 66.8005 111.528C67.4405 110.12 67.7605 108.488 67.7605 106.632C67.7605 104.776 67.4405 103.16 66.8005 101.784C66.1925 100.408 65.3285 99.336 64.2085 98.568C63.0885 97.768 61.7445 97.368 60.1765 97.368C58.6405 97.368 57.2965 97.752 56.1445 98.52C55.0245 99.288 54.1445 100.376 53.5045 101.784C52.8965 103.16 52.5925 104.776 52.5925 106.632C52.5925 108.488 52.8965 110.12 53.5045 111.528C54.1445 112.936 55.0245 114.04 56.1445 114.84C57.2965 115.608 58.6405 115.992 60.1765 115.992ZM107.22 110.616C107.22 112.632 106.868 114.456 106.164 116.088C105.492 117.688 104.532 119.064 103.284 120.216C102.068 121.368 100.628 122.248 98.9643 122.856C97.3323 123.464 95.5563 123.768 93.6363 123.768C91.6843 123.768 89.8923 123.464 88.2603 122.856C86.6283 122.248 85.2043 121.384 83.9883 120.264C82.8043 119.112 81.8763 117.736 81.2043 116.136C80.5323 114.536 80.1963 112.728 80.1963 110.712C80.1963 107.352 80.1963 103.96 80.1963 100.536C80.1963 97.112 80.1963 93.72 80.1963 90.36C81.6043 90.36 83.0123 90.36 84.4203 90.36C85.8283 90.36 87.2203 90.36 88.5963 90.36C88.5963 93.656 88.5963 96.968 88.5963 100.296C88.5963 103.624 88.5963 106.936 88.5963 110.232C88.5963 111.96 89.0763 113.352 90.0363 114.408C90.9963 115.464 92.2283 115.992 93.7323 115.992C95.2363 115.992 96.4523 115.464 97.3803 114.408C98.3403 113.352 98.8203 111.96 98.8203 110.232C98.8203 106.936 98.8203 103.624 98.8203 100.296C98.8203 96.968 98.8203 93.656 98.8203 90.36C100.228 90.36 101.636 90.36 103.044 90.36C104.452 90.36 105.844 90.36 107.22 90.36C107.22 93.688 107.22 97.064 107.22 100.488C107.22 103.912 107.22 107.288 107.22 110.616Z" fill="#1B4DAA"/>
<path d="M22.6895 154H17.3672V139.908H22.709C25.1211 139.908 26.752 141.314 26.752 143.424C26.752 144.889 25.6777 146.256 24.3203 146.5V146.578C26.2344 146.822 27.4648 148.17 27.4648 150.045C27.4648 152.525 25.6875 154 22.6895 154ZM19.125 141.461V145.982H21.7617C23.8418 145.982 24.9746 145.152 24.9746 143.629C24.9746 142.232 24.0176 141.461 22.3086 141.461H19.125ZM19.125 152.447H22.4258C24.5449 152.447 25.6582 151.588 25.6582 149.957C25.6582 148.326 24.5059 147.496 22.2598 147.496H19.125V152.447ZM29.7332 157.799C29.5281 157.799 29.1863 157.779 29.0008 157.74V156.314C29.1863 156.354 29.45 156.363 29.6648 156.363C30.6121 156.363 31.1395 155.904 31.5301 154.723L31.7645 154.01L28.0145 143.844H29.8309L32.6434 152.301H32.6727L35.4852 143.844H37.2723L33.2781 154.713C32.409 157.086 31.5691 157.799 29.7332 157.799ZM41.975 154V152.75L50.0121 141.559V141.49H42.2484V139.908H52.2289V141.158L44.2309 152.35V152.418H52.3949V154H41.975ZM70.5867 152.418V154H62.032V139.908H63.7898V152.418H70.5867ZM75.8727 154.176C73.0602 154.176 71.1656 152.154 71.1656 148.922C71.1656 145.68 73.0602 143.668 75.8727 143.668C78.6754 143.668 80.5699 145.68 80.5699 148.922C80.5699 152.154 78.6754 154.176 75.8727 154.176ZM75.8727 152.682C77.6695 152.682 78.8414 151.314 78.8414 148.922C78.8414 146.529 77.6695 145.162 75.8727 145.162C74.0758 145.162 72.8941 146.529 72.8941 148.922C72.8941 151.314 74.0758 152.682 75.8727 152.682ZM90.4262 147.174H88.766C88.5219 146.07 87.6625 145.162 86.1684 145.162C84.4105 145.162 83.2191 146.617 83.2191 148.922C83.2191 151.285 84.4301 152.682 86.1879 152.682C87.5746 152.682 88.4828 151.949 88.7758 150.729H90.4457C90.182 152.75 88.4828 154.176 86.1781 154.176C83.3656 154.176 81.4906 152.193 81.4906 148.922C81.4906 145.719 83.3559 143.668 86.1586 143.668C88.6977 143.668 90.2113 145.348 90.4262 147.174ZM93.4953 148.355L97.9875 143.844H100.048L95.6438 148.229L100.185 154H98.2121L94.4426 149.273L93.4953 150.172V154H91.7961V139.908H93.4953V148.355Z" fill="#AEAEB2"/>
<path d="M134.385 118.909C134.565 119.036 134.779 119.104 134.999 119.104C135.219 119.104 135.434 119.036 135.613 118.909L135 118.042L135.615 118.909L135.626 118.9L135.656 118.879L135.769 118.797C135.867 118.726 136.007 118.622 136.187 118.486C138.292 116.898 140.279 115.158 142.133 113.282C143.759 111.627 145.412 109.693 146.665 107.642C147.911 105.602 148.812 103.358 148.812 101.108C148.812 98.4378 147.984 96.3511 146.517 94.9344C145.058 93.5262 143.089 92.8958 141.021 92.8958C138.577 92.8958 136.419 94.0759 135 95.8949C133.58 94.0759 131.421 92.8958 128.979 92.8958C124.616 92.8958 121.188 96.6344 121.188 101.108C121.188 103.358 122.09 105.6 123.335 107.642C124.587 109.693 126.241 111.627 127.867 113.283C129.843 115.282 131.971 117.126 134.231 118.797L134.344 118.879L134.374 118.9L134.385 118.909Z" fill="#BF0811"/>
<path d="M54.418 139.617V141.854H53.627V139.617H51.542V138.826H53.627V136.644H54.418V138.826H56.5029V139.617H54.418Z" fill="#2363DA"/>
<mask id="mask0_587_5297" style="mask-type:luminance" maskUnits="userSpaceOnUse" x="38" y="-103" width="500" height="500">
<path d="M538 397L538 -103L38 -103L38 397L538 397Z" fill="white"/>
</mask>
<g mask="url(#mask0_587_5297)">
<path d="M322.96 406.031C318.898 350.93 314.837 295.829 310.775 240.728C310.084 231.347 309.362 221.823 306.101 213C302.841 204.177 296.643 195.992 287.893 192.542C279.143 189.091 267.797 191.594 262.924 199.64C259.414 205.438 259.722 212.654 258.886 219.38C258.05 226.106 255.045 233.621 248.541 235.525C241.536 237.576 234.304 231.584 231.993 224.66C229.682 217.737 230.815 210.215 231.326 202.934C233.107 177.579 226.222 150.738 208.469 132.548C190.715 114.358 161.102 107.042 138.69 119.035C123.838 126.982 113.79 142.041 108.499 158.034C103.209 174.026 102.151 191.071 101.427 207.9C99.826 245.109 99.6539 282.379 100.909 319.601C102.074 354.123 96.646 388.633 100.242 422.987L322.96 406.031Z" fill="#E9F0FE"/>
</g>
<mask id="mask1_587_5297" style="mask-type:luminance" maskUnits="userSpaceOnUse" x="0" y="82" width="376" height="230">
<path d="M376 82.6428H0V312H376V82.6428Z" fill="white"/>
</mask>
<g mask="url(#mask1_587_5297)">
<path fill-rule="evenodd" clip-rule="evenodd" d="M93.8567 207.726C90.9645 206.736 87.8723 206.46 84.8621 206.805C85.4419 206.812 86.0134 206.821 86.5586 206.8C89.0191 206.865 91.4691 207.18 93.8567 207.726ZM380.109 222.587C380.977 223.1 384.145 224.017 383.674 225.101C383.028 226.001 381.266 224.188 380.397 224.003C379.211 223.436 377.984 223 376.729 222.677V312.169H264.709C264.906 314.19 265.125 316.213 265.57 318.203C265.962 319.941 266.478 321.651 266.985 323.361C267.216 324.041 265.98 324.437 265.772 323.673C264.843 320.63 264.079 316.699 263.506 312.169C260.368 287.405 262.878 244.726 274.707 231.182C278.425 227.514 283.015 224.519 287.973 222.475C294.678 220.231 301.981 219.556 309.078 219.631C310.482 219.749 313.808 219.837 316.625 220.264C316.409 220.151 316.191 220.041 315.971 219.932C307.741 216.821 297.832 217.186 289.81 220.682C288.822 221.198 287.767 221.671 286.964 222.425C286.648 223.1 285.484 222.634 285.814 221.953C286.58 220.857 288.01 220.309 289.191 219.668C296.991 216.143 306.433 215.843 314.667 218.171C321.399 220.714 327.317 225.887 329.878 232.259C333.487 228.716 340.078 227.279 343.734 231.517H343.735C348.191 226.193 354.677 222.669 361.832 221.511C366.715 220.675 371.906 220.285 376.731 221.462C377.88 221.744 379.008 222.113 380.109 222.587ZM113.874 229.396C114.95 237.582 114.792 245.86 113.503 254.017C111.044 271.27 107.274 288.324 102.897 305.227C102.239 307.509 101.769 309.845 101.26 312.169C100.608 315.149 99.8946 318.111 98.6432 320.922C97.9747 321.948 97.8378 323.966 96.6564 323.759C95.46 323.564 98.1341 319.581 98.2153 318.741C98.7854 316.551 99.3524 314.36 99.9156 312.169H-0.396681V214.486C-3.6754 215.481 -6.67814 217.107 -8.68146 219.77C-9.2763 220.616 -9.89594 221.536 -9.96889 222.568C-9.96889 222.885 -10.2554 223.151 -10.5983 223.151C-12.3114 222.725 -10.1516 219.738 -9.58311 218.936C-7.29778 216.106 -4.01155 214.277 -0.397433 213.216C3.03319 212.209 6.75935 211.892 10.208 212.065C18.3432 212.326 25.5172 217.19 27.8477 224.495C32.1017 220.903 39.9413 220.443 43.3727 225.255C46.7988 217.512 57.9969 213.43 66.3373 216.229C66.8314 216.354 67.3517 216.808 67.8488 216.738C68.5001 215.897 68.9482 214.928 69.598 214.081C75.2899 206.105 87.3023 203.228 96.5053 207.467C96.8144 207.601 96.9768 207.93 96.8399 208.232C96.7655 208.336 96.6835 208.412 96.594 208.464C98.841 209.161 101.013 210.068 103.063 211.17C110.895 214.644 113.082 221.957 113.874 229.396Z" fill="#E9F0FE"/>
</g>
<mask id="mask2_587_5297" style="mask-type:luminance" maskUnits="userSpaceOnUse" x="50" y="147" width="326" height="167">
<path d="M375.2 147H50V314H375.2V147Z" fill="white"/>
</mask>
<g mask="url(#mask2_587_5297)">
<path d="M187.119 195.64C188.529 199.927 189.939 204.214 191.35 208.501" stroke="#270504" stroke-width="0.6504" stroke-miterlimit="10" stroke-linecap="round" stroke-linejoin="round"/>
<path d="M196.863 194.985C196.289 199.156 195.714 203.325 195.14 207.496" stroke="#270504" stroke-width="0.6504" stroke-miterlimit="10" stroke-linecap="round" stroke-linejoin="round"/>
</g>
<mask id="mask3_587_5297" style="mask-type:luminance" maskUnits="userSpaceOnUse" x="50" y="147" width="326" height="167">
<path d="M375.2 147H50V314H375.2V147Z" fill="white"/>
</mask>
<g mask="url(#mask3_587_5297)">
<path d="M141.294 260.998C140.031 243.174 138.448 235.402 127.938 214.103L133.793 209.948L124.948 205.872L124.801 208.601L113.568 211.253L116.656 262.372L120.874 320.336L145.72 319.12C145.72 319.12 142.662 280.301 141.294 260.998Z" fill="#C5CEEB"/>
<path d="M124.781 288.955L126.759 328.738L35.0132 315.214L56.9837 278.477L124.781 288.955Z" fill="#3C5BBF"/>
<path d="M108.08 292.016C113.664 292.248 119.248 292.48 124.832 292.712" stroke="#270504" stroke-width="0.6504" stroke-miterlimit="10" stroke-linecap="round" stroke-linejoin="round"/>
<path d="M124.78 288.955L92.5562 286.624L102.038 253.236L129.658 256.686L124.78 288.955Z" fill="white"/>
<path d="M136.201 169.37C137.682 169.686 139.164 170.001 140.645 170.318C141.344 168.632 142.041 166.947 142.74 165.26C137.47 163.055 131.903 161.22 126.191 161.3C120.478 161.381 114.553 163.648 111.221 168.289C108.342 172.299 107.751 177.843 109.721 182.369L133.366 187.891C135.524 182.683 137.678 177.484 139.832 172.283C138.519 171.447 137.294 170.476 136.201 169.37Z" fill="#DD2120"/>
<path d="M111.461 168.569C113.452 165.196 116.796 162.732 120.487 161.419C124.177 160.107 128.195 159.889 132.084 160.357C135.973 160.824 139.753 161.957 143.437 163.285" stroke="#DD2120" stroke-width="0.6504" stroke-miterlimit="10" stroke-linecap="round" stroke-linejoin="round"/>
<path d="M109.633 167.22C110.272 167.6 110.912 167.979 111.551 168.358" stroke="#DD2120" stroke-width="0.6504" stroke-miterlimit="10" stroke-linecap="round" stroke-linejoin="round"/>
<path d="M134.671 183.914C134.28 182.27 133.89 180.625 133.499 178.981C133.247 177.919 132.984 176.833 132.384 175.921C131.784 175.01 130.758 174.196 129.668 174.249C126.348 174.41 123.212 174.451 119.892 174.612C118.99 177.025 118.173 179.352 117.271 181.764C116.056 179.924 113.584 179.022 111.469 179.646C109.353 180.271 107.767 182.371 107.746 184.576C107.724 186.781 109.268 188.912 111.37 189.578C110.162 192.046 108.827 194.603 107.618 197.071L121.919 202.721C122.791 200.473 123.726 198.09 124.599 195.843C127.678 195.759 130.849 194.737 132.945 192.48C135.041 190.224 135.382 186.911 134.671 183.914Z" fill="#FF9A7D"/>
<path d="M125.43 184.252C125.789 184.252 126.08 183.961 126.08 183.601C126.08 183.242 125.789 182.951 125.43 182.951C125.07 182.951 124.779 183.242 124.779 183.601C124.779 183.961 125.07 184.252 125.43 184.252Z" fill="#270504"/>
<path d="M133.375 183.454C133.735 183.454 134.026 183.163 134.026 182.804C134.026 182.445 133.735 182.154 133.375 182.154C133.016 182.154 132.725 182.445 132.725 182.804C132.725 183.163 133.016 183.454 133.375 183.454Z" fill="#270504"/>
<path d="M129.978 182.939C130.324 183.755 130.67 184.571 131.015 185.386C130.597 185.452 130.178 185.519 129.76 185.585" stroke="#270504" stroke-width="0.6504" stroke-miterlimit="10" stroke-linecap="round" stroke-linejoin="round"/>
<path d="M123.356 179.047C123.554 178.189 124.296 177.482 125.163 177.326C126.03 177.17 126.971 177.572 127.457 178.307" stroke="#270504" stroke-width="0.6504" stroke-miterlimit="10" stroke-linecap="round" stroke-linejoin="round"/>
<path d="M131.757 177.521C132.42 177.443 133.083 177.364 133.746 177.286" stroke="#270504" stroke-width="0.6504" stroke-miterlimit="10" stroke-linecap="round" stroke-linejoin="round"/>
<path d="M126.832 186.867C126.825 187.32 127.153 187.757 127.591 187.876C128.028 187.996 128.533 187.786 128.757 187.392" stroke="#270504" stroke-width="0.6504" stroke-miterlimit="10" stroke-linecap="round" stroke-linejoin="round"/>
<path d="M119.905 194.351C121.723 195.337 123.8 195.838 125.867 195.791" stroke="#270504" stroke-width="0.6504" stroke-miterlimit="10" stroke-linecap="round" stroke-linejoin="round"/>
<path d="M111.569 182.109C112.357 182.852 113.145 183.595 113.933 184.338" stroke="#270504" stroke-width="0.6504" stroke-miterlimit="10" stroke-linecap="round" stroke-linejoin="round"/>
<path d="M111.1 189.682C111.788 189.767 112.475 189.852 113.163 189.938" stroke="#270504" stroke-width="0.6504" stroke-miterlimit="10" stroke-linecap="round" stroke-linejoin="round"/>
<path d="M123.185 174.574C125.197 174.847 127.21 175.119 129.222 175.392" stroke="#270504" stroke-width="0.6504" stroke-miterlimit="10" stroke-linecap="round" stroke-linejoin="round"/>
<path d="M103.878 197.385L106.598 193.446L131.071 204.734L119.719 216.822L105.018 319.546L43.7661 301.661C43.7661 301.661 70.5483 234.642 79.7645 219.334C88.9813 204.027 96.3965 199.127 103.878 197.385Z" fill="#C5CEEB"/>
<mask id="mask4_587_5297" style="mask-type:luminance" maskUnits="userSpaceOnUse" x="43" y="193" width="89" height="127">
<path d="M103.877 197.385L106.597 193.446L131.07 204.734L119.718 216.822L105.017 319.546L43.7651 301.661C43.7651 301.661 70.5473 234.642 79.7635 219.334C88.9803 204.027 96.3955 199.127 103.877 197.385Z" fill="white"/>
</mask>
<g mask="url(#mask4_587_5297)">
<path d="M92.6392 322.447L82.7687 319.806L111.259 220.113L106.65 219.328L80.1138 320.611L67.9884 313.525L104.681 204.43L102.2 203.736L61.1247 316.19H51.4467L96.8999 198.19L91.0138 199.414L50.914 308.254L49.0825 307.58L89.5563 197.725L100.008 195.55L54.289 314.239H59.7608L100.987 201.37L107.185 203.104L70.3441 312.642L78.878 317.629L105.215 217.103L113.734 218.556L85.1901 318.434L91.2558 320.058L118.775 216.572L120.675 217.012L99.8729 322.048L97.9588 321.67L112.877 246.346L92.6392 322.447Z" fill="white"/>
</g>
<path d="M122.942 213.517C124.925 211.597 126.907 209.676 128.889 207.756" stroke="#270504" stroke-width="0.6504" stroke-miterlimit="10" stroke-linecap="round" stroke-linejoin="round"/>
<path d="M106.509 273.857C106.509 273.06 105.863 272.413 105.065 272.413C104.267 272.413 103.62 273.059 103.62 273.857C103.62 274.655 104.267 275.302 105.065 275.302C105.863 275.301 106.509 274.655 106.509 273.857Z" stroke="#270504" stroke-width="0.6504" stroke-miterlimit="10" stroke-linecap="round" stroke-linejoin="round"/>
<path d="M102.435 287.468C103.233 287.468 103.88 286.821 103.88 286.023C103.88 285.225 103.233 284.579 102.435 284.579C101.637 284.579 100.991 285.225 100.991 286.023C100.991 286.821 101.637 287.468 102.435 287.468Z" stroke="#270504" stroke-width="0.6504" stroke-miterlimit="10" stroke-linecap="round" stroke-linejoin="round"/>
<path d="M101.613 298.666C101.613 297.868 100.967 297.221 100.169 297.221C99.3706 297.221 98.7241 297.868 98.7241 298.666C98.7241 299.464 99.3706 300.11 100.169 300.11C100.967 300.11 101.613 299.464 101.613 298.666Z" stroke="#270504" stroke-width="0.6504" stroke-miterlimit="10" stroke-linecap="round" stroke-linejoin="round"/>
<path d="M182.621 236.763C184.062 237.343 185.951 237.267 187.355 236.6C188.092 236.786 188.835 236.973 189.595 237C190.354 237.028 191.193 236.792 191.824 236.369C192.852 236.759 194.228 236.496 194.987 235.699C195.867 235.452 196.456 234.375 196.548 233.466C197.055 228.431 197.755 223.358 197.989 218.304C198.093 216.03 196.7 213.733 194.46 213.33C187.537 212.082 180.492 210.518 173.501 209.732C165.323 208.811 157.404 212.505 151.169 217.875C143.617 224.379 136.311 231.042 128.759 237.546C127.351 232.643 126.199 227.724 124.792 222.82C115.011 225.677 105.513 227.883 95.7314 230.739C96.7376 242.299 100.198 253.64 105.817 263.792C109.439 270.339 117.093 273.883 124.571 274.101C132.049 274.32 139.546 270.802 144.155 264.908C151.583 255.413 159.65 246.008 167.517 236.872C172.342 239.097 177.752 238.89 182.621 236.763Z" fill="#FF9A7D"/>
<path d="M128.647 237.126C126.69 238.995 124.734 240.864 122.777 242.734" stroke="#270504" stroke-width="0.6504" stroke-miterlimit="10" stroke-linecap="round" stroke-linejoin="round"/>
<path d="M173.381 228.817C177.407 227.981 181.433 227.145 185.459 226.308C184.814 227.956 184.019 229.715 183.374 231.363C183.482 230.511 183.374 229.739 183.113 228.92C182.852 228.102 182.114 227.369 181.256 227.406C180.501 230.011 179.702 232.675 178.948 235.279C180.213 235.613 181.523 236.225 182.788 236.559" stroke="#270504" stroke-width="0.6504" stroke-miterlimit="10" stroke-linecap="round" stroke-linejoin="round"/>
<path d="M187.452 236.673C190.335 230.96 193.217 225.246 196.101 219.533" stroke="#270504" stroke-width="0.6504" stroke-miterlimit="10" stroke-linecap="round" stroke-linejoin="round"/>
<path d="M191.908 236.654C193.545 231.131 195.183 225.608 196.821 220.085" stroke="#270504" stroke-width="0.6504" stroke-miterlimit="10" stroke-linecap="round" stroke-linejoin="round"/>
<path d="M195.044 235.278C195.808 230.865 196.572 226.451 197.336 222.038" stroke="#270504" stroke-width="0.6504" stroke-miterlimit="10" stroke-linecap="round" stroke-linejoin="round"/>
<path d="M119.82 207.347C116.975 201.056 109.308 197.387 102.624 199.119C95.9401 200.85 91.4192 207.774 91.9987 214.654C92.6465 222.35 93.2949 230.045 93.9434 237.741L129.773 228.954C126.848 221.505 123.118 214.638 119.82 207.347Z" fill="#C5CEEB"/>
<mask id="mask5_587_5297" style="mask-type:luminance" maskUnits="userSpaceOnUse" x="91" y="198" width="39" height="40">
<path d="M119.82 207.347C116.975 201.056 109.308 197.387 102.624 199.119C95.9401 200.85 91.4192 207.774 91.9987 214.654C92.6465 222.35 93.2949 230.045 93.9434 237.741L129.773 228.954C126.848 221.505 123.118 214.638 119.82 207.347Z" fill="white"/>
</mask>
<g mask="url(#mask5_587_5297)">
<path d="M98.9168 239.767C98.429 239.767 98.0082 239.402 97.9491 238.907L93.2798 199.596C93.2297 199.176 93.4567 198.771 93.8411 198.595L97.6154 196.858C97.8827 196.734 98.1923 196.738 98.4564 196.87C98.7204 197.001 98.9116 197.244 98.9754 197.532L107.838 237.336L108.68 236.894L101.716 192.064C101.646 191.612 101.9 191.171 102.327 191.005L107.42 189.028C107.699 188.92 108.01 188.945 108.267 189.096C108.525 189.247 108.698 189.507 108.74 189.802L115.306 236.537L120.324 235.316L111.181 195.111C111.12 194.838 111.178 194.551 111.341 194.325C111.505 194.097 111.758 193.951 112.036 193.924L114.393 193.688C114.866 193.632 115.298 193.937 115.428 194.39L127.512 236.487C127.661 237.005 127.361 237.545 126.844 237.693C126.322 237.842 125.785 237.543 125.637 237.025L113.777 195.71L113.33 195.755L122.44 235.821C122.558 236.341 122.237 236.859 121.719 236.985L114.721 238.688C114.453 238.754 114.171 238.701 113.942 238.547C113.714 238.392 113.563 238.148 113.524 237.876L106.979 191.292L103.766 192.54L110.716 237.285C110.78 237.698 110.575 238.105 110.205 238.299L107.617 239.656C107.348 239.797 107.029 239.806 106.753 239.677C106.478 239.549 106.277 239.3 106.211 239.004L97.3344 199.136L95.3026 200.071L99.8885 238.677C99.9523 239.212 99.5698 239.697 99.0346 239.761C98.9936 239.765 98.9552 239.767 98.9168 239.767Z" fill="white"/>
</g>
<path d="M93.7466 233.271C105.196 230.659 116.645 228.047 128.094 225.436" stroke="#270504" stroke-width="0.6504" stroke-miterlimit="10" stroke-linecap="round" stroke-linejoin="round"/>
</g>
<mask id="mask6_587_5297" style="mask-type:luminance" maskUnits="userSpaceOnUse" x="50" y="147" width="326" height="167">
<path d="M375.2 147H50V314H375.2V147Z" fill="white"/>
</mask>
<g mask="url(#mask6_587_5297)">
<path d="M353.883 287.049C353.093 283.633 352.821 279.967 352.031 276.551C325.795 278.725 299.395 281.009 273.159 283.183C268.714 295.501 264.27 307.819 259.825 320.137L352.657 321.253C357.589 310.511 356.545 298.565 353.883 287.049Z" fill="#DD2120"/>
<path d="M349.114 282.554C352.528 294.337 352.729 307.034 349.688 318.919" stroke="#270504" stroke-width="0.6504" stroke-miterlimit="10" stroke-linecap="round" stroke-linejoin="round"/>
<path d="M339.993 283.036C342.668 289.086 346.642 294.559 351.569 298.974" stroke="#270504" stroke-width="0.6504" stroke-miterlimit="10" stroke-linecap="round" stroke-linejoin="round"/>
<path d="M307.224 308.472C306.757 312.348 306.288 316.224 305.821 320.1" stroke="#270504" stroke-width="0.6504" stroke-miterlimit="10" stroke-linecap="round" stroke-linejoin="round"/>
<path d="M268.37 296.18C271.207 292.05 274.043 287.92 276.88 283.791" stroke="#270504" stroke-width="0.6504" stroke-miterlimit="10" stroke-linecap="round" stroke-linejoin="round"/>
<path d="M363.494 208.96L383.981 223.594L381.054 258.716L340.079 232.375V217.741L363.494 208.96Z" fill="#C14F4F"/>
<path d="M275.27 228.941C269.339 226.156 263.672 223.023 257.741 220.238C254.974 225.093 252.227 229.601 249.459 234.457C247.47 230.697 245.472 226.924 242.985 223.474C240.497 220.024 237.485 216.885 233.818 214.73C229.271 212.056 224.173 211.604 218.898 211.649C212.841 211.701 206.848 212.235 201.023 213.898C199.358 214.373 198.054 215.922 197.872 217.644C197.312 222.928 196.784 228.28 196.344 233.574C196.243 234.787 197.023 235.977 197.971 236.741C198.919 237.505 200.198 237.843 201.399 237.646C201.399 238.458 201.717 239.248 202.28 239.833C202.843 240.418 203.639 240.775 204.451 240.805C208.536 240.959 212.684 241.203 216.748 240.766C219.226 240.5 221.867 240.862 224.242 240.105C228.026 248.559 231.878 256.766 235.662 265.221C238.179 270.845 242.261 275.665 247.93 278.078C253.599 280.493 260.282 280.407 265.887 277.847C270.621 275.686 274.429 271.956 278.131 268.3L275.27 228.941Z" fill="#C14F4F"/>
<path d="M201.217 238.503C201.153 237.168 202.476 236.238 203.639 235.58C206.958 233.704 210.277 231.828 213.595 229.951C211.243 228.165 209.097 226.047 206.745 224.261C205.632 226.938 204.077 229.865 202.964 232.541" stroke="#270504" stroke-width="0.6504" stroke-miterlimit="10" stroke-linecap="round" stroke-linejoin="round"/>
<path d="M204.128 230.168C205.237 229.662 206.347 229.156 207.456 228.65C207.927 228.435 208.409 228.217 208.924 228.158C209.439 228.098 210.002 228.223 210.353 228.604C209.473 230.135 208.692 231.778 207.812 233.309" stroke="#270504" stroke-width="0.6504" stroke-miterlimit="10" stroke-linecap="round" stroke-linejoin="round"/>
<path d="M224.239 240.332C225.082 239.99 225.925 239.65 226.768 239.308" stroke="#270504" stroke-width="0.6504" stroke-miterlimit="10" stroke-linecap="round" stroke-linejoin="round"/>
<path d="M249.254 233.615C251.496 237.057 253.737 240.5 255.978 243.942" stroke="#270504" stroke-width="0.6504" stroke-miterlimit="10" stroke-linecap="round" stroke-linejoin="round"/>
<path d="M366.42 208.96C361.967 206.361 358.471 203.654 353.801 201.468C346.63 198.11 338.68 196.811 330.766 196.52C323.847 196.266 316.815 196.116 309.896 195.863C310.178 197.757 309.066 199.706 307.413 200.673C305.759 201.639 303.675 201.7 301.852 201.109C300.03 200.517 298.596 199.454 297.275 198.067C290.407 200.047 283.54 202.028 276.672 204.008C267.491 206.656 259.096 212.9 255.351 221.691C260.052 224.664 264.72 227.235 269.421 230.208L269.835 285.057L354.713 282.13L348.859 226.521L366.42 208.96Z" fill="#5F7DFC"/>
<path d="M288.77 201.619C289.873 206.923 293.815 211.55 298.877 213.481C303.94 215.413 309.962 214.589 314.319 211.367C318.676 208.146 321.229 202.631 320.866 197.224" stroke="#270504" stroke-width="0.6504" stroke-miterlimit="10" stroke-linecap="round" stroke-linejoin="round"/>
<path d="M269.306 230.549C268.913 228.455 268.521 226.361 268.128 224.266" stroke="#270504" stroke-width="0.6504" stroke-miterlimit="10" stroke-linecap="round" stroke-linejoin="round"/>
<path d="M347.562 224.976C352.522 218.926 357.483 212.874 362.443 206.823" stroke="#270504" stroke-width="0.6504" stroke-miterlimit="10" stroke-linecap="round" stroke-linejoin="round"/>
<path d="M257.15 219.573C260.819 221.824 264.488 224.074 268.158 226.325" stroke="#270504" stroke-width="0.6504" stroke-miterlimit="10" stroke-linecap="round" stroke-linejoin="round"/>
<path d="M263.239 215.254C263.241 216.121 263.243 216.989 263.246 217.856" stroke="white" stroke-width="0.6504" stroke-miterlimit="10" stroke-linecap="round" stroke-linejoin="round"/>
<path d="M268.803 213.723C269.721 213.468 270.639 213.213 271.557 212.958" stroke="white" stroke-width="0.6504" stroke-miterlimit="10" stroke-linecap="round" stroke-linejoin="round"/>
<path d="M272.628 220.457C272.628 221.222 272.628 221.988 272.628 222.753" stroke="white" stroke-width="0.6504" stroke-miterlimit="10" stroke-linecap="round" stroke-linejoin="round"/>
<path d="M282.882 217.243C283.699 217.294 284.515 217.345 285.331 217.396" stroke="white" stroke-width="0.6504" stroke-miterlimit="10" stroke-linecap="round" stroke-linejoin="round"/>
<path d="M279.041 206.683C278.989 207.397 278.937 208.111 278.885 208.825" stroke="white" stroke-width="0.6504" stroke-miterlimit="10" stroke-linecap="round" stroke-linejoin="round"/>
<path d="M286.402 207.82C287.167 207.813 287.933 207.806 288.698 207.799" stroke="white" stroke-width="0.6504" stroke-miterlimit="10" stroke-linecap="round" stroke-linejoin="round"/>
<path d="M294.512 217.856C294.512 218.723 294.512 219.59 294.512 220.457" stroke="white" stroke-width="0.6504" stroke-miterlimit="10" stroke-linecap="round" stroke-linejoin="round"/>
<path d="M285.488 226.433C284.671 226.892 283.856 227.352 283.04 227.811" stroke="white" stroke-width="0.6504" stroke-miterlimit="10" stroke-linecap="round" stroke-linejoin="round"/>
<path d="M275.973 233.778C276.227 234.645 276.481 235.512 276.736 236.38" stroke="white" stroke-width="0.6504" stroke-miterlimit="10" stroke-linecap="round" stroke-linejoin="round"/>
<path d="M286.257 235.82C287.329 235.672 288.401 235.525 289.473 235.376" stroke="white" stroke-width="0.6504" stroke-miterlimit="10" stroke-linecap="round" stroke-linejoin="round"/>
<path d="M278.59 243.412C278.537 244.279 278.485 245.146 278.432 246.014" stroke="white" stroke-width="0.6504" stroke-miterlimit="10" stroke-linecap="round" stroke-linejoin="round"/>
<path d="M272.781 242.035C272.322 242.494 271.863 242.954 271.403 243.413" stroke="white" stroke-width="0.6504" stroke-miterlimit="10" stroke-linecap="round" stroke-linejoin="round"/>
<path d="M275.689 253.36C276.301 254.023 276.913 254.686 277.525 255.35" stroke="white" stroke-width="0.6504" stroke-miterlimit="10" stroke-linecap="round" stroke-linejoin="round"/>
<path d="M289.757 247.828C290.669 247.356 291.58 246.885 292.492 246.412" stroke="white" stroke-width="0.6504" stroke-miterlimit="10" stroke-linecap="round" stroke-linejoin="round"/>
<path d="M287.744 257.167C287.281 258.032 286.818 258.897 286.354 259.762" stroke="white" stroke-width="0.6504" stroke-miterlimit="10" stroke-linecap="round" stroke-linejoin="round"/>
<path d="M275.077 262.695C275.332 263.716 275.587 264.735 275.842 265.756" stroke="white" stroke-width="0.6504" stroke-miterlimit="10" stroke-linecap="round" stroke-linejoin="round"/>
<path d="M284.72 268.436C285.536 268.419 286.352 268.402 287.168 268.385" stroke="white" stroke-width="0.6504" stroke-miterlimit="10" stroke-linecap="round" stroke-linejoin="round"/>
<path d="M276.196 274.509C276.462 275.424 276.729 276.339 276.995 277.254" stroke="white" stroke-width="0.6504" stroke-miterlimit="10" stroke-linecap="round" stroke-linejoin="round"/>
<path d="M288.219 277.413C288.782 277.819 289.345 278.225 289.908 278.63" stroke="white" stroke-width="0.6504" stroke-miterlimit="10" stroke-linecap="round" stroke-linejoin="round"/>
<path d="M296.822 271.906C297.688 271.497 298.555 271.088 299.421 270.678" stroke="white" stroke-width="0.6504" stroke-miterlimit="10" stroke-linecap="round" stroke-linejoin="round"/>
<path d="M300.328 254.584C300.022 255.145 299.716 255.706 299.41 256.267" stroke="white" stroke-width="0.6504" stroke-miterlimit="10" stroke-linecap="round" stroke-linejoin="round"/>
<path d="M272.146 281.068C272.352 281.628 272.558 282.189 272.764 282.749" stroke="white" stroke-width="0.6504" stroke-miterlimit="10" stroke-linecap="round" stroke-linejoin="round"/>
<path d="M302.152 279.1C302.933 279.418 303.715 279.736 304.496 280.054" stroke="white" stroke-width="0.6504" stroke-miterlimit="10" stroke-linecap="round" stroke-linejoin="round"/>
<path d="M307.215 264.072C307.98 263.766 308.745 263.46 309.51 263.154" stroke="white" stroke-width="0.6504" stroke-miterlimit="10" stroke-linecap="round" stroke-linejoin="round"/>
<path d="M300.135 242.051C300.438 242.767 300.741 243.482 301.044 244.198" stroke="white" stroke-width="0.6504" stroke-miterlimit="10" stroke-linecap="round" stroke-linejoin="round"/>
<path d="M297.446 229.676C298.259 229.111 299.072 228.546 299.886 227.981" stroke="white" stroke-width="0.6504" stroke-miterlimit="10" stroke-linecap="round" stroke-linejoin="round"/>
<path d="M309.357 219.998C309.766 220.917 310.174 221.834 310.581 222.753" stroke="white" stroke-width="0.6504" stroke-miterlimit="10" stroke-linecap="round" stroke-linejoin="round"/>
<path d="M310.734 236.706C312.01 236.735 313.285 236.764 314.561 236.792" stroke="white" stroke-width="0.6504" stroke-miterlimit="10" stroke-linecap="round" stroke-linejoin="round"/>
<path d="M311.239 251.817C311.444 252.582 311.649 253.347 311.854 254.112" stroke="white" stroke-width="0.6504" stroke-miterlimit="10" stroke-linecap="round" stroke-linejoin="round"/>
<path d="M316.715 271.639C317.531 271.487 318.348 271.335 319.164 271.183" stroke="white" stroke-width="0.6504" stroke-miterlimit="10" stroke-linecap="round" stroke-linejoin="round"/>
<path d="M315.785 277.386C315.785 278.1 315.785 278.815 315.785 279.529" stroke="white" stroke-width="0.6504" stroke-miterlimit="10" stroke-linecap="round" stroke-linejoin="round"/>
<path d="M332.765 276.127C333.58 275.971 334.396 275.816 335.211 275.66" stroke="white" stroke-width="0.6504" stroke-miterlimit="10" stroke-linecap="round" stroke-linejoin="round"/>
<path d="M326.912 257.627C326.656 258.238 326.4 258.85 326.143 259.461" stroke="white" stroke-width="0.6504" stroke-miterlimit="10" stroke-linecap="round" stroke-linejoin="round"/>
<path d="M335.824 263.27C336.59 263.119 337.355 262.969 338.121 262.819" stroke="white" stroke-width="0.6504" stroke-miterlimit="10" stroke-linecap="round" stroke-linejoin="round"/>
<path d="M326.8 243.258C326.29 244.329 325.78 245.4 325.27 246.471" stroke="white" stroke-width="0.6504" stroke-miterlimit="10" stroke-linecap="round" stroke-linejoin="round"/>
<path d="M336.597 248.309C337.005 249.024 337.413 249.738 337.821 250.452" stroke="white" stroke-width="0.6504" stroke-miterlimit="10" stroke-linecap="round" stroke-linejoin="round"/>
<path d="M344.41 243.768C345.429 243.611 346.449 243.454 347.469 243.298" stroke="white" stroke-width="0.6504" stroke-miterlimit="10" stroke-linecap="round" stroke-linejoin="round"/>
<path d="M337.209 233.312C337.107 234.23 337.005 235.149 336.903 236.066" stroke="white" stroke-width="0.6504" stroke-miterlimit="10" stroke-linecap="round" stroke-linejoin="round"/>
<path d="M323.482 229.713C324.192 230.128 324.902 230.544 325.612 230.959" stroke="white" stroke-width="0.6504" stroke-miterlimit="10" stroke-linecap="round" stroke-linejoin="round"/>
<path d="M324.66 220.61C325.833 220.1 327.007 219.59 328.18 219.08" stroke="white" stroke-width="0.6504" stroke-miterlimit="10" stroke-linecap="round" stroke-linejoin="round"/>
<path d="M319.93 212.043C319.728 212.911 319.526 213.778 319.324 214.646" stroke="white" stroke-width="0.6504" stroke-miterlimit="10" stroke-linecap="round" stroke-linejoin="round"/>
<path d="M325.733 201.354C326.55 201.305 327.366 201.256 328.182 201.208" stroke="white" stroke-width="0.6504" stroke-miterlimit="10" stroke-linecap="round" stroke-linejoin="round"/>
<path d="M325.731 206.684C325.681 207.551 325.629 208.418 325.579 209.285" stroke="white" stroke-width="0.6504" stroke-miterlimit="10" stroke-linecap="round" stroke-linejoin="round"/>
<path d="M332.895 215.6C333.509 216.056 334.124 216.511 334.739 216.967" stroke="white" stroke-width="0.6504" stroke-miterlimit="10" stroke-linecap="round" stroke-linejoin="round"/>
<path d="M336.444 225.048C337.261 224.844 338.077 224.639 338.893 224.436" stroke="white" stroke-width="0.6504" stroke-miterlimit="10" stroke-linecap="round" stroke-linejoin="round"/>
<path d="M344.852 215.605C345.723 215.789 346.595 215.973 347.466 216.156" stroke="white" stroke-width="0.6504" stroke-miterlimit="10" stroke-linecap="round" stroke-linejoin="round"/>
<path d="M338.854 207.278C338.554 207.944 338.254 208.61 337.954 209.276" stroke="white" stroke-width="0.6504" stroke-miterlimit="10" stroke-linecap="round" stroke-linejoin="round"/>
<path d="M345.625 201.362C346.798 201.411 347.971 201.458 349.144 201.506" stroke="white" stroke-width="0.6504" stroke-miterlimit="10" stroke-linecap="round" stroke-linejoin="round"/>
<path d="M352.054 207.602C352.003 208.367 351.952 209.133 351.901 209.898" stroke="white" stroke-width="0.6504" stroke-miterlimit="10" stroke-linecap="round" stroke-linejoin="round"/>
<path d="M334.735 198.881C334.788 199.493 334.841 200.105 334.894 200.717" stroke="white" stroke-width="0.6504" stroke-miterlimit="10" stroke-linecap="round" stroke-linejoin="round"/>
<path d="M345.674 253.303C346.429 253.927 347.184 254.551 347.939 255.176" stroke="white" stroke-width="0.6504" stroke-miterlimit="10" stroke-linecap="round" stroke-linejoin="round"/>
<path d="M346.392 264.072C346.188 265.143 345.983 266.214 345.78 267.286" stroke="white" stroke-width="0.6504" stroke-miterlimit="10" stroke-linecap="round" stroke-linejoin="round"/>
<path d="M348.52 276.801C349.183 277.159 349.846 277.516 350.508 277.874" stroke="white" stroke-width="0.6504" stroke-miterlimit="10" stroke-linecap="round" stroke-linejoin="round"/>
<path d="M328.206 266.981C328.158 267.747 328.109 268.512 328.061 269.277" stroke="white" stroke-width="0.6504" stroke-miterlimit="10" stroke-linecap="round" stroke-linejoin="round"/>
<path d="M339.832 279.555C340.55 278.999 341.267 278.442 341.985 277.886" stroke="white" stroke-width="0.6504" stroke-miterlimit="10" stroke-linecap="round" stroke-linejoin="round"/>
<path d="M316.381 244.368C316.997 244.615 317.613 244.861 318.228 245.108" stroke="white" stroke-width="0.6504" stroke-miterlimit="10" stroke-linecap="round" stroke-linejoin="round"/>
<path d="M306.602 230.557C306.142 231.17 305.683 231.782 305.224 232.394" stroke="white" stroke-width="0.6504" stroke-miterlimit="10" stroke-linecap="round" stroke-linejoin="round"/>
<path d="M316.853 225.081C317.465 225.13 318.078 225.179 318.69 225.228" stroke="white" stroke-width="0.6504" stroke-miterlimit="10" stroke-linecap="round" stroke-linejoin="round"/>
<path d="M312.574 167.109C312.319 166.109 311.736 165.146 310.821 164.668C309.906 164.191 308.714 164.433 308.087 165.252C308.081 163.678 306.823 162.202 305.27 161.946C303.718 161.691 302.132 162.684 301.622 164.173C301.266 162.627 299.796 161.41 298.211 161.35C296.626 161.291 295.242 162.294 294.771 163.808C293.767 162.578 291.953 162.084 290.465 162.636C288.976 163.188 288.251 164.58 288.167 166.165C288.021 168.904 287.973 171.99 287.68 174.717C287.479 176.579 287.994 178.509 289.094 180.023L312.333 185.178C312.479 180.181 312.625 175.184 312.771 170.187C312.802 169.156 312.83 168.109 312.574 167.109Z" fill="#270504"/>
<path d="M314.128 167.652C313.694 172.669 313.26 177.687 312.826 182.704" stroke="#270504" stroke-width="0.6504" stroke-miterlimit="10" stroke-linecap="round" stroke-linejoin="round"/>
<path d="M317.644 197.92C315.706 197.755 313.536 197.381 311.599 197.215C311.076 195.304 310.355 193.378 309.833 191.467C311.827 191.369 313.701 190.002 314.405 188.134C315.109 186.266 314.602 184.002 313.168 182.613C311.734 181.223 309.455 180.788 307.61 181.549C307.583 181.079 307.371 180.585 307.344 180.114C306.066 180.554 304.425 179.608 304.003 178.324C303.463 179.118 302.284 179.499 301.348 179.281C300.412 179.065 299.65 178.235 299.515 177.284C299.249 178.199 298.018 178.775 297.066 178.751C296.113 178.727 295.222 178.003 295.002 177.076C294.443 177.8 293.395 178.004 292.494 177.843C291.593 177.682 290.807 176.991 290.533 176.117C289.215 177.264 288.001 178.769 287.555 180.458C287.001 182.558 286.867 184.835 286.914 187.005C286.968 189.466 287.301 192.173 288.905 194.039C290.509 195.906 292.936 197.038 295.396 197.068C295.444 197.981 295.435 198.962 295.483 199.874C294.381 200.145 293.269 200.81 292.167 201.081C292.735 205.216 295.734 208.958 299.642 210.424C303.549 211.889 308.15 211.197 311.568 208.801C314.985 206.406 317.249 202.076 317.644 197.92Z" fill="#C14F4F"/>
<path d="M308.918 185.197C309.688 184.63 310.458 184.062 311.228 183.495" stroke="#270504" stroke-width="0.6504" stroke-miterlimit="10" stroke-linecap="round" stroke-linejoin="round"/>
<path d="M308.819 191.641C309.24 191.565 309.661 191.489 310.082 191.414" stroke="#270504" stroke-width="0.6504" stroke-miterlimit="10" stroke-linecap="round" stroke-linejoin="round"/>
<path d="M295.062 197.146C298.161 197.504 301.379 196.724 303.968 194.986" stroke="#270504" stroke-width="0.6504" stroke-miterlimit="10" stroke-linecap="round" stroke-linejoin="round"/>
<path d="M294.75 176.84C294.764 177.739 295.245 178.617 295.995 179.113C296.744 179.61 297.741 179.709 298.574 179.372" stroke="#270504" stroke-width="0.6504" stroke-miterlimit="10" stroke-linecap="round" stroke-linejoin="round"/>
<path d="M295.338 185.221C295.141 186.235 294.942 187.249 294.745 188.263C295.15 188.162 295.556 188.06 295.962 187.958" stroke="#270504" stroke-width="0.6504" stroke-miterlimit="10" stroke-linecap="round" stroke-linejoin="round"/>
<path d="M297.1 188.959C297.36 189.43 297.948 189.695 298.473 189.578C298.999 189.461 299.417 188.971 299.452 188.434" stroke="#270504" stroke-width="0.6504" stroke-miterlimit="10" stroke-linecap="round" stroke-linejoin="round"/>
<path d="M299.454 185.675C299.669 185.117 300.252 184.724 300.849 184.734C301.446 184.744 302.017 185.156 302.214 185.72" stroke="#270504" stroke-width="0.6504" stroke-miterlimit="10" stroke-linecap="round" stroke-linejoin="round"/>
<path d="M289.438 185.684C289.599 185.111 290.2 184.698 290.792 184.752C291.383 184.806 291.9 185.322 291.955 185.914" stroke="#270504" stroke-width="0.6504" stroke-miterlimit="10" stroke-linecap="round" stroke-linejoin="round"/>
<path d="M288.993 181.134C289.294 180.429 289.972 179.899 290.728 179.778C291.485 179.657 292.295 179.948 292.801 180.524" stroke="#270504" stroke-width="0.6504" stroke-miterlimit="10" stroke-linecap="round" stroke-linejoin="round"/>
<path d="M298.78 181.106C299.698 181.078 300.615 181.051 301.533 181.024" stroke="#270504" stroke-width="0.6504" stroke-miterlimit="10" stroke-linecap="round" stroke-linejoin="round"/>
</g>
<path fill-rule="evenodd" clip-rule="evenodd" d="M114 301.5C114 300.119 115.119 299 116.5 299H259.5C260.881 299 262 300.119 262 301.5C262 302.881 260.881 304 259.5 304H116.5C115.119 304 114 302.881 114 301.5Z" fill="#1F1F1F"/>
</svg>
