<svg xmlns="http://www.w3.org/2000/svg"  viewBox="0 0 48 48" width="96px" height="96px" baseProfile="basic"><path fill="#ffd600" d="M42,37c0,2.76-2.24,5-5,5H11c-2.76,0-5-2.24-5-5V11c0-2.76,2.24-5,5-5h26c2.76,0,5,2.24,5,5V37z"/><path fill="#263238" d="M35,33.957c-0.553,0-1-0.448-1-1v-18c0-0.552,0.447-1,1-1s1,0.448,1,1v18	C36,33.509,35.553,33.957,35,33.957z"/><path fill="#263238" d="M30,33.957c-0.138,0-0.276-0.028-0.406-0.086l-4.306-1.914H14c-1.103,0-2-0.897-2-2v-7	c0-0.552,0.447-1,1-1h10c0.553,0,1,0.448,1,1s-0.447,1-1,1h-9v6h11.5c0.14,0,0.278,0.029,0.406,0.086L29,31.418V15.957H18v3	c0,0.552-0.447,1-1,1s-1-0.448-1-1v-3c0-1.103,0.897-2,2-2h11c1.103,0,2,0.897,2,2v17c0,0.338-0.171,0.654-0.455,0.838	C30.38,33.902,30.19,33.957,30,33.957z"/></svg>