<svg width="24" height="24" viewBox="0 0 24 24" fill="none" xmlns="http://www.w3.org/2000/svg">
<g clip-path="url(#clip0_638_9486)">
<path d="M22.3729 15L22.6279 13.5L18.7504 12.8625V9.5775L22.5454 8.5575L22.1629 7.11L18.5404 8.0775C18.2937 7.14515 17.8501 6.27648 17.2395 5.53C16.6288 4.78352 15.8653 4.17656 15.0004 3.75V1.5H13.5004V3.1725C12.5136 2.94221 11.4871 2.94221 10.5004 3.1725V1.5H9.00037V3.75C8.13277 4.18141 7.36822 4.79454 6.75868 5.54773C6.14913 6.30092 5.70889 7.17652 5.46787 8.115L1.84537 7.11L1.50037 8.5575L5.25037 9.5775V12.8625L1.38037 13.5L1.62037 15L5.25037 14.385C5.2675 15.3105 5.47694 16.2223 5.86537 17.0625L2.46787 20.4675L3.53287 21.5325L6.67537 18.3825C7.30653 19.1927 8.11425 19.8482 9.03704 20.2991C9.95982 20.75 10.9733 20.9844 12.0004 20.9844C13.0274 20.9844 14.0409 20.75 14.9637 20.2991C15.8865 19.8482 16.6942 19.1927 17.3254 18.3825L20.4679 21.5325L21.5329 20.4675L18.1279 17.0625C18.5189 16.2229 18.7309 15.311 18.7504 14.385L22.3729 15ZM11.2504 19.44C10.0019 19.2598 8.86009 18.6361 8.03376 17.6831C7.20743 16.7301 6.75185 15.5114 6.75037 14.25V9.75H11.2504V19.44ZM6.96787 8.25C7.29015 7.16547 7.95417 6.21407 8.861 5.53752C9.76784 4.86097 10.869 4.49547 12.0004 4.49547C13.1318 4.49547 14.2329 4.86097 15.1397 5.53752C16.0466 6.21407 16.7106 7.16547 17.0329 8.25H6.96787ZM17.2504 14.25C17.2489 15.5114 16.7933 16.7301 15.967 17.6831C15.1407 18.6361 13.9988 19.2598 12.7504 19.44V9.75H17.2504V14.25Z" fill="#1E338A"/>
</g>
<defs>
<clipPath id="clip0_638_9486">
<rect width="24" height="24" fill="white"/>
</clipPath>
</defs>
</svg>
