<svg width="24" height="24" viewBox="0 0 24 24" fill="none" xmlns="http://www.w3.org/2000/svg">
<path d="M18.0024 10.9997V7.82635C18.0024 7.29613 17.7913 6.78692 17.4162 6.41176L14.587 3.58258C14.2118 3.20743 13.7026 2.99634 13.1724 2.99634H5.99742C4.89195 2.99634 3.99658 3.89171 3.99658 4.99717V19.003C3.99658 20.1085 4.89195 21.0038 5.99742 21.0038H10.9995" stroke="#1E338A" stroke-width="1.5" stroke-linecap="round" stroke-linejoin="round"/>
<path d="M19.4541 15.8287H21.0017V14.281" stroke="#1E338A" stroke-width="1.5" stroke-linecap="round" stroke-linejoin="round"/>
<path d="M15.9934 19.176H14.4458V20.7237" stroke="#1E338A" stroke-width="1.5" stroke-linecap="round" stroke-linejoin="round"/>
<path d="M21.0036 18.6699C20.8395 19.1471 20.5814 19.5973 20.1992 19.9785C18.8317 21.346 16.6147 21.346 15.2472 19.9785C15.0041 19.7354 14.806 19.4643 14.6489 19.1771" stroke="#1E338A" stroke-width="1.5" stroke-linecap="round" stroke-linejoin="round"/>
<path d="M20.7976 15.8277C20.6405 15.5406 20.4434 15.2695 20.1993 15.0264C18.8318 13.6588 16.6148 13.6588 15.2473 15.0264C14.8661 15.4076 14.604 15.8578 14.4399 16.335" stroke="#1E338A" stroke-width="1.5" stroke-linecap="round" stroke-linejoin="round"/>
<path d="M18.0026 7.99842H14.0009C13.4487 7.99842 13.0005 7.55023 13.0005 6.998V2.99634" stroke="#1E338A" stroke-width="1.5" stroke-linecap="round" stroke-linejoin="round"/>
</svg>
