<svg width="24" height="24" viewBox="0 0 24 24" fill="none" xmlns="http://www.w3.org/2000/svg">
<path d="M11 2C7.7 2 6.05 2 5.023 3.025C3.996 4.05 4 5.7 4 9V15C4 18.3 4 19.95 5.025 20.975C6.05 22 7.7 22 11 22C14.3 22 15.95 22 16.975 20.975C18 19.95 18 18.3 18 15V14" stroke="#1E338A" stroke-width="1.5" stroke-linecap="round"/>
<path d="M10 19H12" stroke="#1E338A" stroke-width="1.5" stroke-linecap="round" stroke-linejoin="round"/>
<path d="M14.7501 4.95897C14.7501 4.89897 14.7581 4.55297 14.7591 4.11897C14.7601 3.72097 14.7251 3.33897 14.9151 2.98897C15.6251 1.57497 17.6651 1.71897 18.1691 3.15897C18.2571 3.39597 18.2621 3.77097 18.2591 4.11897C18.2561 4.56197 18.2651 4.95897 18.2651 4.95897M14.8371 5.37997C13.7571 5.37997 13.2171 6.15997 13.0971 6.63997C12.9771 7.11997 12.9771 8.85997 13.0491 9.57997C13.2891 10.48 13.8891 10.852 14.4771 10.972C15.0171 11.02 17.2971 11.002 17.9571 11.002C18.9171 11.02 19.6371 10.66 19.9371 9.57997C19.9971 9.21997 20.0571 7.23997 19.9071 6.63997C19.5881 5.67997 18.7971 5.37997 18.1971 5.37997H14.8371Z" stroke="#1E338A" stroke-width="1.5" stroke-linecap="round"/>
</svg>
