<svg width="24" height="24" viewBox="0 0 24 24" fill="none" xmlns="http://www.w3.org/2000/svg">
<g clip-path="url(#clip0_638_9437)">
<path d="M11.2222 18.7692H12.7778M17.4444 1H6.55556C6.143 1 5.74733 1.1783 5.45561 1.49567C5.16389 1.81303 5 2.24348 5 2.69231V21.3077C5 21.7565 5.16389 22.187 5.45561 22.5043C5.74733 22.8217 6.143 23 6.55556 23H17.4444C17.857 23 18.2527 22.8217 18.5444 22.5043C18.8361 22.187 19 21.7565 19 21.3077V2.69231C19 2.24348 18.8361 1.81303 18.5444 1.49567C18.2527 1.1783 17.857 1 17.4444 1Z" stroke="#1E338A" stroke-width="1.3" stroke-linecap="round" stroke-linejoin="round"/>
<g clip-path="url(#clip1_638_9437)">
<path d="M8.6665 11.3335C8.6665 10.3908 8.6665 9.91916 8.9595 9.6265C9.25217 9.3335 9.72384 9.3335 10.6665 9.3335H13.3332C14.2758 9.3335 14.7475 9.3335 15.0402 9.6265C15.3332 9.91916 15.3332 10.3908 15.3332 11.3335C15.3332 12.2762 15.3332 12.7478 15.0402 13.0405C14.7475 13.3335 14.2758 13.3335 13.3332 13.3335H10.6665C9.72384 13.3335 9.25217 13.3335 8.9595 13.0405C8.6665 12.7478 8.6665 12.2762 8.6665 11.3335Z" stroke="#1E338A"/>
<path d="M10 9.33341V8.66675C10 8.13632 10.2107 7.62761 10.5858 7.25253C10.9609 6.87746 11.4696 6.66675 12 6.66675C12.5304 6.66675 13.0391 6.87746 13.4142 7.25253C13.7893 7.62761 14 8.13632 14 8.66675V9.33341" stroke="#1E338A" stroke-linecap="round"/>
</g>
</g>
<defs>
<clipPath id="clip0_638_9437">
<rect width="24" height="24" fill="white"/>
</clipPath>
<clipPath id="clip1_638_9437">
<rect width="8" height="8" fill="white" transform="translate(8 6)"/>
</clipPath>
</defs>
</svg>
