<svg width="24" height="24" viewBox="0 0 24 24" fill="none" xmlns="http://www.w3.org/2000/svg">
<g clip-path="url(#clip0_638_9454)">
<path d="M11.2222 18.7692H12.7778M17.4444 1H6.55556C6.143 1 5.74733 1.1783 5.45561 1.49567C5.16389 1.81303 5 2.24348 5 2.69231V21.3077C5 21.7565 5.16389 22.187 5.45561 22.5043C5.74733 22.8217 6.143 23 6.55556 23H17.4444C17.857 23 18.2527 22.8217 18.5444 22.5043C18.8361 22.187 19 21.7565 19 21.3077V2.69231C19 2.24348 18.8361 1.81303 18.5444 1.49567C18.2527 1.1783 17.857 1 17.4444 1Z" stroke="#1E338A" stroke-width="1.3" stroke-linecap="round" stroke-linejoin="round"/>
<path d="M14.0832 9.24997H10.7498V8.41663C10.7492 8.16921 10.8221 7.92717 10.9591 7.72118C11.0962 7.51518 11.2913 7.35449 11.5197 7.25945C11.7481 7.16441 11.9997 7.13931 12.2424 7.18732C12.4851 7.23533 12.7081 7.35429 12.8832 7.52913C13.0395 7.68939 13.1515 7.88754 13.2082 8.10413C13.2218 8.15721 13.2458 8.20707 13.2788 8.25087C13.3117 8.29467 13.353 8.33156 13.4002 8.35941C13.4474 8.38727 13.4996 8.40556 13.5539 8.41323C13.6082 8.4209 13.6634 8.41781 13.7165 8.40413C13.7696 8.39045 13.8194 8.36645 13.8632 8.33351C13.907 8.30056 13.9439 8.2593 13.9718 8.2121C13.9996 8.1649 14.0179 8.11267 14.0256 8.0584C14.0333 8.00413 14.0302 7.94888 14.0165 7.8958C13.9214 7.53538 13.7332 7.20631 13.4707 6.94163C13.1791 6.65095 12.8079 6.45319 12.404 6.37332C12.0001 6.29345 11.5816 6.33505 11.2013 6.49286C10.821 6.65068 10.496 6.91765 10.2673 7.26004C10.0387 7.60243 9.91659 8.0049 9.9165 8.41663V9.24997C9.58498 9.24997 9.26704 9.38166 9.03262 9.61608C8.7982 9.8505 8.6665 10.1684 8.6665 10.5V13.4166C8.6665 13.7482 8.7982 14.0661 9.03262 14.3005C9.26704 14.5349 9.58498 14.6666 9.9165 14.6666H14.0832C14.4147 14.6666 14.7326 14.5349 14.9671 14.3005C15.2015 14.0661 15.3332 13.7482 15.3332 13.4166V10.5C15.3332 10.1684 15.2015 9.8505 14.9671 9.61608C14.7326 9.38166 14.4147 9.24997 14.0832 9.24997ZM14.4998 13.4166C14.4998 13.5271 14.4559 13.6331 14.3778 13.7113C14.2997 13.7894 14.1937 13.8333 14.0832 13.8333H9.9165C9.806 13.8333 9.70002 13.7894 9.62188 13.7113C9.54374 13.6331 9.49984 13.5271 9.49984 13.4166V10.5C9.49984 10.3895 9.54374 10.2835 9.62188 10.2053C9.70002 10.1272 9.806 10.0833 9.9165 10.0833H14.0832C14.1937 10.0833 14.2997 10.1272 14.3778 10.2053C14.4559 10.2835 14.4998 10.3895 14.4998 10.5V13.4166Z" fill="#1E338A"/>
</g>
<defs>
<clipPath id="clip0_638_9454">
<rect width="24" height="24" fill="white"/>
</clipPath>
</defs>
</svg>
