<svg width="24" height="24" viewBox="0 0 24 24" fill="none" xmlns="http://www.w3.org/2000/svg">
<g clip-path="url(#clip0_638_9471)">
<path d="M12.0005 2.99996L12.2955 2.30996C12.2023 2.27008 12.1019 2.24951 12.0005 2.24951C11.8991 2.24951 11.7987 2.27008 11.7055 2.30996L12.0005 2.99996ZM12.0005 21L11.6285 21.651C11.7418 21.7157 11.87 21.7497 12.0005 21.7497C12.131 21.7497 12.2592 21.7157 12.3725 21.651L12.0005 21ZM11.7045 2.31096L5.31249 5.04996L5.90049 6.42996L12.2945 3.68996L11.7045 2.31096ZM4.25049 6.65896V13.519H5.75049V6.65896H4.25049ZM7.65149 19.379L11.6285 21.651L12.3725 20.349L8.39549 18.076L7.65149 19.379ZM12.3725 21.651L16.3495 19.379L15.6055 18.076L11.6285 20.349L12.3725 21.651ZM19.7505 13.518V6.65996H18.2505V13.52L19.7505 13.518ZM18.6905 5.05096L12.2955 2.31096L11.7055 3.68896L18.0995 6.42996L18.6905 5.05096ZM19.7505 6.65996C19.7505 5.95996 19.3335 5.32696 18.6905 5.05096L18.0995 6.42996C18.1444 6.44933 18.1826 6.48144 18.2095 6.52232C18.2363 6.5632 18.2506 6.61106 18.2505 6.65996H19.7505ZM16.3495 19.379C17.3826 18.7886 18.2412 17.9357 18.8385 16.9066C19.4358 15.8775 19.7504 14.7088 19.7505 13.519H18.2505C18.2503 14.4443 18.0056 15.3531 17.5411 16.1533C17.0766 16.9536 16.4088 17.6168 15.6055 18.076L16.3495 19.379ZM4.25049 13.519C4.2506 14.7088 4.56522 15.8775 5.16248 16.9066C5.75974 17.9357 6.61841 18.7886 7.65149 19.379L8.39549 18.076C7.59199 17.6168 6.92416 16.9533 6.45966 16.1529C5.99516 15.3524 5.75051 14.4434 5.75049 13.518L4.25049 13.519ZM5.31049 5.04996C4.99589 5.18494 4.7278 5.40922 4.53939 5.69503C4.35098 5.98084 4.25053 6.31664 4.25049 6.65896H5.75049C5.75049 6.55896 5.81049 6.46796 5.90249 6.42796L5.31049 5.04996Z" fill="#1E338A"/>
<path d="M10.0005 10L14.0005 14M10.0005 14L14.0005 10" stroke="#1E338A" stroke-width="1.5" stroke-linecap="round" stroke-linejoin="round"/>
</g>
<defs>
<clipPath id="clip0_638_9471">
<rect width="24" height="24" fill="white"/>
</clipPath>
</defs>
</svg>
