<svg width="24" height="24" viewBox="0 0 24 24" fill="none" xmlns="http://www.w3.org/2000/svg">
<g clip-path="url(#clip0_638_9447)">
<path fill-rule="evenodd" clip-rule="evenodd" d="M12.6205 2.762C12.414 2.74999 12.2072 2.74599 12.0005 2.75C9.62246 2.75 7.91446 2.752 6.61446 2.926C5.33546 3.098 4.56446 3.426 3.99446 3.995C3.42546 4.565 3.09846 5.335 2.92646 6.614C2.75246 7.914 2.75046 9.622 2.75046 12C2.75046 14.378 2.75246 16.086 2.92646 17.386C3.09846 18.665 3.42646 19.436 3.99546 20.006C4.56546 20.575 5.33546 20.902 6.61446 21.074C7.91446 21.248 9.62246 21.25 12.0005 21.25C14.3785 21.25 16.0865 21.248 17.3865 21.074C18.6655 20.902 19.4365 20.574 20.0065 20.005C20.5755 19.435 20.9025 18.665 21.0745 17.386C21.2485 16.086 21.2505 14.378 21.2505 12C21.2505 11.647 21.2505 11.513 21.2385 11.38C21.1772 10.7158 20.916 10.0858 20.4895 9.573C20.3492 9.41493 20.2028 9.26248 20.0505 9.116L14.8845 3.95C14.738 3.79735 14.5856 3.65057 14.4275 3.51C13.9148 3.084 13.2852 2.82322 12.6215 2.762M12.0335 1.25C12.3445 1.25 12.5455 1.25 12.7525 1.268C13.7231 1.35618 14.6439 1.73776 15.3925 2.362C15.5525 2.495 15.6975 2.641 15.9225 2.866L15.9465 2.889L21.1365 8.079C21.3605 8.304 21.5065 8.449 21.6395 8.609C22.2637 9.35752 22.6453 10.2783 22.7335 11.249C22.7515 11.456 22.7515 11.657 22.7515 11.969V12.057C22.7515 14.366 22.7515 16.175 22.5615 17.587C22.3675 19.031 21.9615 20.171 21.0675 21.066C20.1725 21.961 19.0325 22.366 17.5875 22.56C16.1765 22.75 14.3675 22.75 12.0585 22.75H11.9445C9.63546 22.75 7.82646 22.75 6.41446 22.56C4.97046 22.366 3.83046 21.96 2.93546 21.066C2.04046 20.171 1.63546 19.031 1.44146 17.586C1.25146 16.175 1.25146 14.366 1.25146 12.057V11.943C1.25146 9.634 1.25146 7.825 1.44146 6.413C1.63546 4.969 2.04146 3.829 2.93546 2.934C3.83046 2.039 4.97046 1.634 6.41546 1.44C7.82646 1.25 9.63546 1.25 11.9445 1.25H12.0335ZM11.4635 11.25H12.5395C13.2095 11.25 13.7685 11.25 14.2205 11.296C14.6945 11.344 15.1335 11.449 15.5295 11.714C15.8295 11.914 16.0875 12.172 16.2875 12.472C16.5525 12.868 16.6575 13.308 16.7055 13.781C16.7515 14.233 16.7515 14.792 16.7515 15.461V15.538C16.7515 16.208 16.7515 16.767 16.7055 17.219C16.6575 17.692 16.5525 18.132 16.2875 18.528C16.0875 18.828 15.8295 19.086 15.5295 19.287C15.1335 19.551 14.6945 19.656 14.2205 19.704C13.7685 19.75 13.2095 19.75 12.5405 19.75H11.4635C10.7935 19.75 10.2345 19.75 9.78246 19.704C9.30946 19.656 8.86946 19.551 8.47346 19.286C8.17398 19.0846 7.91625 18.8272 7.71447 18.528C7.45047 18.132 7.34546 17.693 7.29746 17.219C7.25146 16.767 7.25146 16.208 7.25146 15.539V15.462C7.25146 14.792 7.25146 14.233 7.29746 13.781C7.34546 13.308 7.45047 12.868 7.71447 12.472C7.91547 12.172 8.17346 11.914 8.47446 11.714C8.86946 11.449 9.30946 11.344 9.78246 11.296C10.2345 11.25 10.7935 11.25 11.4625 11.25M9.93246 12.788C9.57846 12.824 9.41446 12.888 9.30646 12.961C9.17072 13.0532 9.05366 13.1703 8.96147 13.306C8.88847 13.414 8.82446 13.578 8.78847 13.933C8.75146 14.3 8.75046 14.783 8.75046 15.5C8.75046 16.218 8.75046 16.7 8.78847 17.067C8.82446 17.422 8.88847 17.586 8.96147 17.695C9.05147 17.831 9.16946 17.948 9.30646 18.039C9.41446 18.112 9.57846 18.176 9.93346 18.212C10.2565 18.245 10.6675 18.249 11.2505 18.25V12.75C10.6675 12.75 10.2555 12.755 9.93246 12.788ZM12.7515 12.75V14.75H15.2485C15.2492 14.4773 15.2375 14.2047 15.2135 13.933C15.1775 13.578 15.1135 13.414 15.0405 13.306C14.9486 13.1703 14.8318 13.0533 14.6965 12.961C14.5875 12.888 14.4235 12.824 14.0685 12.788C13.7455 12.755 13.3345 12.751 12.7515 12.75ZM15.2485 16.25H12.7505V18.25C13.3335 18.25 13.7445 18.245 14.0675 18.212C14.4225 18.176 14.5865 18.112 14.6945 18.039C14.8301 17.9471 14.9472 17.8304 15.0395 17.695C15.1125 17.586 15.1765 17.422 15.2125 17.067C15.2365 16.7953 15.2482 16.5227 15.2475 16.25" fill="#1E338A"/>
</g>
<defs>
<clipPath id="clip0_638_9447">
<rect width="24" height="24" fill="white"/>
</clipPath>
</defs>
</svg>
