<svg width="24" height="24" viewBox="0 0 24 24" fill="none" xmlns="http://www.w3.org/2000/svg">
<g clip-path="url(#clip0_638_9512)">
<path d="M12.2535 19.4001L7.99049 15.7821C7.80985 15.6285 7.58055 15.5442 7.34349 15.5441H4.75049C4.22006 15.5441 3.71135 15.3333 3.33627 14.9583C2.9612 14.5832 2.75049 14.0745 2.75049 13.5441V10.4581C2.75049 9.92763 2.9612 9.41892 3.33627 9.04385C3.71135 8.66877 4.22006 8.45806 4.75049 8.45806H7.34449C7.58155 8.45792 7.81085 8.37357 7.99149 8.22006L12.2535 4.60006C12.399 4.47662 12.5767 4.39738 12.7657 4.37167C12.9548 4.34596 13.1472 4.37487 13.3204 4.45498C13.4935 4.53509 13.6402 4.66305 13.7429 4.82378C13.8457 4.9845 13.9004 5.17128 13.9005 5.36206V18.6401C13.9004 18.8308 13.8457 19.0176 13.7429 19.1783C13.6402 19.3391 13.4935 19.467 13.3204 19.5471C13.1472 19.6273 12.9548 19.6562 12.7657 19.6304C12.5767 19.6047 12.399 19.5255 12.2535 19.4021V19.4001Z" stroke="#1E338A" stroke-width="1.5" stroke-linejoin="round"/>
<path d="M16.6646 8.54207C17.1446 8.89207 17.5446 9.39607 17.8226 10.0041C18.0996 10.6111 18.2466 11.2991 18.2466 12.0001C18.2466 12.7001 18.0996 13.3901 17.8226 13.9961C17.5446 14.6031 17.1456 15.1081 16.6646 15.4581M18.7006 6.42407C19.4756 6.98907 20.1206 7.80207 20.5676 8.78107C21.0146 9.75907 21.2506 10.8701 21.2506 12.0001C21.2506 13.1301 21.0146 14.2401 20.5676 15.2201C20.1196 16.1981 19.4756 17.0111 18.7006 17.5761" stroke="#1E338A" stroke-width="1.5" stroke-linecap="round" stroke-linejoin="round"/>
</g>
<defs>
<clipPath id="clip0_638_9512">
<rect width="24" height="24" fill="white"/>
</clipPath>
</defs>
</svg>
