<?xml version="1.0" encoding="UTF-8"?>
<svg version="1.1" xmlns="http://www.w3.org/2000/svg" width="96" height="96">
<path d="M0 0 C8.94665882 7.36685847 14.16904098 16.7160941 15.359375 28.22265625 C15.81622651 38.73024095 13.00810439 48.72357717 6.0703125 56.734375 C-2.1864564 65.10582125 -11.07782525 69.79993962 -23.0234375 70.16796875 C-27.90244485 70.01530098 -31.94731237 68.88537718 -36.54296875 67.34375 C-43.38493681 65.56234206 -50.68625813 68.32433763 -57.296875 70.109375 C-59.8984375 70.73046875 -59.8984375 70.73046875 -62.8984375 70.73046875 C-62.59808594 69.60769531 -62.29773437 68.48492187 -61.98828125 67.328125 C-59.5903141 58.03314755 -57.88313403 50.89492642 -60.9609375 41.48046875 C-63.64102001 30.76013872 -62.11379486 20.01380809 -56.578125 10.44921875 C-50.58016921 1.92753293 -42.71851227 -4.34656205 -32.515625 -6.85546875 C-20.59740365 -8.7410381 -9.84940668 -7.04772033 0 0 Z M-49.58203125 8.5078125 C-55.39049334 15.59094956 -58.61432957 24.0580222 -58.234375 33.25 C-57.76110296 36.74450866 -56.80755974 39.98246463 -55.65234375 43.30859375 C-53.90609466 48.91830586 -53.87947391 52.89613149 -55.3359375 58.60546875 C-55.76712891 60.33410156 -55.76712891 60.33410156 -56.20703125 62.09765625 C-56.43519531 62.96648437 -56.66335937 63.8353125 -56.8984375 64.73046875 C-52.60140655 64.26170174 -48.71809481 63.67850049 -44.5859375 62.41796875 C-39.59603711 61.22826694 -36.33509011 62.86364999 -31.71875 64.75390625 C-24.08087264 67.39860063 -16.78959585 65.97084808 -9.46875 62.98828125 C0.16376029 58.27449962 6.50133871 50.77319828 10.1015625 40.73046875 C12.69972528 31.75499733 11.15183221 22.4612785 6.8125 14.30859375 C1.22588682 5.40586259 -5.78235921 0.16529224 -15.8515625 -2.85546875 C-28.68845875 -5.45224547 -40.71964773 -0.84806801 -49.58203125 8.5078125 Z " fill="#1CFF5D" transform="translate(71.8984375,16.26953125)"/>
<path d="M0 0 C7.61708928 6.2923781 13.67282671 13.27674433 14.875 23.375 C15.65129515 32.86094807 13.64119945 41.14814199 7.52734375 48.5625 C1.19517768 55.50842212 -5.40625675 59.44500447 -14.890625 60.7578125 C-20.05400383 60.97910016 -23.91537493 60.22328378 -28.6875 58.25 C-33.64921206 56.21697758 -36.81951875 56.34774666 -41.93359375 57.796875 C-44.125 58.375 -44.125 58.375 -48.125 58.375 C-47.96902344 57.72273438 -47.81304687 57.07046875 -47.65234375 56.3984375 C-46.30574892 50.35213753 -45.91370836 46.07900232 -47.8671875 40.10546875 C-50.98623538 30.43642032 -50.90855567 22.89912289 -47.125 13.375 C-41.94337528 3.93704069 -34.79300215 -1.32459936 -24.625 -4.375 C-15.63574646 -5.27392535 -8.09983638 -4.21191492 0 0 Z M-41.125 11.375 C-45.34746302 17.60868883 -46.6242516 23.88622598 -46.125 31.375 C-45.06349737 35.3866528 -43.69413083 39.20828181 -41.875 42.9375 C-40.7442666 46.61238355 -41.48589799 49.60429815 -42.125 53.375 C-41.47273438 53.26800781 -40.82046875 53.16101563 -40.1484375 53.05078125 C-34.4338521 52.26692219 -31.18763204 52.24098969 -26.125 55.375 C-18.81128042 57.6276857 -10.87976974 56.9444101 -4.125 53.375 C3.23534295 48.03386618 8.07236163 42.53401443 10.625 33.8125 C11.57628267 24.53749396 9.78870473 16.72717345 3.875 9.375 C-2.31379161 2.8345725 -8.5517295 -0.60550998 -17.625 -1 C-27.80313111 -0.52372697 -34.35561611 3.86293191 -41.125 11.375 Z " fill="#1CFF5D" transform="translate(66.125,19.625)"/>
<path d="M0 0 C1.28970703 -0.05607422 1.28970703 -0.05607422 2.60546875 -0.11328125 C7.11370715 -0.17579919 9.11973221 -0.09490852 12.8359375 2.67578125 C15.30732828 6.16094661 15.20737983 8.18235158 14.75 12.375 C14.440625 13.48875 14.440625 13.48875 14.125 14.625 C14.00125 15.2025 13.8775 15.78 13.75 16.375 C14.41 17.365 15.07 18.355 15.75 19.375 C16.29052397 23.54475633 16.29716803 25.59106567 13.86328125 29.078125 C9.43012279 32.34876135 5.85665049 31.97065748 0.5 31.75 C-0.42296875 31.73582031 -1.3459375 31.72164062 -2.296875 31.70703125 C-9.06731673 31.55768327 -9.06731673 31.55768327 -10.25 30.375 C-10.35003289 28.24146826 -10.38081048 26.10462458 -10.3828125 23.96875 C-10.38410156 22.66808594 -10.38539062 21.36742187 -10.38671875 20.02734375 C-10.38462402 19.34655762 -10.3825293 18.66577148 -10.38037109 17.96435547 C-10.3750224 15.88371485 -10.3803168 13.80329011 -10.38671875 11.72265625 C-10.38542969 10.42199219 -10.38414063 9.12132812 -10.3828125 7.78125 C-10.38168457 6.57791016 -10.38055664 5.37457031 -10.37939453 4.13476562 C-10.10960772 -1.61932886 -4.65679528 0.07544146 0 0 Z M-2.25 6.375 C-2.25 8.355 -2.25 10.335 -2.25 12.375 C0.72 12.375 3.69 12.375 6.75 12.375 C7.08 11.055 7.41 9.735 7.75 8.375 C5.98863645 6.19168311 5.98863645 6.19168311 3.8046875 6.1796875 C0.77734375 6.27734375 0.77734375 6.27734375 -2.25 6.375 Z M-2.25 19.375 C-2.25 21.355 -2.25 23.335 -2.25 25.375 C0.72 25.375 3.69 25.375 6.75 25.375 C7.41 24.055 8.07 22.735 8.75 21.375 C6.96342243 19.16129949 6.96342243 19.16129949 4.5859375 19.1796875 C3.77382813 19.20289062 2.96171875 19.22609375 2.125 19.25 C0.89910156 19.27707031 0.89910156 19.27707031 -0.3515625 19.3046875 C-1.29128906 19.33949219 -1.29128906 19.33949219 -2.25 19.375 Z " fill="#98EDA5" transform="translate(46.25,31.625)"/>
<path d="M0 0 C1.28970703 -0.05607422 1.28970703 -0.05607422 2.60546875 -0.11328125 C7.12556089 -0.17596358 9.11960093 -0.09760006 12.83984375 2.69140625 C15.10077828 5.86781121 15.19378774 7.55842546 14.75 11.375 C12.44 11.375 10.13 11.375 7.75 11.375 C7.5025 10.4159375 7.5025 10.4159375 7.25 9.4375 C5.968214 7.21380759 5.968214 7.21380759 3.8359375 6.88671875 C1.81424845 6.6474022 -0.21841939 6.50606972 -2.25 6.375 C-2.25 8.025 -2.25 9.675 -2.25 11.375 C-4.89 11.375 -7.53 11.375 -10.25 11.375 C-10.27688151 9.72925434 -10.29634123 8.08338587 -10.3125 6.4375 C-10.32410156 5.52097656 -10.33570313 4.60445312 -10.34765625 3.66015625 C-10.12388284 -1.57614163 -4.09230487 0.06629654 0 0 Z " fill="#38962E" transform="translate(46.25,31.625)"/>
<path d="M0 0 C8.25 0 16.5 0 25 0 C24.67 1.65 24.34 3.3 24 5 C24.84077872 7.26857146 24.84077872 7.26857146 26 9 C19.84765625 9.87890625 19.84765625 9.87890625 18 10 C17.67 9.67 17.34 9.34 17 9 C14.13732433 8.92674832 11.299281 8.90761795 8.4375 8.9375 C7.63119141 8.94201172 6.82488281 8.94652344 5.99414062 8.95117188 C3.99606244 8.96299482 1.99802217 8.98093086 0 9 C0 6.03 0 3.06 0 0 Z " fill="#6AC36C" transform="translate(36,43)"/>
<path d="M0 0 C3.08301416 -0.11644156 6.16546123 -0.18732432 9.25 -0.25 C10.12269531 -0.28351562 10.99539062 -0.31703125 11.89453125 -0.3515625 C13.16103516 -0.37089844 13.16103516 -0.37089844 14.453125 -0.390625 C15.61569824 -0.4220459 15.61569824 -0.4220459 16.80175781 -0.45410156 C19 0 19 0 23 4 C15.08 4 7.16 4 -1 4 C-0.67 2.68 -0.34 1.36 0 0 Z " fill="#29861B" transform="translate(37,32)"/>
<path d="M0 0 C8.25 0 16.5 0 25 0 C24.34 1.32 23.68 2.64 23 4 C15.41 4 7.82 4 0 4 C0 2.68 0 1.36 0 0 Z " fill="#5CB55B" transform="translate(36,43)"/>
<path d="M0 0 C7.92 0 15.84 0 24 0 C21 3 21 3 18.82348633 3.34057617 C18.00130615 3.32486572 17.17912598 3.30915527 16.33203125 3.29296875 C15.43935547 3.28330078 14.54667969 3.27363281 13.62695312 3.26367188 C12.23379883 3.2259668 12.23379883 3.2259668 10.8125 3.1875 C9.87212891 3.17396484 8.93175781 3.16042969 7.96289062 3.14648438 C5.64134962 3.11113096 3.32096347 3.06178674 1 3 C0.67 2.01 0.34 1.02 0 0 Z " fill="#A5FAB6" transform="translate(36,60)"/>
<path d="M0 0 C8.25 0 16.5 0 25 0 C25.33 0.66 25.66 1.32 26 2 C19.84765625 2.87890625 19.84765625 2.87890625 18 3 C17.67 2.67 17.34 2.34 17 2 C14.13732433 1.92674832 11.299281 1.90761795 8.4375 1.9375 C7.63119141 1.94201172 6.82488281 1.94652344 5.99414062 1.95117188 C3.99606244 1.96299482 1.99802217 1.98093086 0 2 C0 1.34 0 0.68 0 0 Z " fill="#74CC79" transform="translate(36,50)"/>
<path d="M0 0 C2.64 0 5.28 0 8 0 C8 1.65 8 3.3 8 5 C5.36 5 2.72 5 0 5 C0 3.35 0 1.7 0 0 Z " fill="#85DB8E" transform="translate(36,52)"/>
<path d="M0 0 C2.31 0 4.62 0 7 0 C7 1.98 7 3.96 7 6 C4.03 5.67 1.06 5.34 -2 5 C-1.34 3.35 -0.68 1.7 0 0 Z " fill="#86DC90" transform="translate(55,52)"/>
<path d="M0 0 C2.64 0 5.28 0 8 0 C8 0.99 8 1.98 8 3 C5.36 3 2.72 3 0 3 C0 2.01 0 1.02 0 0 Z " fill="#4AA545" transform="translate(36,40)"/>
<path d="M0 0 C1.98 0 3.96 0 6 0 C6.33 0.99 6.66 1.98 7 3 C4.69 3 2.38 3 0 3 C0 2.01 0 1.02 0 0 Z " fill="#4BA545" transform="translate(54,40)"/>
<path d="M0 0 C2.64 0 5.28 0 8 0 C7.67 0.99 7.34 1.98 7 3 C4.36 2.67 1.72 2.34 -1 2 C-0.67 1.34 -0.34 0.68 0 0 Z " fill="#57B054" transform="translate(53,43)"/>
</svg>
