<svg width="24" height="24" viewBox="0 0 24 24" fill="none" xmlns="http://www.w3.org/2000/svg">
<path d="M15.72 7.34905C15.72 7.84236 15.524 8.31545 15.1752 8.66427C14.8264 9.01309 14.3533 9.20905 13.86 9.20905C13.3667 9.20905 12.8936 9.01309 12.5448 8.66427C12.196 8.31545 12 7.84236 12 7.34905C12 6.85575 12.196 6.38265 12.5448 6.03383C12.8936 5.68502 13.3667 5.48905 13.86 5.48905C14.3533 5.48905 14.8264 5.68502 15.1752 6.03383C15.524 6.38265 15.72 6.85575 15.72 7.34905ZM22 7.75405C22 7.38005 22 7.11205 21.963 6.87605C21.8977 6.46231 21.7471 6.06667 21.5208 5.71427C21.2944 5.36187 20.9972 5.06041 20.648 4.82905C20.57 4.77705 20.471 4.84505 20.484 4.93805C20.584 5.68205 20.601 6.56505 20.604 7.52805V16.4711C20.601 17.4351 20.584 18.3181 20.484 19.0621C20.471 19.1551 20.57 19.2221 20.648 19.1711C20.9972 18.9397 21.2944 18.6382 21.5208 18.2858C21.7471 17.9334 21.8977 17.5378 21.963 17.1241C22 16.8881 22 16.6201 22 16.2461V7.75405ZM3.395 7.81405L3.397 7.34905C3.401 6.45505 3.422 5.63505 3.517 4.93805C3.529 4.84505 3.43 4.77805 3.352 4.82905C3.00284 5.06041 2.70563 5.36187 2.47924 5.71427C2.25286 6.06667 2.10225 6.46231 2.037 6.87605C2 7.11205 2 7.38005 2 7.75405V16.2461C2 16.6201 2 16.8881 2.037 17.1241C2.10225 17.5378 2.25286 17.9334 2.47924 18.2858C2.70563 18.6382 3.00284 18.9397 3.352 19.1711C3.43 19.2231 3.529 19.1551 3.516 19.0621C3.422 18.3651 3.401 17.5451 3.396 16.6521V7.81305" fill="#1E338A"/>
<path fill-rule="evenodd" clip-rule="evenodd" d="M16.085 2.108C15.28 2 14.253 2 12.981 2H11.02C9.74799 2 8.72199 2 7.91599 2.108C7.07799 2.221 6.37299 2.462 5.81299 3.022C5.25299 3.582 5.01299 4.287 4.89999 5.124C4.79199 5.93 4.79199 6.956 4.79199 8.228V15.772C4.79199 17.044 4.79199 18.07 4.89999 18.876C5.01299 19.713 5.25399 20.418 5.81299 20.978C6.37299 21.538 7.07799 21.779 7.91599 21.892C8.71999 22 9.74699 22 11.019 22H12.981C14.253 22 15.279 22 16.085 21.892C16.923 21.779 17.628 21.538 18.188 20.978C18.748 20.418 18.988 19.713 19.101 18.876C19.209 18.07 19.209 17.044 19.209 15.772V8.228C19.209 6.956 19.209 5.93 19.101 5.124C18.988 4.287 18.747 3.582 18.188 3.022C17.628 2.462 16.923 2.221 16.085 2.108ZM16.808 16.63L17.795 17.67C17.813 17.134 17.814 16.495 17.814 15.72V8.28C17.814 6.944 17.812 6.013 17.718 5.31C17.626 4.627 17.458 4.266 17.201 4.008C16.943 3.751 16.582 3.583 15.899 3.491C15.197 3.397 14.266 3.395 12.93 3.395H11.07C9.73499 3.395 8.80299 3.397 8.09999 3.491C7.41799 3.583 7.05699 3.751 6.79999 4.008C6.54199 4.266 6.37399 4.628 6.28199 5.31C6.18799 6.013 6.18599 6.944 6.18599 8.28V12.904L6.18899 12.901C7.10599 11.96 8.52499 12.025 9.37299 13.019L12.313 16.467C12.549 16.743 12.858 16.756 13.096 16.56L13.3 16.391C14.376 15.505 15.852 15.621 16.808 16.631" fill="#1E338A"/>
</svg>
