<svg xmlns="http://www.w3.org/2000/svg" xmlns:xlink="http://www.w3.org/1999/xlink" viewBox="0,0,256,256" width="48px" height="48px" fill-rule="nonzero"><g fill="none" fill-rule="nonzero" stroke="none" stroke-width="1" stroke-linecap="butt" stroke-linejoin="miter" stroke-miterlimit="10" stroke-dasharray="" stroke-dashoffset="0" font-family="none" font-weight="none" font-size="none" text-anchor="none" style="mix-blend-mode: normal"><g transform="scale(5.33333,5.33333)"><path d="M42,37c0,2.76 -2.24,5 -5,5h-26c-2.76,0 -5,-2.24 -5,-5v-26c0,-2.76 2.24,-5 5,-5h26c2.76,0 5,2.24 5,5z" fill-opacity="0" fill="#ffd600"></path><path d="M35,33.957c-0.553,0 -1,-0.448 -1,-1v-18c0,-0.552 0.447,-1 1,-1c0.553,0 1,0.448 1,1v18c0,0.552 -0.447,1 -1,1z" fill="#263238"></path><path d="M30,33.957c-0.138,0 -0.276,-0.028 -0.406,-0.086l-4.306,-1.914h-11.288c-1.103,0 -2,-0.897 -2,-2v-7c0,-0.552 0.447,-1 1,-1h10c0.553,0 1,0.448 1,1c0,0.552 -0.447,1 -1,1h-9v6h11.5c0.14,0 0.278,0.029 0.406,0.086l3.094,1.375v-15.461h-11v3c0,0.552 -0.447,1 -1,1c-0.553,0 -1,-0.448 -1,-1v-3c0,-1.103 0.897,-2 2,-2h11c1.103,0 2,0.897 2,2v17c0,0.338 -0.171,0.654 -0.455,0.838c-0.165,0.107 -0.355,0.162 -0.545,0.162z" fill="#263238"></path></g></g></svg>