<svg width="16" height="16" viewBox="0 0 16 16" fill="none" xmlns="http://www.w3.org/2000/svg">
<path d="M12.6665 4.66699C11.9332 4.66699 11.3332 5.26699 11.3332 6.00033V7.33366C11.3332 8.06699 11.9332 8.66699 12.6665 8.66699H13.9998V10.0003H11.3332V11.3337H13.9998C14.7332 11.3337 15.3332 10.7337 15.3332 10.0003V8.66699C15.3332 7.93366 14.7332 7.33366 13.9998 7.33366H12.6665V6.00033H15.3332V4.66699H12.6665ZM5.99984 4.66699V11.3337H8.6665C9.39984 11.3337 9.99984 10.7337 9.99984 10.0003V6.00033C9.99984 5.26699 9.39984 4.66699 8.6665 4.66699H5.99984ZM7.33317 6.00033H8.6665V10.0003H7.33317V6.00033ZM1.99984 4.66699C1.2665 4.66699 0.666504 5.26699 0.666504 6.00033V11.3337H1.99984V8.66699H3.33317V11.3337H4.6665V6.00033C4.6665 5.26699 4.0665 4.66699 3.33317 4.66699H1.99984ZM1.99984 6.00033H3.33317V7.33366H1.99984V6.00033Z" fill="#266DF0"/>
</svg>
