<svg width="16" height="16" viewBox="0 0 16 16" fill="none" xmlns="http://www.w3.org/2000/svg">
<path d="M9.52544 13.2009C8.72665 14.143 7.27333 14.143 6.47453 13.2009L3.782 10.0255C3.72339 9.95081 3.66539 9.87564 3.608 9.8C2.88786 8.8507 2.49866 7.69155 2.5 6.5C2.5 5.04131 3.07947 3.64236 4.11092 2.61091C5.14237 1.57946 6.54131 1 8 1C9.45869 1 10.8576 1.57946 11.8891 2.61091C12.9205 3.64236 13.5 5.04131 13.5 6.5C13.5012 7.69098 13.1122 8.84954 12.3925 9.7985L12.392 9.8C12.392 9.8 12.242 9.997 12.2195 10.0235L9.52544 13.2009ZM4.4065 9.1975C4.4065 9.1975 4.523 9.3515 4.5495 9.3845L7.23725 12.5544C7.63666 13.0255 8.36334 13.0255 8.76273 12.5544L11.455 9.379C11.477 9.3515 11.5945 9.196 11.5945 9.196C12.1831 8.42057 12.5012 7.47352 12.5 6.5C12.5 5.30653 12.0259 4.16193 11.182 3.31802C10.3381 2.47411 9.19348 2 8 2C6.80653 2 5.66194 2.47411 4.81802 3.31802C3.97411 4.16193 3.5 5.30653 3.5 6.5C3.49877 7.47415 3.81723 8.42179 4.4065 9.1975Z" fill="#A4ACB9"/>
<path d="M10.5 8.5C10.5 8.77614 10.2761 9 10 9C9.72386 9 9.5 8.77614 9.5 8.5V5H6.5V8.5C6.5 8.77614 6.27614 9 6 9C5.72386 9 5.5 8.77614 5.5 8.5V5C5.5 4.73478 5.60536 4.48043 5.79289 4.29289C5.98043 4.10536 6.23478 4 6.5 4H9.5C9.76522 4 10.0196 4.10536 10.2071 4.29289C10.3946 4.48043 10.5 4.73478 10.5 5V8.5Z" fill="#A4ACB9"/>
<path d="M7.5 8.2C7.5 8.08954 7.58954 8 7.7 8H8.3C8.41046 8 8.5 8.08954 8.5 8.2V8.8C8.5 8.91046 8.41046 9 8.3 9H7.7C7.58954 9 7.5 8.91046 7.5 8.8V8.2ZM7.5 6.2C7.5 6.08954 7.58954 6 7.7 6H8.3C8.41046 6 8.5 6.08954 8.5 6.2V6.8C8.5 6.91046 8.41046 7 8.3 7H7.7C7.58954 7 7.5 6.91046 7.5 6.8V6.2Z" fill="#A4ACB9"/>
</svg>
