<svg width="15" height="7" viewBox="0 0 15 7" fill="none" xmlns="http://www.w3.org/2000/svg">
<path d="M12 0C11.2667 0 10.6667 0.6 10.6667 1.33333V2.66667C10.6667 3.4 11.2667 4 12 4H13.3333V5.33333H10.6667V6.66667H13.3333C14.0667 6.66667 14.6667 6.06667 14.6667 5.33333V4C14.6667 3.26667 14.0667 2.66667 13.3333 2.66667H12V1.33333H14.6667V0H12ZM5.33333 0V6.66667H8C8.73333 6.66667 9.33333 6.06667 9.33333 5.33333V1.33333C9.33333 0.6 8.73333 0 8 0H5.33333ZM6.66667 1.33333H8V5.33333H6.66667V1.33333ZM1.33333 0C0.6 0 0 0.6 0 1.33333V6.66667H1.33333V4H2.66667V6.66667H4V1.33333C4 0.6 3.4 0 2.66667 0H1.33333ZM1.33333 1.33333H2.66667V2.66667H1.33333V1.33333Z" fill="#266DF0"/>
</svg>
