<svg width="16" height="16" viewBox="0 0 16 16" fill="none" xmlns="http://www.w3.org/2000/svg">
<path d="M6.66683 11.2999H4.14016C1.8935 11.2999 1.3335 10.7399 1.3335 8.49319V4.49319C1.3335 2.24652 1.8935 1.68652 4.14016 1.68652H11.1602C13.4068 1.68652 13.9668 2.24652 13.9668 4.49319" stroke="#1E338A" stroke-linecap="round" stroke-linejoin="round"/>
<path d="M6.6665 14.3131V11.2998" stroke="#1E338A" stroke-linecap="round" stroke-linejoin="round"/>
<path d="M1.3335 8.63379H6.66683" stroke="#1E338A" stroke-linecap="round" stroke-linejoin="round"/>
<path d="M4.49316 14.3135H6.6665" stroke="#1E338A" stroke-linecap="round" stroke-linejoin="round"/>
<path d="M14.6668 8.5329V12.3396C14.6668 13.9196 14.2735 14.3129 12.6935 14.3129H10.3268C8.74685 14.3129 8.35352 13.9196 8.35352 12.3396V8.5329C8.35352 6.9529 8.74685 6.55957 10.3268 6.55957H12.6935C14.2735 6.55957 14.6668 6.9529 14.6668 8.5329Z" stroke="#1E338A" stroke-linecap="round" stroke-linejoin="round"/>
<path d="M11.4962 12.1663H11.5022" stroke="#1E338A" stroke-width="1.33333" stroke-linecap="round" stroke-linejoin="round"/>
</svg>
