<svg width="17" height="17" viewBox="0 0 17 17" fill="none" xmlns="http://www.w3.org/2000/svg">
<g clip-path="url(#clip0_2089_2009)">
<path d="M6.9998 3.50001C6.9998 3.1287 7.1473 2.77261 7.40986 2.51006C7.67241 2.24751 8.0285 2.10001 8.3998 2.10001C8.77111 2.10001 9.1272 2.24751 9.38975 2.51006C9.6523 2.77261 9.7998 3.1287 9.7998 3.50001C10.6037 3.88013 11.289 4.47183 11.7822 5.21172C12.2755 5.9516 12.5581 6.81176 12.5998 7.70001V9.80001C12.6525 10.2352 12.8066 10.6519 13.0498 11.0167C13.2929 11.3814 13.6183 11.684 13.9998 11.9H2.7998C3.18126 11.684 3.50667 11.3814 3.74984 11.0167C3.993 10.6519 4.14713 10.2352 4.1998 9.80001V7.70001C4.2415 6.81176 4.52412 5.9516 5.01737 5.21172C5.51062 4.47183 6.19592 3.88013 6.9998 3.50001Z" stroke="black" stroke-width="1.4" stroke-linecap="round" stroke-linejoin="round"/>
<path d="M6.2998 11.9V12.6C6.2998 13.1569 6.52105 13.6911 6.91488 14.0849C7.30871 14.4787 7.84285 14.7 8.3998 14.7C8.95676 14.7 9.4909 14.4787 9.88473 14.0849C10.2786 13.6911 10.4998 13.1569 10.4998 12.6V11.9" stroke="black" stroke-width="1.4" stroke-linecap="round" stroke-linejoin="round"/>
</g>
<defs>
<clipPath id="clip0_2089_2009">
<rect width="16.8" height="16.8" fill="white"/>
</clipPath>
</defs>
</svg>
