<svg width="16" height="16" viewBox="0 0 16 16" fill="none" xmlns="http://www.w3.org/2000/svg">
<path d="M9.8 1.33301C10.92 1.33301 11.48 1.33301 11.908 1.55967C12.2876 1.76199 12.5935 2.07909 12.782 2.46567C13 2.90901 13 3.48967 13 4.65167V11.3477C13 12.5097 13 13.0903 12.782 13.5343C12.5935 13.9209 12.2876 14.238 11.908 14.4403C11.48 14.6663 10.92 14.6663 9.8 14.6663H6.2C5.08 14.6663 4.52 14.6663 4.092 14.4397C3.71244 14.2374 3.40654 13.9203 3.218 13.5337C3 13.0903 3 12.5097 3 11.3477V4.65167C3 3.48967 3 2.90901 3.218 2.46501C3.40665 2.07867 3.71254 1.76181 4.092 1.55967C4.52 1.33301 5.08 1.33301 6.2 1.33301H9.8Z" stroke="#A4ACB9" stroke-linecap="round" stroke-linejoin="round"/>
<path d="M6.3335 14V10.3333C6.3335 9.97971 6.47397 9.64057 6.72402 9.39052C6.97407 9.14048 7.31321 9 7.66683 9H8.3335C8.68712 9 9.02626 9.14048 9.2763 9.39052C9.52635 9.64057 9.66683 9.97971 9.66683 10.3333V14M6.66683 4H5.3335M6.66683 6.66667H5.3335M10.6668 4H9.3335M10.6668 6.66667H9.3335" stroke="#A4ACB9" stroke-linecap="round" stroke-linejoin="round"/>
</svg>
