<svg width="16" height="16" viewBox="0 0 16 16" fill="none" xmlns="http://www.w3.org/2000/svg">
<g clip-path="url(#clip0_608_9007)">
<path d="M11.1112 9.33344V12.889M9.33344 11.1112H12.889M7.55566 11.1112C7.55566 12.0542 7.93027 12.9586 8.59706 13.6254C9.26386 14.2922 10.1682 14.6668 11.1112 14.6668C12.0542 14.6668 12.9586 14.2922 13.6254 13.6254C14.2922 12.9586 14.6668 12.0542 14.6668 11.1112C14.6668 10.1682 14.2922 9.26386 13.6254 8.59706C12.9586 7.93027 12.0542 7.55566 11.1112 7.55566C10.1682 7.55566 9.26386 7.93027 8.59706 8.59706C7.93027 9.26386 7.55566 10.1682 7.55566 11.1112Z" stroke="#1E338A" stroke-width="0.888889" stroke-linecap="round" stroke-linejoin="round"/>
<path d="M5.77794 10.2219H2.22238C1.98664 10.2219 1.76054 10.1282 1.59385 9.96155C1.42715 9.79485 1.3335 9.56876 1.3335 9.33301V2.2219C1.3335 1.98615 1.42715 1.76006 1.59385 1.59336C1.76054 1.42666 1.98664 1.33301 2.22238 1.33301H12.8891C13.1248 1.33301 13.3509 1.42666 13.5176 1.59336C13.6843 1.76006 13.7779 1.98615 13.7779 2.2219V6.2219" stroke="#1E338A" stroke-width="0.888889" stroke-linecap="round" stroke-linejoin="round"/>
<path d="M13.5768 1.65918L8.75077 5.37118C8.40801 5.63461 7.98781 5.77742 7.55551 5.77742C7.12321 5.77742 6.70302 5.63461 6.36025 5.37118L1.53418 1.65918" stroke="#1E338A" stroke-width="0.888889" stroke-linecap="round" stroke-linejoin="round"/>
</g>
<defs>
<clipPath id="clip0_608_9007">
<rect width="16" height="16" fill="white"/>
</clipPath>
</defs>
</svg>
