<svg width="16" height="16" viewBox="0 0 16 16" fill="none" xmlns="http://www.w3.org/2000/svg">
<g clip-path="url(#clip0_608_9123)">
<path d="M2.66683 6.66634V12.333M5.3335 6.66634V12.333M1.3335 5.71301C1.3335 4.91501 1.65483 4.42634 2.32016 4.05567L5.06016 2.53101C6.4955 1.73301 7.2135 1.33301 8.00016 1.33301C8.78683 1.33301 9.50483 1.73301 10.9402 2.53101L13.6802 4.05567C14.3448 4.42634 14.6668 4.91501 14.6668 5.71301C14.6668 5.92901 14.6668 6.03767 14.6435 6.12634C14.5195 6.59301 14.0962 6.66701 13.6875 6.66701H2.31283C1.90416 6.66701 1.4815 6.59367 1.35683 6.12634C1.3335 6.03701 1.3335 5.92901 1.3335 5.71301Z" stroke="#A4ACB9"/>
<path d="M7.3335 12.333H3.3335C2.80306 12.333 2.29436 12.5437 1.91928 12.9188C1.54421 13.2939 1.3335 13.8026 1.3335 14.333C1.3335 14.4214 1.36862 14.5062 1.43113 14.5687C1.49364 14.6312 1.57842 14.6663 1.66683 14.6663H7.3335" stroke="#A4ACB9" stroke-linecap="round"/>
<path d="M14.3337 9.66602L9.66699 14.3327" stroke="#A4ACB9" stroke-linecap="round" stroke-linejoin="round"/>
<path d="M10.167 10.666C10.4431 10.666 10.667 10.4422 10.667 10.166C10.667 9.88987 10.4431 9.66602 10.167 9.66602C9.89085 9.66602 9.66699 9.88987 9.66699 10.166C9.66699 10.4422 9.89085 10.666 10.167 10.666Z" stroke="#A4ACB9"/>
<path d="M13.8335 14.333C14.1096 14.333 14.3335 14.1092 14.3335 13.833C14.3335 13.5569 14.1096 13.333 13.8335 13.333C13.5574 13.333 13.3335 13.5569 13.3335 13.833C13.3335 14.1092 13.5574 14.333 13.8335 14.333Z" stroke="#A4ACB9"/>
</g>
<defs>
<clipPath id="clip0_608_9123">
<rect width="16" height="16" fill="white"/>
</clipPath>
</defs>
</svg>
