<svg width="16" height="16" viewBox="0 0 16 16" fill="none" xmlns="http://www.w3.org/2000/svg">
<g clip-path="url(#clip0_799_5772)">
<path d="M2.5 6C1.96957 6 1.46086 6.21071 1.08579 6.58579C0.710714 6.96086 0.5 7.46957 0.5 8V10C0.5 10.5304 0.710714 11.0391 1.08579 11.4142C1.46086 11.7893 1.96957 12 2.5 12H3C3.13261 12 3.25979 11.9473 3.35355 11.8536C3.44732 11.7598 3.5 11.6326 3.5 11.5V6.5C3.5 6.36739 3.44732 6.24022 3.35355 6.14645C3.25979 6.05268 3.13261 6 3 6H2.5ZM2.5 6C2.5 4.54131 3.07946 3.14236 4.11091 2.11091C5.14236 1.07946 6.54131 0.5 8 0.5C9.45869 0.5 10.8576 1.07946 11.8891 2.11091C12.9205 3.14236 13.5 4.54131 13.5 6M13.5 12H13C12.8674 12 12.7402 11.9473 12.6464 11.8536C12.5527 11.7598 12.5 11.6326 12.5 11.5V6.5C12.5 6.36739 12.5527 6.24022 12.6464 6.14645C12.7402 6.05268 12.8674 6 13 6H13.5M13.5 12C14.0304 12 14.5391 11.7893 14.9142 11.4142C15.2893 11.0391 15.5 10.5304 15.5 10V8C15.5 7.46957 15.2893 6.96086 14.9142 6.58579C14.5391 6.21071 14.0304 6 13.5 6M13.5 12V12.5C13.5 13.0304 13.2893 13.5391 12.9142 13.9142C12.5391 14.2893 12.0304 14.5 11.5 14.5H10" stroke="#375DFB" stroke-linecap="round" stroke-linejoin="round"/>
<path d="M6 5.49997C6.00001 5.03999 6.15857 4.59408 6.44896 4.23736C6.73935 3.88064 7.14382 3.63492 7.59423 3.5416C8.04463 3.44828 8.51344 3.51306 8.92166 3.72503C9.32988 3.937 9.65256 4.2832 9.83533 4.7053C9.98067 5.04197 10.0313 5.41197 9.98067 5.7753C9.93029 6.13841 9.78109 6.4807 9.54935 6.76475C9.31762 7.04881 9.01227 7.2637 8.66667 7.38597C8.47161 7.45493 8.30275 7.58269 8.18335 7.75164C8.06395 7.92059 7.99989 8.12242 8 8.3293V8.49997M9 15.5H8C7.73478 15.5 7.48043 15.3946 7.29289 15.2071C7.10536 15.0195 7 14.7652 7 14.5C7 14.2347 7.10536 13.9804 7.29289 13.7929C7.48043 13.6053 7.73478 13.5 8 13.5H9C9.26522 13.5 9.51957 13.6053 9.70711 13.7929C9.89464 13.9804 10 14.2347 10 14.5C10 14.7652 9.89464 15.0195 9.70711 15.2071C9.51957 15.3946 9.26522 15.5 9 15.5Z" stroke="#375DFB" stroke-linecap="round" stroke-linejoin="round"/>
<path d="M8 11C7.9337 11 7.87011 10.9737 7.82322 10.9268C7.77634 10.8799 7.75 10.8163 7.75 10.75C7.75 10.6837 7.77634 10.6201 7.82322 10.5732C7.87011 10.5263 7.9337 10.5 8 10.5M8 11C8.0663 11 8.12989 10.9737 8.17678 10.9268C8.22366 10.8799 8.25 10.8163 8.25 10.75C8.25 10.6837 8.22366 10.6201 8.17678 10.5732C8.12989 10.5263 8.0663 10.5 8 10.5" stroke="#375DFB"/>
</g>
<defs>
<clipPath id="clip0_799_5772">
<rect width="16" height="16" fill="white"/>
</clipPath>
</defs>
</svg>
