<svg width="80" height="80" viewBox="0 0 80 80" fill="none" xmlns="http://www.w3.org/2000/svg">
<g filter="url(#filter0_d_2089_3392)">
<rect x="20" y="20" width="40" height="40" rx="20" fill="#F83535"/>
<rect x="15" y="15" width="50" height="50" rx="25" stroke="#FDCCCC" stroke-width="10"/>
<path d="M39.4375 46.1875C39.4375 46.3367 39.3782 46.4798 39.2727 46.5852C39.1673 46.6907 39.0242 46.75 38.875 46.75H34.375C34.2258 46.75 34.0827 46.6907 33.9773 46.5852C33.8718 46.4798 33.8125 46.3367 33.8125 46.1875V33.8125C33.8125 33.6633 33.8718 33.5202 33.9773 33.4148C34.0827 33.3093 34.2258 33.25 34.375 33.25H38.875C39.0242 33.25 39.1673 33.3093 39.2727 33.4148C39.3782 33.5202 39.4375 33.6633 39.4375 33.8125C39.4375 33.9617 39.3782 34.1048 39.2727 34.2102C39.1673 34.3157 39.0242 34.375 38.875 34.375H34.9375V45.625H38.875C39.0242 45.625 39.1673 45.6843 39.2727 45.7898C39.3782 45.8952 39.4375 46.0383 39.4375 46.1875ZM47.148 39.602L44.3355 36.7895C44.2568 36.7108 44.1565 36.6571 44.0474 36.6354C43.9382 36.6136 43.825 36.6248 43.7222 36.6674C43.6193 36.71 43.5315 36.7822 43.4697 36.8748C43.4079 36.9673 43.3749 37.0762 43.375 37.1875V39.4375H38.875C38.7258 39.4375 38.5827 39.4968 38.4773 39.6023C38.3718 39.7077 38.3125 39.8508 38.3125 40C38.3125 40.1492 38.3718 40.2923 38.4773 40.3977C38.5827 40.5032 38.7258 40.5625 38.875 40.5625H43.375V42.8125C43.3749 42.9238 43.4079 43.0327 43.4697 43.1252C43.5315 43.2178 43.6193 43.29 43.7222 43.3326C43.825 43.3752 43.9382 43.3864 44.0474 43.3646C44.1565 43.3429 44.2568 43.2892 44.3355 43.2105L47.148 40.398C47.2003 40.3457 47.2418 40.2837 47.2701 40.2154C47.2984 40.1471 47.3129 40.0739 47.3129 40C47.3129 39.9261 47.2984 39.8529 47.2701 39.7846C47.2418 39.7163 47.2003 39.6543 47.148 39.602Z" fill="white"/>
</g>
<defs>
<filter id="filter0_d_2089_3392" x="0" y="0" width="80" height="80" filterUnits="userSpaceOnUse" color-interpolation-filters="sRGB">
<feFlood flood-opacity="0" result="BackgroundImageFix"/>
<feColorMatrix in="SourceAlpha" type="matrix" values="0 0 0 0 0 0 0 0 0 0 0 0 0 0 0 0 0 0 127 0" result="hardAlpha"/>
<feMorphology radius="10" operator="dilate" in="SourceAlpha" result="effect1_dropShadow_2089_3392"/>
<feOffset/>
<feComposite in2="hardAlpha" operator="out"/>
<feColorMatrix type="matrix" values="0 0 0 0 0.992157 0 0 0 0 0.8 0 0 0 0 0.8 0 0 0 0.4 0"/>
<feBlend mode="normal" in2="BackgroundImageFix" result="effect1_dropShadow_2089_3392"/>
<feBlend mode="normal" in="SourceGraphic" in2="effect1_dropShadow_2089_3392" result="shape"/>
</filter>
</defs>
</svg>
