<svg width="16" height="16" viewBox="0 0 16 16" fill="none" xmlns="http://www.w3.org/2000/svg">
<path d="M1.3335 8.00033C1.3335 5.48633 1.3335 4.22899 2.11483 3.44833C2.89616 2.66766 4.15283 2.66699 6.66683 2.66699H9.3335C11.8475 2.66699 13.1048 2.66699 13.8855 3.44833C14.6662 4.22966 14.6668 5.48633 14.6668 8.00033C14.6668 10.5143 14.6668 11.7717 13.8855 12.5523C13.1042 13.333 11.8475 13.3337 9.3335 13.3337H6.66683C4.15283 13.3337 2.8955 13.3337 2.11483 12.5523C1.33416 11.771 1.3335 10.5143 1.3335 8.00033Z" stroke="#1E338A"/>
<path d="M8.00016 6.66699V9.33366M6.8455 7.33366L9.15483 8.66699M9.15483 7.33366L6.8455 8.66699M4.48883 6.66699V9.33366M3.3335 7.33366L5.64283 8.66699M5.64283 7.33366L3.3335 8.66699M11.5122 6.66699V9.33366M10.3575 7.33366L12.6668 8.66699M12.6668 7.33366L10.3568 8.66699" stroke="#1E338A" stroke-width="0.6" stroke-linecap="round"/>
</svg>
