<?xml version="1.0" encoding="UTF-8"?>
<svg version="1.1" xmlns="http://www.w3.org/2000/svg" width="100" height="100">
<path d="M0 0 C0.67340424 -0.00817749 1.34680847 -0.01635498 2.0406189 -0.02478027 C4.2734895 -0.0496305 6.50629645 -0.06615093 8.73925781 -0.08056641 C9.88369228 -0.08855192 9.88369228 -0.08855192 11.05124664 -0.09669876 C15.09112036 -0.12343126 19.13096318 -0.14280407 23.17089844 -0.15722656 C27.33850292 -0.17385723 31.50531395 -0.21862026 35.67261887 -0.26959801 C38.88117348 -0.30330203 42.08954069 -0.31480745 45.29825592 -0.32045364 C46.83403829 -0.3271596 48.36980861 -0.34236485 49.9054184 -0.36634445 C52.0599926 -0.3980645 54.21243988 -0.39802404 56.3671875 -0.390625 C58.2034671 -0.40275528 58.2034671 -0.40275528 60.07684326 -0.41513062 C64.57513421 0.39750835 66.21385736 2.00348863 69.44238281 5.19287109 C70.69037453 7.68885452 70.58956391 9.41276332 70.61938477 12.20581055 C70.63863762 13.77302605 70.63863762 13.77302605 70.65827942 15.37190247 C70.66566635 16.50520493 70.67305328 17.63850739 70.68066406 18.80615234 C70.68873581 19.96785446 70.69680756 21.12955658 70.7051239 22.32646179 C70.71897307 24.78867089 70.72969148 27.25089926 70.73754883 29.71313477 C70.75476472 33.4795365 70.79864538 37.24506141 70.84277344 41.01123047 C70.85289978 43.40119796 70.86141607 45.79117293 70.86816406 48.18115234 C70.88567215 49.30838211 70.90318024 50.43561188 70.92121887 51.59700012 C70.89949222 59.42648365 70.89949222 59.42648365 68.54077148 63.38110352 C64.88253808 66.53965501 62.47005302 66.33247709 57.68530273 66.36987305 C56.99078506 66.37644424 56.2962674 66.38301544 55.58070374 66.38978577 C53.27808528 66.40952567 50.97553208 66.42118305 48.67285156 66.43115234 C47.88658197 66.43522787 47.10031239 66.4393034 46.29021645 66.44350243 C42.12829475 66.4643665 37.96640605 66.47866652 33.80444336 66.48803711 C29.50683462 66.49910008 25.20974388 66.53349721 20.91231823 66.57320881 C17.60686789 66.59936261 14.30154118 66.60772783 10.99599648 66.61131859 C9.41196508 66.61618809 7.82793934 66.62781253 6.24400902 66.64635658 C4.02480495 66.67072229 1.80694354 66.66978853 -0.41235352 66.6628418 C-1.67429031 66.66870804 -2.93622711 66.67457428 -4.23640442 66.68061829 C-8.14516241 66.10658528 -9.77915287 64.94468664 -12.55761719 62.19287109 C-13.80210993 59.70388561 -13.71151394 57.98089422 -13.75048828 55.19580078 C-13.76655121 54.15421814 -13.78261414 53.1126355 -13.79916382 52.03948975 C-13.84358758 47.2688457 -13.88468553 42.49834159 -13.90771484 37.72753906 C-13.9242699 35.21149442 -13.95155358 32.69549672 -13.98974609 30.1796875 C-14.04452045 26.55362525 -14.06639176 22.9286664 -14.08105469 19.30224609 C-14.10372406 18.18017761 -14.12639343 17.05810913 -14.14974976 15.90203857 C-14.12618289 7.18496354 -14.12618289 7.18496354 -11.14990234 3.49853516 C-7.22148106 0.00446748 -5.20218964 0.05479286 0 0 Z M51.44238281 30.19287109 C51.27571615 33.19287109 51.27571615 33.19287109 51.44238281 36.19287109 C52.56074505 37.53691884 52.56074505 37.53691884 55.44238281 37.31787109 C58.32402057 37.53691884 58.32402057 37.53691884 59.44238281 36.19287109 C59.60904948 33.19287109 59.60904948 33.19287109 59.44238281 30.19287109 C58.32402057 28.84882335 58.32402057 28.84882335 55.44238281 29.06787109 C52.56074505 28.84882335 52.56074505 28.84882335 51.44238281 30.19287109 Z " fill="#000000" transform="translate(21.5576171875,25.80712890625)"/>
<path d="M0 0 C2.42130331 3.63195496 2.21022785 5.38349348 2.125 9.6875 C2.10695313 10.86699219 2.08890625 12.04648437 2.0703125 13.26171875 C2.04710938 14.16535156 2.02390625 15.06898437 2 16 C1.31841324 16.00808685 0.63682648 16.01617371 -0.06541443 16.02450562 C-7.18759167 16.1108566 -14.30950033 16.21037236 -21.43139648 16.31738281 C-24.08600769 16.35660555 -26.74053087 16.39043285 -29.39526367 16.421875 C-33.2207208 16.46776614 -37.04583849 16.52572142 -40.87109375 16.5859375 C-42.04957382 16.59748871 -43.22805389 16.60903992 -44.44224548 16.62094116 C-50.92180545 16.73584422 -56.73031839 17.34012145 -63 19 C-55.8429921 10.11543846 -41.95976405 8.39143049 -31.39355469 5.42578125 C-29.00057024 4.750161 -26.61382992 4.05488582 -24.2265625 3.359375 C-6.84147527 -1.59838038 -6.84147527 -1.59838038 0 0 Z " fill="#000000" transform="translate(74,6)"/>
</svg>
