<svg width="16" height="16" viewBox="0 0 16 16" fill="none" xmlns="http://www.w3.org/2000/svg">
<path fill-rule="evenodd" clip-rule="evenodd" d="M5.33203 2.66494L6.19906 1.58116C6.32569 1.423 6.51734 1.33098 6.71994 1.33105H9.28034C9.48295 1.33098 9.6746 1.423 9.80123 1.58116L10.6676 2.66494V2.66494V3.33189C10.6676 3.70023 10.369 3.99883 10.0006 3.99883H5.99898C5.63063 3.99883 5.33203 3.70023 5.33203 3.33189V2.66494Z" stroke="#1E338A" stroke-linecap="round" stroke-linejoin="round"/>
<path d="M6.44378 6.22168L5.33198 7.33348L4.66504 6.66653" stroke="#1E338A" stroke-linecap="round" stroke-linejoin="round"/>
<path d="M8.66699 6.66648H10.6678" stroke="#1E338A" stroke-linecap="round" stroke-linejoin="round"/>
<path d="M7.33316 13.3362H3.99844C3.26175 13.3362 2.66455 12.7389 2.66455 12.0023V3.99893C2.66455 3.26224 3.26175 2.66504 3.99844 2.66504H5.33233" stroke="#1E338A" stroke-linecap="round" stroke-linejoin="round"/>
<path fill-rule="evenodd" clip-rule="evenodd" d="M12.1644 13.6596C11.9444 13.8796 11.6459 14.0032 11.3348 14.0031V14.0031C11.0236 14.0032 10.7251 13.8796 10.5051 13.6596L9.09916 12.2537C8.54282 11.6741 8.55221 10.756 9.12028 10.1879C9.68836 9.61984 10.6065 9.61045 11.186 10.1668L11.3348 10.3155L11.4835 10.1668C11.8536 9.78119 12.4033 9.62583 12.9205 9.76065C13.4378 9.89546 13.8417 10.2994 13.9765 10.8166C14.1113 11.3338 13.956 11.8835 13.5704 12.2537L12.1644 13.6596Z" stroke="#1E338A" stroke-linecap="round" stroke-linejoin="round"/>
<path d="M10.6675 2.66504H12.0014C12.7381 2.66504 13.3353 3.26224 13.3353 3.99893V8.00059" stroke="#1E338A" stroke-linecap="round" stroke-linejoin="round"/>
<path d="M4.66504 10.0014H5.99893" stroke="#1E338A" stroke-linecap="round" stroke-linejoin="round"/>
</svg>
