<svg width="15" height="15" viewBox="0 0 15 15" fill="none" xmlns="http://www.w3.org/2000/svg">
<path d="M7.19971 1.28888C8.09976 1.28888 8.97503 1.58417 9.69092 2.1297C10.4068 2.67522 10.9239 3.44064 11.1626 4.30841C11.4013 5.17616 11.3483 6.09852 11.0122 6.93341C10.6915 7.72987 10.1282 8.40202 9.40576 8.86212C10.9104 9.38474 12.1981 10.4378 13.0405 11.8934L13.0845 11.9852C13.0961 12.017 13.1047 12.0501 13.1099 12.0838C13.1201 12.1511 13.1168 12.22 13.1001 12.2859C13.0834 12.3518 13.0532 12.4134 13.0122 12.4676C12.9712 12.5218 12.9197 12.5673 12.8608 12.6014C12.8019 12.6354 12.736 12.6574 12.6685 12.6658C12.601 12.6742 12.5327 12.6696 12.4673 12.6512C12.4018 12.6327 12.3408 12.6009 12.2876 12.5584C12.2345 12.516 12.1902 12.4637 12.1577 12.4041C11.1084 10.5912 9.25479 9.50958 7.19971 9.50958C5.14437 9.50964 3.29094 10.5918 2.2417 12.4051C2.20933 12.4642 2.16545 12.5163 2.11279 12.5584C2.05958 12.6009 1.99768 12.6327 1.93213 12.6512C1.86672 12.6696 1.79837 12.6743 1.73096 12.6658C1.66342 12.6574 1.5985 12.6354 1.53955 12.6014C1.48058 12.5673 1.4283 12.5219 1.38721 12.4676C1.34635 12.4135 1.31702 12.3517 1.30029 12.2859C1.28357 12.22 1.27937 12.151 1.28955 12.0838C1.29979 12.0165 1.32426 11.9514 1.35986 11.8934C2.20203 10.4378 3.48863 9.38433 4.99268 8.86212C4.27062 8.40201 3.70774 7.72958 3.38721 6.93341C3.05116 6.09855 2.99815 5.17614 3.23682 4.30841C3.47554 3.44073 3.99277 2.67521 4.7085 2.1297C5.42433 1.58421 6.29972 1.28892 7.19971 1.28888ZM7.80225 2.36896C7.20301 2.24987 6.58155 2.31093 6.01709 2.54474C5.45251 2.77862 4.96988 3.17529 4.63037 3.68341C4.29093 4.19151 4.10986 4.78915 4.10986 5.40021C4.11082 6.21937 4.43687 7.00456 5.01611 7.5838C5.59536 8.16304 6.38054 8.48911 7.19971 8.49005C7.81077 8.49005 8.4084 8.30899 8.9165 7.96954C9.42451 7.6301 9.8203 7.14725 10.0542 6.58282C10.2881 6.0182 10.3502 5.39609 10.231 4.79669C10.1117 4.19744 9.8173 3.64672 9.38525 3.21466C8.95311 2.78252 8.40165 2.48819 7.80225 2.36896Z" fill="#375DFB" stroke="#375DFB" stroke-width="0.12"/>
</svg>
