<svg width="14" height="14" viewBox="0 0 14 14" fill="none" xmlns="http://www.w3.org/2000/svg">
<path d="M5.24984 6.41667C5.86868 6.41667 6.46217 6.17083 6.89975 5.73325C7.33734 5.29566 7.58317 4.70217 7.58317 4.08333C7.58317 3.46449 7.33734 2.871 6.89975 2.43342C6.46217 1.99583 5.86868 1.75 5.24984 1.75C4.631 1.75 4.03751 1.99583 3.59992 2.43342C3.16234 2.871 2.9165 3.46449 2.9165 4.08333C2.9165 4.70217 3.16234 5.29566 3.59992 5.73325C4.03751 6.17083 4.631 6.41667 5.24984 6.41667Z" stroke="#1F6D51" stroke-linecap="round" stroke-linejoin="round"/>
<path d="M1.1665 10.5C1.16651 9.73358 1.38224 8.98261 1.789 8.33301C2.19576 7.68341 2.77714 7.1614 3.46664 6.82669C4.15614 6.49198 4.92592 6.35809 5.68794 6.44032C6.44996 6.52255 7.17345 6.81759 7.77567 7.29169M9.9165 7.58336H11.0832M12.4622 9.74578L12.6348 10.9124C12.6594 11.0783 12.6479 11.2474 12.6012 11.4084C12.5545 11.5694 12.4737 11.7185 12.3642 11.8454C12.2547 11.9723 12.1191 12.0742 11.9667 12.144C11.8143 12.2138 11.6486 12.25 11.481 12.25H9.51867C9.35104 12.25 9.18538 12.2138 9.03298 12.144C8.88058 12.0742 8.74501 11.9723 8.63551 11.8454C8.52602 11.7185 8.44516 11.5694 8.39845 11.4084C8.35174 11.2474 8.34028 11.0783 8.36484 10.9124L8.5375 9.74578C8.57849 9.46903 8.71755 9.21623 8.92935 9.03345C9.14115 8.85067 9.41158 8.75008 9.69134 8.75003H11.3083C11.5881 8.75008 11.8585 8.85067 12.0703 9.03345C12.2821 9.21623 12.4212 9.46903 12.4622 9.74578Z" stroke="#1F6D51" stroke-linecap="round" stroke-linejoin="round"/>
</svg>
