<svg width="24" height="24" viewBox="0 0 24 24" fill="none" xmlns="http://www.w3.org/2000/svg">
<path d="M9 22C9.36 22 10.69 21.393 12.05 20.178M12.05 20.178C13.208 19.142 14.386 17.664 15 15.745C16.333 11.575 8.333 15.745 11 19.22C11.328 19.648 11.681 19.96 12.05 20.178ZM12.05 20.178C13.652 21.126 15.531 20.274 16.804 19.294C17.194 18.995 17.388 18.845 17.504 18.892C17.62 18.939 17.688 19.206 17.824 19.742C18.258 21.457 19.541 22.841 21 20.61" stroke="#266DF0" stroke-width="1.5" stroke-linecap="round" stroke-linejoin="round"/>
<path d="M20 13V7.89C20 6.176 20 5.32 19.732 4.635C19.302 3.534 18.39 2.665 17.235 2.255C16.517 2 15.617 2 13.818 2C10.67 2 9.096 2 7.838 2.447C5.818 3.165 4.223 4.684 3.468 6.611C3 7.809 3 9.309 3 12.309V14.886C3 17.994 3 19.547 3.848 20.626C4.092 20.9373 4.377 21.2093 4.703 21.442C5.07 21.703 5.49 21.88 6 22" stroke="#266DF0" stroke-width="1.5" stroke-linecap="round" stroke-linejoin="round"/>
<path d="M3 12C3 11.116 3.35115 10.2683 3.97621 9.64321C4.60127 9.01815 5.44903 8.667 6.333 8.667C6.999 8.667 7.784 8.783 8.431 8.61C8.71371 8.53392 8.97145 8.38485 9.17838 8.17774C9.38531 7.97064 9.53416 7.71277 9.61 7.43C9.783 6.783 9.667 5.998 9.667 5.332C9.66726 4.44821 10.0185 3.6007 10.6436 2.97586C11.2686 2.35102 12.1162 2 13 2" stroke="#266DF0" stroke-width="1.5" stroke-linecap="round" stroke-linejoin="round"/>
</svg>
