<svg width="20" height="20" viewBox="0 0 20 20" fill="none" xmlns="http://www.w3.org/2000/svg">
<path fill-rule="evenodd" clip-rule="evenodd" d="M19.3501 12.2875C18.8626 9.29751 17.1401 6.95251 14.7839 5.61501L16.1664 2.57501C16.2173 2.4629 16.2456 2.34186 16.2497 2.2188C16.2538 2.09575 16.2336 1.97309 16.1903 1.85782C16.147 1.74256 16.0815 1.63696 15.9974 1.54704C15.9132 1.45712 15.8123 1.38465 15.7001 1.33376C15.588 1.28288 15.467 1.25457 15.3439 1.25046C15.2209 1.24635 15.0982 1.26652 14.9829 1.30982C14.7502 1.39726 14.5617 1.57358 14.4589 1.80001L13.0689 4.85751C12.0778 4.53579 11.0421 4.37294 10.0001 4.37501C8.95817 4.37294 7.92244 4.53579 6.93139 4.85751L5.54139 1.80001C5.4905 1.6879 5.41803 1.5869 5.32811 1.50279C5.23819 1.41869 5.13259 1.35311 5.01733 1.30982C4.90207 1.26652 4.77941 1.24635 4.65635 1.25046C4.5333 1.25457 4.41225 1.28288 4.30014 1.33376C4.18802 1.38465 4.08703 1.45712 4.00292 1.54704C3.91881 1.63696 3.85324 1.74256 3.80994 1.85782C3.76665 1.97309 3.74648 2.09575 3.75059 2.2188C3.75469 2.34186 3.783 2.4629 3.83389 2.57501L5.21639 5.61501C2.86014 6.95251 1.13639 9.29751 0.650138 12.2875C0.487638 13.285 0.427638 14.3563 0.783888 15.3288C1.19014 16.4413 2.02014 17.13 2.99389 17.5163C3.87014 17.8663 4.91889 17.995 5.99889 18.0575C7.10764 18.1225 8.45264 18.125 10.0001 18.125C11.5476 18.125 12.8926 18.1225 14.0001 18.0575C15.0801 17.995 16.1301 17.865 17.0064 17.5175C17.9814 17.13 18.8101 16.4425 19.2164 15.33C19.5726 14.355 19.5126 13.285 19.3501 12.2875ZM2.50014 12.5888C1.91264 16.2013 3.75014 16.25 10.0001 16.25C16.2501 16.25 18.0876 16.2025 17.5001 12.5888C16.8751 8.75001 13.7501 6.25001 10.0001 6.25001C6.25014 6.25001 3.12514 8.75001 2.50014 12.5888ZM13.1251 14.0625C12.8765 14.0625 12.638 13.9637 12.4622 13.7879C12.2864 13.6121 12.1876 13.3737 12.1876 13.125V11.25C12.1876 11.0014 12.2864 10.7629 12.4622 10.5871C12.638 10.4113 12.8765 10.3125 13.1251 10.3125C13.3738 10.3125 13.6122 10.4113 13.788 10.5871C13.9639 10.7629 14.0626 11.0014 14.0626 11.25V13.125C14.0626 13.3737 13.9639 13.6121 13.788 13.7879C13.6122 13.9637 13.3738 14.0625 13.1251 14.0625ZM5.93764 13.125C5.93764 13.3737 6.03641 13.6121 6.21223 13.7879C6.38804 13.9637 6.6265 14.0625 6.87514 14.0625C7.12378 14.0625 7.36224 13.9637 7.53805 13.7879C7.71387 13.6121 7.81264 13.3737 7.81264 13.125V11.25C7.81264 11.0014 7.71387 10.7629 7.53805 10.5871C7.36224 10.4113 7.12378 10.3125 6.87514 10.3125C6.6265 10.3125 6.38804 10.4113 6.21223 10.5871C6.03641 10.7629 5.93764 11.0014 5.93764 11.25V13.125Z" fill="#288D68"/>
</svg>
