<svg width="32" height="32" viewBox="0 0 32 32" fill="none" xmlns="http://www.w3.org/2000/svg">
<rect width="32" height="32" rx="8" fill="#EBF9F4"/>
<path fill-rule="evenodd" clip-rule="evenodd" d="M25.3501 18.2875C24.8626 15.2975 23.1401 12.9525 20.7839 11.615L22.1664 8.57501C22.2173 8.4629 22.2456 8.34186 22.2497 8.2188C22.2538 8.09574 22.2336 7.97309 22.1903 7.85782C22.147 7.74256 22.0815 7.63696 21.9974 7.54704C21.9132 7.45712 21.8123 7.38465 21.7001 7.33376C21.588 7.28288 21.467 7.25457 21.3439 7.25046C21.2209 7.24635 21.0982 7.26652 20.9829 7.30982C20.7502 7.39726 20.5617 7.57358 20.4589 7.80001L19.0689 10.8575C18.0778 10.5358 17.0421 10.3729 16.0001 10.375C14.9582 10.3729 13.9224 10.5358 12.9314 10.8575L11.5414 7.80001C11.4905 7.6879 11.418 7.5869 11.3281 7.50279C11.2382 7.41869 11.1326 7.35311 11.0173 7.30982C10.9021 7.26652 10.7794 7.24635 10.6564 7.25046C10.5333 7.25457 10.4123 7.28288 10.3001 7.33376C10.188 7.38465 10.087 7.45712 10.0029 7.54704C9.91881 7.63696 9.85324 7.74256 9.80994 7.85782C9.76665 7.97309 9.74648 8.09574 9.75059 8.2188C9.75469 8.34186 9.783 8.4629 9.83389 8.57501L11.2164 11.615C8.86014 12.9525 7.13639 15.2975 6.65014 18.2875C6.48764 19.285 6.42764 20.3563 6.78389 21.3288C7.19014 22.4413 8.02014 23.13 8.99389 23.5163C9.87014 23.8663 10.9189 23.995 11.9989 24.0575C13.1076 24.1225 14.4526 24.125 16.0001 24.125C17.5476 24.125 18.8926 24.1225 20.0001 24.0575C21.0801 23.995 22.1301 23.865 23.0064 23.5175C23.9814 23.13 24.8101 22.4425 25.2164 21.33C25.5726 20.355 25.5126 19.285 25.3501 18.2875ZM8.50014 18.5888C7.91264 22.2013 9.75014 22.25 16.0001 22.25C22.2501 22.25 24.0876 22.2025 23.5001 18.5888C22.8751 14.75 19.7501 12.25 16.0001 12.25C12.2501 12.25 9.12514 14.75 8.50014 18.5888ZM19.1251 20.0625C18.8765 20.0625 18.638 19.9637 18.4622 19.7879C18.2864 19.6121 18.1876 19.3737 18.1876 19.125V17.25C18.1876 17.0014 18.2864 16.7629 18.4622 16.5871C18.638 16.4113 18.8765 16.3125 19.1251 16.3125C19.3738 16.3125 19.6122 16.4113 19.788 16.5871C19.9639 16.7629 20.0626 17.0014 20.0626 17.25V19.125C20.0626 19.3737 19.9639 19.6121 19.788 19.7879C19.6122 19.9637 19.3738 20.0625 19.1251 20.0625ZM11.9376 19.125C11.9376 19.3737 12.0364 19.6121 12.2122 19.7879C12.388 19.9637 12.6265 20.0625 12.8751 20.0625C13.1238 20.0625 13.3622 19.9637 13.5381 19.7879C13.7139 19.6121 13.8126 19.3737 13.8126 19.125V17.25C13.8126 17.0014 13.7139 16.7629 13.5381 16.5871C13.3622 16.4113 13.1238 16.3125 12.8751 16.3125C12.6265 16.3125 12.388 16.4113 12.2122 16.5871C12.0364 16.7629 11.9376 17.0014 11.9376 17.25V19.125Z" fill="#288D68"/>
<g clip-path="url(#clip0_570_5075)">
<path d="M24.7722 17.2604C25.2306 17.2605 25.6828 17.3667 26.0932 17.5708C26.5037 17.7748 26.8613 18.0712 27.138 18.4367C27.4148 18.8021 27.6031 19.2267 27.6882 19.6772C27.7733 20.1276 27.7529 20.5916 27.6286 21.0329C27.5043 21.4741 27.2794 21.8805 26.9717 22.2203C26.664 22.5601 26.2818 22.8239 25.855 22.9912C25.4282 23.1585 24.9684 23.2246 24.5118 23.1844C24.0552 23.1442 23.614 22.9988 23.223 22.7595C23.1602 22.7206 23.0764 22.7646 23.0764 22.8388V23.3563C23.0764 23.5386 23.0039 23.7135 22.875 23.8424C22.7461 23.9713 22.5712 24.0438 22.3889 24.0438H21.8389C21.7173 24.0438 21.6007 24.0921 21.5148 24.178C21.4288 24.264 21.3805 24.3805 21.3805 24.5021V25.0521C21.3805 25.2344 21.3081 25.4093 21.1792 25.5382C21.0502 25.6672 20.8754 25.7396 20.693 25.7396H19.9482C19.7659 25.7396 19.591 25.6672 19.4621 25.5382C19.3332 25.4093 19.2607 25.2344 19.2607 25.0521V23.9993C19.2608 23.7562 19.3574 23.5231 19.5293 23.3512L21.6221 21.2585C21.7944 21.0861 21.8563 20.8354 21.8265 20.593C21.7748 20.1756 21.8124 19.752 21.9368 19.3503C22.0612 18.9485 22.2696 18.5778 22.5481 18.2627C22.8267 17.9476 23.169 17.6953 23.5524 17.5225C23.9359 17.3497 24.3516 17.2604 24.7722 17.2604Z" fill="white" stroke="#375DFB" stroke-linejoin="round"/>
<path d="M25 21C25.5523 21 26 20.5523 26 20C26 19.4477 25.5523 19 25 19C24.4477 19 24 19.4477 24 20C24 20.5523 24.4477 21 25 21Z" fill="#375DFB"/>
</g>
<defs>
<clipPath id="clip0_570_5075">
<rect width="11" height="11" fill="white" transform="translate(18 16)"/>
</clipPath>
</defs>
</svg>
