<svg width="15" height="18" viewBox="0 0 15 18" fill="none" xmlns="http://www.w3.org/2000/svg">
<path d="M13.7368 6.28248C13.6401 6.35748 11.9326 7.31914 11.9326 9.45748C11.9326 11.9308 14.1051 12.8066 14.1701 12.8283C14.1601 12.8816 13.8251 14.0266 13.0251 15.1933C12.3109 16.22 11.5668 17.245 10.4334 17.245C9.29927 17.245 9.0076 16.5866 7.69927 16.5866C6.42427 16.5866 5.97093 17.2666 4.93427 17.2666C3.8976 17.2666 3.17343 16.3166 2.3426 15.15C1.3776 13.78 0.600098 11.65 0.600098 9.63081C0.600098 6.39081 2.70676 4.67248 4.78093 4.67248C5.8826 4.67248 6.80093 5.39581 7.4926 5.39581C8.15093 5.39581 9.1776 4.62914 10.4309 4.62914C10.9059 4.62914 12.6126 4.67164 13.7368 6.28248ZM9.83677 3.25748C10.3543 2.64164 10.7209 1.78831 10.7209 0.934976C10.7217 0.822527 10.7111 0.710288 10.6893 0.599976C9.84593 0.631642 8.8426 1.16164 8.2376 1.86331C7.7626 2.40331 7.31926 3.25664 7.31926 4.12164C7.31926 4.25164 7.34093 4.38164 7.35093 4.42331C7.40426 4.43331 7.49093 4.44498 7.5776 4.44498C8.33427 4.44498 9.28593 3.93831 9.83593 3.25664L9.83677 3.25748Z" stroke="#CB193B" stroke-width="1.2" stroke-miterlimit="10" stroke-linejoin="round"/>
</svg>
