<svg width="20" height="20" viewBox="0 0 20 20" fill="none" xmlns="http://www.w3.org/2000/svg">
<g clip-path="url(#clip0_718_3789)">
<path d="M1.6665 7.14175C1.6665 6.14425 2.06817 5.53341 2.89984 5.07008L6.32484 3.16425C8.119 2.16675 9.0165 1.66675 9.99984 1.66675C10.9832 1.66675 11.8807 2.16675 13.6748 3.16425L17.0998 5.07008C17.9307 5.53341 18.3332 6.14425 18.3332 7.14175C18.3332 7.41175 18.3332 7.54758 18.304 7.65841C18.149 8.24175 17.6198 8.33425 17.109 8.33425H2.89067C2.37984 8.33425 1.8515 8.24258 1.69567 7.65841C1.6665 7.54675 1.6665 7.41175 1.6665 7.14175Z" stroke="#375DFB" stroke-width="1.5"/>
<path d="M9.99658 5.8335H10.0041" stroke="#375DFB" stroke-width="2" stroke-linecap="round" stroke-linejoin="round"/>
<path d="M3.33317 8.3335V15.4168M6.6665 8.3335V15.4168M13.3332 8.3335V15.4168M16.6665 8.3335V15.4168M15.8332 15.4168H4.1665C3.50346 15.4168 2.86758 15.6802 2.39874 16.1491C1.9299 16.6179 1.6665 17.2538 1.6665 17.9168C1.6665 18.0273 1.7104 18.1333 1.78854 18.2115C1.86668 18.2896 1.97266 18.3335 2.08317 18.3335H17.9165C18.027 18.3335 18.133 18.2896 18.2111 18.2115C18.2893 18.1333 18.3332 18.0273 18.3332 17.9168C18.3332 17.2538 18.0698 16.6179 17.6009 16.1491C17.1321 15.6802 16.4962 15.4168 15.8332 15.4168Z" stroke="#375DFB" stroke-width="1.5"/>
</g>
<defs>
<clipPath id="clip0_718_3789">
<rect width="20" height="20" fill="white"/>
</clipPath>
</defs>
</svg>
