<svg width="48" height="48" viewBox="0 0 48 48" fill="none" xmlns="http://www.w3.org/2000/svg">
<path d="M15.0001 12V13.5C15.247 13.5 15.4901 13.439 15.7078 13.3225C15.9255 13.2059 16.1111 13.0375 16.2481 12.832L15.0001 12ZM28.0401 7.79601C28.391 7.98351 28.802 8.02396 29.1827 7.90843C29.3712 7.85123 29.5466 7.75746 29.6988 7.63248C29.8511 7.5075 29.9772 7.35374 30.0701 7.18001C30.1629 7.00627 30.2206 6.81594 30.2399 6.6199C30.2592 6.42385 30.2397 6.22593 30.1825 6.03743C30.1253 5.84893 30.0315 5.67353 29.9066 5.52127C29.7816 5.36901 29.6278 5.24285 29.4541 5.15001L28.0401 7.79601ZM45.0921 17.242C44.9764 16.8612 44.7142 16.5418 44.3632 16.3543C44.0121 16.1668 43.6009 16.1264 43.2201 16.242C42.8392 16.3576 42.5199 16.6198 42.3324 16.9709C42.1448 17.322 42.1044 17.7332 42.2201 18.114L45.0921 17.242ZM42.5001 23V27H45.5001V23H42.5001ZM29.0001 40.5H19.0001V43.5H29.0001V40.5ZM5.50008 27V23H2.50008V27H5.50008ZM24.7201 4.50001H23.2801V7.50001H24.7201V4.50001ZM15.3761 8.73001L13.7501 11.168L16.2481 12.832L17.8721 10.394L15.3761 8.73001ZM23.2801 4.50001C22.2601 4.50001 21.3921 4.50001 20.6721 4.56601C19.9201 4.63601 19.2221 4.78601 18.5441 5.15001L19.9601 7.79601C20.1641 7.68601 20.4321 7.60001 20.9501 7.55201C21.5001 7.50201 22.2041 7.50001 23.2801 7.50001V4.50001ZM17.8741 10.394C18.4701 9.50001 18.8621 8.91401 19.2081 8.48601C19.5361 8.08201 19.7561 7.90601 19.9621 7.79601L18.5441 5.15001C17.8641 5.51401 17.3521 6.01001 16.8781 6.59801C16.4221 7.15801 15.9421 7.88201 15.3761 8.73001L17.8741 10.394ZM5.50008 23C5.50008 20.1 5.51608 18.982 5.78008 18.114L2.91008 17.24C2.48408 18.642 2.50008 20.316 2.50008 22.998L5.50008 23ZM15.0001 10.5C12.3181 10.5 10.6441 10.484 9.24208 10.91L10.1141 13.78C10.9821 13.516 12.1001 13.5 15.0001 13.5V10.5ZM5.78008 18.114C6.09034 17.0909 6.64818 16.1601 7.40417 15.4041C8.16016 14.6481 9.09095 14.0903 10.1141 13.78L9.24208 10.91C7.74803 11.3637 6.38683 12.1786 5.28275 13.2827C4.17866 14.3868 3.36374 15.746 2.91008 17.24L5.78008 18.114ZM19.0001 40.5C15.6761 40.5 13.3141 40.498 11.5021 40.284C9.72408 40.074 8.67408 39.676 7.87808 39.024L5.97408 41.344C7.39208 42.508 9.08808 43.018 11.1501 43.264C13.1801 43.504 15.7501 43.5 19.0001 43.5V40.5ZM2.50008 27C2.50008 30.25 2.49808 32.82 2.73808 34.85C2.98208 36.91 3.49208 38.61 4.65808 40.026L6.97608 38.124C6.32408 37.328 5.92608 36.276 5.71608 34.498C5.50208 32.686 5.50008 30.324 5.50008 27H2.50008ZM7.87808 39.024C7.54978 38.7537 7.24638 38.4523 6.97608 38.124L4.65808 40.026C5.05408 40.5073 5.49141 40.9467 5.97408 41.344L7.87808 39.024ZM42.5001 27C42.5001 30.324 42.4981 32.686 42.2841 34.498C42.0741 36.276 41.6761 37.328 41.0241 38.124L43.3441 40.026C44.5081 38.608 45.0181 36.912 45.2641 34.85C45.5041 32.82 45.5001 30.25 45.5001 27H42.5001ZM29.0001 43.5C32.2501 43.5 34.8201 43.502 36.8501 43.262C38.9101 43.018 40.6101 42.508 42.0261 41.342L40.1261 39.024C39.3301 39.676 38.2761 40.074 36.4981 40.284C34.6861 40.498 32.3241 40.5 29.0001 40.5V43.5ZM41.0241 38.124C40.7538 38.4523 40.4544 38.7537 40.1261 39.024L42.0261 41.344C42.5074 40.948 42.9467 40.5087 43.3441 40.026L41.0241 38.124ZM24.7201 7.50001C25.7961 7.50001 26.5001 7.50001 27.0501 7.55201C27.5681 7.60001 27.8341 7.68601 28.0401 7.79601L29.4541 5.15001C28.7741 4.78801 28.0801 4.63601 27.3281 4.56601C26.6081 4.49801 25.7421 4.50001 24.7201 4.50001V7.50001ZM45.5001 23C45.5001 20.318 45.5161 18.644 45.0921 17.242L42.2201 18.114C42.4841 18.982 42.5001 20.1 42.5001 23H45.5001Z" fill="#1B4DAA"/>
<path d="M32 26C32 28.1217 31.1571 30.1566 29.6569 31.6569C28.1566 33.1571 26.1217 34 24 34C21.8783 34 19.8434 33.1571 18.3431 31.6569C16.8429 30.1566 16 28.1217 16 26C16 23.8783 16.8429 21.8434 18.3431 20.3431C19.8434 18.8429 21.8783 18 24 18C26.1217 18 28.1566 18.8429 29.6569 20.3431C31.1571 21.8434 32 23.8783 32 26ZM35.948 6.042C35.96 5.986 36.04 5.986 36.052 6.042C36.3498 7.49669 37.0682 8.83189 38.1182 9.88184C39.1681 10.9318 40.5033 11.6502 41.958 11.948C42.014 11.96 42.014 12.04 41.958 12.052C40.5033 12.3498 39.1681 13.0682 38.1182 14.1182C37.0682 15.1681 36.3498 16.5033 36.052 17.958C36.04 18.014 35.96 18.014 35.948 17.958C35.6502 16.5033 34.9318 15.1681 33.8818 14.1182C32.8319 13.0682 31.4967 12.3498 30.042 12.052C29.986 12.04 29.986 11.96 30.042 11.948C31.4967 11.6502 32.8319 10.9318 33.8818 9.88184C34.9318 8.83189 35.6502 7.49669 35.948 6.042Z" fill="#FAEDCC" stroke="#1B4DAA" stroke-width="2" stroke-linecap="round" stroke-linejoin="round"/>
</svg>
