<svg width="24" height="24" viewBox="0 0 24 24" fill="none" xmlns="http://www.w3.org/2000/svg">
<g clip-path="url(#clip0_718_3747)">
<mask id="mask0_718_3747" style="mask-type:luminance" maskUnits="userSpaceOnUse" x="0" y="0" width="24" height="24">
<path d="M0 0H24V24H0V0Z" fill="white"/>
</mask>
<g mask="url(#mask0_718_3747)">
<path d="M14.2572 5.97611C13.4072 4.27611 11.4252 3.33811 9.4552 3.82911C7.1852 4.39511 5.7922 6.64411 6.3432 8.85211C6.5002 9.48511 6.8012 10.0461 7.2032 10.5111L4.4942 14.8811C4.38869 15.0515 4.3184 15.2414 4.28748 15.4394C4.25657 15.6374 4.26565 15.8396 4.31421 16.0341L4.6742 17.4741C4.69006 17.5384 4.73076 17.5937 4.78737 17.628C4.84398 17.6624 4.91189 17.6728 4.9762 17.6571L6.5042 17.2761C6.88336 17.1814 7.21057 16.9424 7.4162 16.6101L10.3002 11.9551" stroke="#375DFB" stroke-width="1.2" stroke-linecap="round"/>
<path d="M11.0694 8.26556C11.6369 8.12407 11.9853 7.56192 11.8477 7.00996C11.7101 6.45801 11.1385 6.12526 10.571 6.26675C10.0035 6.40825 9.65502 6.9704 9.79264 7.52235C9.93025 8.07431 10.5019 8.40706 11.0694 8.26556Z" stroke="#375DFB" stroke-width="1.2"/>
<path d="M17.81 15.6102C20.08 15.0442 21.474 12.7952 20.923 10.5872C20.373 8.37817 18.086 7.04717 15.817 7.61317C13.547 8.17917 12.154 10.4282 12.704 12.6362C12.862 13.2692 13.162 13.8302 13.564 14.2952L10.856 18.6652C10.7505 18.8356 10.6802 19.0254 10.6493 19.2234C10.6184 19.4215 10.6275 19.6237 10.676 19.8182L11.035 21.2582C11.0429 21.2901 11.0569 21.3202 11.0764 21.3467C11.0959 21.3731 11.1204 21.3955 11.1486 21.4125C11.1767 21.4295 11.2079 21.4408 11.2404 21.4457C11.2729 21.4506 11.3061 21.4491 11.338 21.4412L12.865 21.0602C13.2442 20.9655 13.5714 20.7265 13.777 20.3942L16.662 15.7392C17.0414 15.7485 17.4244 15.7055 17.811 15.6102H17.81Z" stroke="#375DFB" stroke-width="1.2"/>
<path d="M17.4522 11.9836C18.0197 11.8421 18.3682 11.2799 18.2305 10.728C18.0929 10.176 17.5213 9.84328 16.9538 9.98477C16.3863 10.1263 16.0378 10.6884 16.1754 11.2404C16.3131 11.7923 16.8847 12.1251 17.4522 11.9836Z" stroke="#375DFB" stroke-width="1.2"/>
</g>
</g>
<defs>
<clipPath id="clip0_718_3747">
<rect width="24" height="24" fill="white"/>
</clipPath>
</defs>
</svg>
