<svg width="20" height="20" viewBox="0 0 20 20" fill="none" xmlns="http://www.w3.org/2000/svg">
<path d="M7.80583 1.875H7.83333C7.99909 1.875 8.15806 1.94085 8.27528 2.05806C8.39249 2.17527 8.45833 2.33424 8.45833 2.5C8.45833 2.66576 8.39249 2.82473 8.27528 2.94194C8.15806 3.05915 7.99909 3.125 7.83333 3.125C6.89 3.125 6.21917 3.125 5.695 3.16833C5.17833 3.21 4.8575 3.29083 4.60333 3.42C4.09386 3.67963 3.67963 4.09386 3.42 4.60333C3.29083 4.8575 3.21083 5.17833 3.16833 5.695C3.12583 6.22 3.125 6.89 3.125 7.83333C3.125 7.99909 3.05915 8.15806 2.94194 8.27528C2.82473 8.39249 2.66576 8.45833 2.5 8.45833C2.33424 8.45833 2.17527 8.39249 2.05806 8.27528C1.94085 8.15806 1.875 7.99909 1.875 7.83333V7.80583C1.875 6.89583 1.875 6.17417 1.9225 5.59333C1.97083 4.99833 2.0725 4.49583 2.30583 4.03667C2.68556 3.29166 3.29147 2.68604 4.03667 2.30667C4.495 2.0725 4.99833 1.97083 5.59333 1.9225C6.17417 1.875 6.89583 1.875 7.80583 1.875ZM14.3058 3.16833C13.7808 3.12583 13.11 3.125 12.1667 3.125C12.0009 3.125 11.8419 3.05915 11.7247 2.94194C11.6075 2.82473 11.5417 2.66576 11.5417 2.5C11.5417 2.33424 11.6075 2.17527 11.7247 2.05806C11.8419 1.94085 12.0009 1.875 12.1667 1.875H12.1942C13.1042 1.875 13.8258 1.875 14.4067 1.9225C15.0017 1.97083 15.5042 2.0725 15.9642 2.30583C16.7089 2.6857 17.3142 3.2916 17.6933 4.03667C17.9275 4.495 18.0292 4.99833 18.0775 5.59333C18.125 6.17417 18.125 6.89583 18.125 7.80583V7.83333C18.125 7.99909 18.0592 8.15806 17.9419 8.27528C17.8247 8.39249 17.6658 8.45833 17.5 8.45833C17.3342 8.45833 17.1753 8.39249 17.0581 8.27528C16.9408 8.15806 16.875 7.99909 16.875 7.83333C16.875 6.89 16.875 6.21917 16.8317 5.695C16.79 5.17833 16.7092 4.8575 16.58 4.60333C16.3204 4.09386 15.9061 3.67963 15.3967 3.42C15.1425 3.29083 14.8225 3.21083 14.3058 3.16833ZM6.66667 6.04167C6.83243 6.04167 6.9914 6.10751 7.10861 6.22472C7.22582 6.34194 7.29167 6.50091 7.29167 6.66667V7.91667C7.29167 8.08243 7.22582 8.2414 7.10861 8.35861C6.9914 8.47582 6.83243 8.54167 6.66667 8.54167C6.50091 8.54167 6.34194 8.47582 6.22472 8.35861C6.10751 8.2414 6.04167 8.08243 6.04167 7.91667V6.66667C6.04167 6.50091 6.10751 6.34194 6.22472 6.22472C6.34194 6.10751 6.50091 6.04167 6.66667 6.04167ZM13.3333 6.04167C13.4991 6.04167 13.6581 6.10751 13.7753 6.22472C13.8925 6.34194 13.9583 6.50091 13.9583 6.66667V7.91667C13.9583 8.08243 13.8925 8.2414 13.7753 8.35861C13.6581 8.47582 13.4991 8.54167 13.3333 8.54167C13.1676 8.54167 13.0086 8.47582 12.8914 8.35861C12.7742 8.2414 12.7083 8.08243 12.7083 7.91667V6.66667C12.7083 6.50091 12.7742 6.34194 12.8914 6.22472C13.0086 6.10751 13.1676 6.04167 13.3333 6.04167ZM10 7.5C10.1658 7.5 10.3247 7.56585 10.4419 7.68306C10.5592 7.80027 10.625 7.95924 10.625 8.125V11.4583C10.625 11.6241 10.5592 11.7831 10.4419 11.9003C10.3247 12.0175 10.1658 12.0833 10 12.0833H9.16667C9.00091 12.0833 8.84194 12.0175 8.72473 11.9003C8.60751 11.7831 8.54167 11.6241 8.54167 11.4583C8.54167 11.2926 8.60751 11.1336 8.72473 11.0164C8.84194 10.8992 9.00091 10.8333 9.16667 10.8333H9.375V8.125C9.375 7.95924 9.44085 7.80027 9.55806 7.68306C9.67527 7.56585 9.83424 7.5 10 7.5ZM2.5 11.5417C2.66576 11.5417 2.82473 11.6075 2.94194 11.7247C3.05915 11.8419 3.125 12.0009 3.125 12.1667C3.125 13.1108 3.125 13.7808 3.16833 14.305C3.21 14.8217 3.29083 15.1425 3.42 15.3967C3.67963 15.9061 4.09386 16.3204 4.60333 16.58C4.8575 16.7092 5.17833 16.7892 5.695 16.8317C6.22 16.8742 6.89 16.875 7.83333 16.875C7.99909 16.875 8.15806 16.9408 8.27528 17.0581C8.39249 17.1753 8.45833 17.3342 8.45833 17.5C8.45833 17.6658 8.39249 17.8247 8.27528 17.9419C8.15806 18.0592 7.99909 18.125 7.83333 18.125H7.80583C6.89583 18.125 6.17417 18.125 5.59333 18.0775C4.99833 18.0292 4.49583 17.9275 4.03667 17.6942C3.29178 17.3147 2.68618 16.7091 2.30667 15.9642C2.0725 15.5042 1.97083 15.0017 1.9225 14.4067C1.875 13.8258 1.875 13.1042 1.875 12.1942V12.1667C1.875 12.0009 1.94085 11.8419 2.05806 11.7247C2.17527 11.6075 2.33424 11.5417 2.5 11.5417ZM17.5 11.5417C17.6658 11.5417 17.8247 11.6075 17.9419 11.7247C18.0592 11.8419 18.125 12.0009 18.125 12.1667V12.1942C18.125 13.1042 18.125 13.8258 18.0775 14.4067C18.0292 15.0017 17.9275 15.5042 17.6942 15.9642C17.3145 16.7087 16.7089 17.314 15.9642 17.6933C15.5042 17.9275 15.0017 18.0292 14.4067 18.0775C13.8258 18.125 13.1042 18.125 12.1942 18.125H12.1667C12.0009 18.125 11.8419 18.0592 11.7247 17.9419C11.6075 17.8247 11.5417 17.6658 11.5417 17.5C11.5417 17.3342 11.6075 17.1753 11.7247 17.0581C11.8419 16.9408 12.0009 16.875 12.1667 16.875C13.1108 16.875 13.7808 16.875 14.305 16.8317C14.8217 16.79 15.1425 16.7092 15.3967 16.58C15.9061 16.3204 16.3204 15.9061 16.58 15.3967C16.7092 15.1425 16.7892 14.8217 16.8317 14.305C16.8742 13.78 16.875 13.11 16.875 12.1667C16.875 12.0009 16.9408 11.8419 17.0581 11.7247C17.1753 11.6075 17.3342 11.5417 17.5 11.5417ZM7.05833 13.3083C7.17552 13.1913 7.33437 13.1255 7.5 13.1255C7.66563 13.1255 7.82448 13.1913 7.94167 13.3083C8.42333 13.7892 9.18667 14.0625 10 14.0625C10.8133 14.0625 11.5767 13.7892 12.0583 13.3083C12.1156 13.2469 12.1846 13.1977 12.2612 13.1635C12.3379 13.1294 12.4206 13.111 12.5046 13.1095C12.5885 13.108 12.6718 13.1235 12.7497 13.1549C12.8275 13.1863 12.8982 13.2331 12.9575 13.2925C13.0169 13.3518 13.0637 13.4225 13.0951 13.5003C13.1265 13.5782 13.142 13.6615 13.1405 13.7454C13.139 13.8294 13.1206 13.9121 13.0865 13.9888C13.0523 14.0654 13.0031 14.1344 12.9417 14.1917C12.1733 14.9608 11.0617 15.3125 10 15.3125C8.93833 15.3125 7.82667 14.9608 7.05833 14.1917C6.94129 14.0745 6.87555 13.9156 6.87555 13.75C6.87555 13.5844 6.94129 13.4255 7.05833 13.3083Z" fill="#1B4DAA"/>
</svg>
