<svg width="49" height="49" viewBox="0 0 49 49" fill="none" xmlns="http://www.w3.org/2000/svg">
<mask id="path-1-outside-1_608_9563" maskUnits="userSpaceOnUse" x="-0.5" y="-0.5" width="50" height="50" fill="black">
<rect fill="white" x="-0.5" y="-0.5" width="50" height="50"/>
<path d="M1.71875 34.1094C2.39183 34.1094 2.9375 34.655 2.9375 35.3281V40.7188C2.9375 43.6653 5.33473 46.0625 8.28125 46.0625H13.6719C14.345 46.0625 14.8906 46.6082 14.8906 47.2812C14.8906 47.9543 14.345 48.5 13.6719 48.5H8.28125C3.99069 48.5 0.5 45.0093 0.5 40.7188V35.3281C0.5 34.655 1.04567 34.1094 1.71875 34.1094ZM47.2812 34.1094C47.9543 34.1094 48.5 34.655 48.5 35.3281V40.7188C48.5 45.0093 45.0093 48.5 40.7188 48.5H35.3281C34.655 48.5 34.1094 47.9543 34.1094 47.2812C34.1094 46.6082 34.655 46.0625 35.3281 46.0625H40.7188C43.6653 46.0625 46.0625 43.6653 46.0625 40.7188V35.3281C46.0625 34.655 46.6082 34.1094 47.2812 34.1094ZM31.1934 34.1172C31.7068 33.6431 32.5072 33.6751 32.9814 34.1885C33.4556 34.702 33.4236 35.5023 32.9102 35.9766C30.614 38.0973 27.6275 39.2656 24.5 39.2656C21.3724 39.2656 18.385 38.0975 16.0889 35.9766C15.5756 35.5023 15.5444 34.7019 16.0186 34.1885C16.4929 33.6751 17.2931 33.643 17.8066 34.1172C19.6337 35.8049 22.0109 36.7344 24.5 36.7344C26.9891 36.7343 29.3663 35.8049 31.1934 34.1172ZM25.7656 17.3281C26.4646 17.3281 27.0312 17.8948 27.0312 18.5938V27.5938C27.0312 29.3772 25.5803 30.8281 23.7969 30.8281H22.7656C22.0666 30.8281 21.5 30.2615 21.5 29.5625C21.5 28.8635 22.0666 28.2969 22.7656 28.2969H23.7969C24.1846 28.2969 24.5 27.9815 24.5 27.5938V18.5938C24.5 17.8948 25.0666 17.3281 25.7656 17.3281ZM14.7266 17.3281C15.3867 17.3281 15.9219 17.8633 15.9219 18.5234V22.1328C15.9219 22.793 15.3867 23.3281 14.7266 23.3281C14.0664 23.3281 13.5312 22.793 13.5312 22.1328V18.5234C13.5313 17.8633 14.0664 17.3281 14.7266 17.3281ZM34.5547 17.3281C35.2148 17.3281 35.75 17.8633 35.75 18.5234V22.1328C35.75 22.793 35.2148 23.3281 34.5547 23.3281C33.8945 23.3281 33.3594 22.793 33.3594 22.1328V18.5234C33.3594 17.8633 33.8945 17.3281 34.5547 17.3281ZM13.6719 0.5C14.345 0.5 14.8906 1.04567 14.8906 1.71875C14.8906 2.39183 14.345 2.9375 13.6719 2.9375H8.28125C5.33473 2.9375 2.9375 5.33469 2.9375 8.28125V13.6719C2.9375 14.345 2.39183 14.8906 1.71875 14.8906C1.04567 14.8906 0.5 14.345 0.5 13.6719V8.28125C0.5 3.99064 3.99069 0.5 8.28125 0.5H13.6719ZM40.7188 0.5C45.0093 0.5 48.5 3.99064 48.5 8.28125V13.6719C48.5 14.345 47.9543 14.8906 47.2812 14.8906C46.6082 14.8906 46.0625 14.345 46.0625 13.6719V8.28125C46.0625 5.33469 43.6653 2.9375 40.7188 2.9375H35.3281C34.655 2.9375 34.1094 2.39183 34.1094 1.71875C34.1094 1.04567 34.655 0.5 35.3281 0.5H40.7188Z"/>
</mask>
<path d="M1.71875 34.1094C2.39183 34.1094 2.9375 34.655 2.9375 35.3281V40.7188C2.9375 43.6653 5.33473 46.0625 8.28125 46.0625H13.6719C14.345 46.0625 14.8906 46.6082 14.8906 47.2812C14.8906 47.9543 14.345 48.5 13.6719 48.5H8.28125C3.99069 48.5 0.5 45.0093 0.5 40.7188V35.3281C0.5 34.655 1.04567 34.1094 1.71875 34.1094ZM47.2812 34.1094C47.9543 34.1094 48.5 34.655 48.5 35.3281V40.7188C48.5 45.0093 45.0093 48.5 40.7188 48.5H35.3281C34.655 48.5 34.1094 47.9543 34.1094 47.2812C34.1094 46.6082 34.655 46.0625 35.3281 46.0625H40.7188C43.6653 46.0625 46.0625 43.6653 46.0625 40.7188V35.3281C46.0625 34.655 46.6082 34.1094 47.2812 34.1094ZM31.1934 34.1172C31.7068 33.6431 32.5072 33.6751 32.9814 34.1885C33.4556 34.702 33.4236 35.5023 32.9102 35.9766C30.614 38.0973 27.6275 39.2656 24.5 39.2656C21.3724 39.2656 18.385 38.0975 16.0889 35.9766C15.5756 35.5023 15.5444 34.7019 16.0186 34.1885C16.4929 33.6751 17.2931 33.643 17.8066 34.1172C19.6337 35.8049 22.0109 36.7344 24.5 36.7344C26.9891 36.7343 29.3663 35.8049 31.1934 34.1172ZM25.7656 17.3281C26.4646 17.3281 27.0312 17.8948 27.0312 18.5938V27.5938C27.0312 29.3772 25.5803 30.8281 23.7969 30.8281H22.7656C22.0666 30.8281 21.5 30.2615 21.5 29.5625C21.5 28.8635 22.0666 28.2969 22.7656 28.2969H23.7969C24.1846 28.2969 24.5 27.9815 24.5 27.5938V18.5938C24.5 17.8948 25.0666 17.3281 25.7656 17.3281ZM14.7266 17.3281C15.3867 17.3281 15.9219 17.8633 15.9219 18.5234V22.1328C15.9219 22.793 15.3867 23.3281 14.7266 23.3281C14.0664 23.3281 13.5312 22.793 13.5312 22.1328V18.5234C13.5313 17.8633 14.0664 17.3281 14.7266 17.3281ZM34.5547 17.3281C35.2148 17.3281 35.75 17.8633 35.75 18.5234V22.1328C35.75 22.793 35.2148 23.3281 34.5547 23.3281C33.8945 23.3281 33.3594 22.793 33.3594 22.1328V18.5234C33.3594 17.8633 33.8945 17.3281 34.5547 17.3281ZM13.6719 0.5C14.345 0.5 14.8906 1.04567 14.8906 1.71875C14.8906 2.39183 14.345 2.9375 13.6719 2.9375H8.28125C5.33473 2.9375 2.9375 5.33469 2.9375 8.28125V13.6719C2.9375 14.345 2.39183 14.8906 1.71875 14.8906C1.04567 14.8906 0.5 14.345 0.5 13.6719V8.28125C0.5 3.99064 3.99069 0.5 8.28125 0.5H13.6719ZM40.7188 0.5C45.0093 0.5 48.5 3.99064 48.5 8.28125V13.6719C48.5 14.345 47.9543 14.8906 47.2812 14.8906C46.6082 14.8906 46.0625 14.345 46.0625 13.6719V8.28125C46.0625 5.33469 43.6653 2.9375 40.7188 2.9375H35.3281C34.655 2.9375 34.1094 2.39183 34.1094 1.71875C34.1094 1.04567 34.655 0.5 35.3281 0.5H40.7188Z" fill="#375DFB"/>
<path d="M1.71875 34.1094L1.71875 33.6094H1.71875L1.71875 34.1094ZM2.9375 35.3281L3.4375 35.3281L3.4375 35.3281L2.9375 35.3281ZM8.28125 46.0625L8.28125 46.5625H8.28125V46.0625ZM14.8906 47.2812L15.3906 47.2812L15.3906 47.2812L14.8906 47.2812ZM8.28125 48.5L8.28125 49H8.28125V48.5ZM0.5 35.3281L0 35.3281V35.3281H0.5ZM47.2812 34.1094L47.2812 33.6094L47.2812 33.6094L47.2812 34.1094ZM48.5 35.3281L49 35.3281V35.3281L48.5 35.3281ZM35.3281 48.5L35.3281 49H35.3281V48.5ZM34.1094 47.2812L33.6094 47.2812V47.2812H34.1094ZM35.3281 46.0625L35.3281 45.5625H35.3281L35.3281 46.0625ZM46.0625 35.3281L45.5625 35.3281V35.3281H46.0625ZM31.1934 34.1172L30.8542 33.7498L30.8541 33.7499L31.1934 34.1172ZM32.9814 34.1885L33.3488 33.8493L33.3487 33.8492L32.9814 34.1885ZM32.9102 35.9766L33.2494 36.3439L33.2494 36.3439L32.9102 35.9766ZM24.5 39.2656L24.5 39.7656L24.5 39.7656L24.5 39.2656ZM16.0889 35.9766L15.7495 36.3438L15.7496 36.3439L16.0889 35.9766ZM16.0186 34.1885L15.6513 33.8492L15.6513 33.8492L16.0186 34.1885ZM17.8066 34.1172L18.1459 33.7499L18.1458 33.7498L17.8066 34.1172ZM24.5 36.7344L24.5 37.2344L24.5 37.2344L24.5 36.7344ZM25.7656 17.3281L25.7656 16.8281L25.7656 16.8281L25.7656 17.3281ZM27.0312 18.5938L27.5312 18.5938V18.5937L27.0312 18.5938ZM22.7656 30.8281L22.7656 31.3281H22.7656V30.8281ZM21.5 29.5625L21 29.5625V29.5625H21.5ZM22.7656 28.2969L22.7656 27.7969H22.7656L22.7656 28.2969ZM24.5 18.5938L24 18.5937V18.5938H24.5ZM14.7266 17.3281L14.7266 16.8281H14.7266L14.7266 17.3281ZM15.9219 18.5234L16.4219 18.5234V18.5234L15.9219 18.5234ZM14.7266 23.3281L14.7266 23.8281H14.7266V23.3281ZM13.5312 18.5234L13.0312 18.5234V18.5234H13.5312ZM34.5547 17.3281L34.5547 16.8281H34.5547L34.5547 17.3281ZM35.75 18.5234L36.25 18.5234V18.5234L35.75 18.5234ZM34.5547 23.3281L34.5547 23.8281H34.5547V23.3281ZM33.3594 18.5234L32.8594 18.5234V18.5234H33.3594ZM14.8906 1.71875L15.3906 1.71875V1.71875L14.8906 1.71875ZM8.28125 2.9375L8.28125 2.4375L8.28125 2.4375L8.28125 2.9375ZM2.9375 8.28125L2.4375 8.28125V8.28125H2.9375ZM1.71875 14.8906L1.71875 15.3906H1.71875V14.8906ZM0.5 8.28125L0 8.28125V8.28125H0.5ZM8.28125 0.5L8.28125 0L8.28125 0L8.28125 0.5ZM48.5 8.28125L49 8.28125V8.28125L48.5 8.28125ZM47.2812 14.8906L47.2812 15.3906H47.2812V14.8906ZM46.0625 8.28125L46.5625 8.28125V8.28125L46.0625 8.28125ZM35.3281 2.9375L35.3281 3.4375H35.3281V2.9375ZM34.1094 1.71875L33.6094 1.71875V1.71875H34.1094ZM35.3281 0.5L35.3281 0L35.3281 0L35.3281 0.5ZM1.71875 34.1094V34.6094C2.11569 34.6094 2.4375 34.9312 2.4375 35.3281L2.9375 35.3281L3.4375 35.3281C3.4375 34.3789 2.66797 33.6094 1.71875 33.6094V34.1094ZM2.9375 35.3281H2.4375V40.7188H2.9375H3.4375V35.3281H2.9375ZM2.9375 40.7188H2.4375C2.4375 43.9414 5.05859 46.5625 8.28125 46.5625L8.28125 46.0625L8.28125 45.5625C5.61088 45.5625 3.4375 43.3891 3.4375 40.7188H2.9375ZM8.28125 46.0625V46.5625H13.6719V46.0625V45.5625H8.28125V46.0625ZM13.6719 46.0625V46.5625C14.0688 46.5625 14.3906 46.8843 14.3906 47.2813L14.8906 47.2812L15.3906 47.2812C15.3906 46.332 14.6211 45.5625 13.6719 45.5625V46.0625ZM14.8906 47.2812H14.3906C14.3906 47.6782 14.0688 48 13.6719 48V48.5V49C14.6211 49 15.3906 48.2305 15.3906 47.2812H14.8906ZM13.6719 48.5V48H8.28125V48.5V49H13.6719V48.5ZM8.28125 48.5L8.28125 48C4.26683 48 1 44.7332 1 40.7188H0.5H0C0 45.2855 3.71454 49 8.28125 49L8.28125 48.5ZM0.5 40.7188H1V35.3281H0.5H0V40.7188H0.5ZM0.5 35.3281L1 35.3281C1 34.9312 1.32181 34.6094 1.71875 34.6094L1.71875 34.1094L1.71875 33.6094C0.769529 33.6094 2.7685e-08 34.3789 0 35.3281L0.5 35.3281ZM47.2812 34.1094V34.6094C47.6782 34.6094 48 34.9312 48 35.3281L48.5 35.3281L49 35.3281C49 34.3789 48.2305 33.6094 47.2812 33.6094V34.1094ZM48.5 35.3281H48V40.7188H48.5H49V35.3281H48.5ZM48.5 40.7188H48C48 44.7332 44.7332 48 40.7188 48V48.5V49C45.2855 49 49 45.2855 49 40.7188H48.5ZM40.7188 48.5V48H35.3281V48.5V49H40.7188V48.5ZM35.3281 48.5L35.3281 48C34.9312 48 34.6094 47.6782 34.6094 47.2812H34.1094H33.6094C33.6094 48.2305 34.3789 49 35.3281 49L35.3281 48.5ZM34.1094 47.2812L34.6094 47.2813C34.6094 46.8843 34.9312 46.5625 35.3281 46.5625L35.3281 46.0625L35.3281 45.5625C34.3789 45.5625 33.6094 46.332 33.6094 47.2812L34.1094 47.2812ZM35.3281 46.0625V46.5625H40.7188V46.0625V45.5625H35.3281V46.0625ZM40.7188 46.0625V46.5625C43.9414 46.5625 46.5625 43.9414 46.5625 40.7188H46.0625H45.5625C45.5625 43.3891 43.3891 45.5625 40.7188 45.5625V46.0625ZM46.0625 40.7188H46.5625V35.3281H46.0625H45.5625V40.7188H46.0625ZM46.0625 35.3281L46.5625 35.3281C46.5625 34.9312 46.8843 34.6094 47.2813 34.6094L47.2812 34.1094L47.2812 33.6094C46.332 33.6094 45.5625 34.3789 45.5625 35.3281L46.0625 35.3281ZM31.1934 34.1172L31.5325 34.4845C31.8431 34.1978 32.3271 34.217 32.6142 34.5278L32.9814 34.1885L33.3487 33.8492C32.6872 33.1331 31.5706 33.0883 30.8542 33.7498L31.1934 34.1172ZM32.9814 34.1885L32.6141 34.5277C32.9008 34.8382 32.8816 35.3223 32.5709 35.6093L32.9102 35.9766L33.2494 36.3439C33.9656 35.6824 34.0104 34.5657 33.3488 33.8493L32.9814 34.1885ZM32.9102 35.9766L32.5709 35.6093C30.3672 37.6447 27.5018 38.7656 24.5 38.7656L24.5 39.2656L24.5 39.7656C27.7532 39.7656 30.8609 38.5499 33.2494 36.3439L32.9102 35.9766ZM24.5 39.2656V38.7656C21.498 38.7656 18.6319 37.6448 16.4281 35.6093L16.0889 35.9766L15.7496 36.3439C18.1382 38.5501 21.2467 39.7656 24.5 39.7656V39.2656ZM16.0889 35.9766L16.4282 35.6093C16.1179 35.3227 16.0988 34.8386 16.3859 34.5277L16.0186 34.1885L15.6513 33.8492C14.99 34.5652 15.0332 35.6819 15.7495 36.3438L16.0889 35.9766ZM16.0186 34.1885L16.3858 34.5278C16.6729 34.217 17.1569 34.1978 17.4674 34.4845L17.8066 34.1172L18.1458 33.7498C17.4293 33.0882 16.3128 33.1331 15.6513 33.8492L16.0186 34.1885ZM17.8066 34.1172L17.4674 34.4845C19.3869 36.2576 21.8852 37.2344 24.5 37.2344V36.7344V36.2344C22.1365 36.2344 19.8805 35.3522 18.1459 33.7499L17.8066 34.1172ZM24.5 36.7344L24.5 37.2344C27.1147 37.2343 29.6131 36.2575 31.5326 34.4845L31.1934 34.1172L30.8541 33.7499C29.1195 35.3522 26.8634 36.2343 24.5 36.2344L24.5 36.7344ZM25.7656 17.3281V17.8281C26.1885 17.8281 26.5312 18.1709 26.5312 18.5938L27.0312 18.5938L27.5312 18.5937C27.5312 17.6186 26.7408 16.8281 25.7656 16.8281V17.3281ZM27.0312 18.5938H26.5312V27.5938H27.0312H27.5312V18.5938H27.0312ZM27.0312 27.5938H26.5312C26.5312 29.1011 25.3042 30.3281 23.7969 30.3281V30.8281V31.3281C25.8565 31.3281 27.5312 29.6533 27.5312 27.5938H27.0312ZM23.7969 30.8281V30.3281H22.7656V30.8281V31.3281H23.7969V30.8281ZM22.7656 30.8281L22.7656 30.3281C22.3428 30.3281 22 29.9854 22 29.5625H21.5H21C21 30.5376 21.7905 31.3281 22.7656 31.3281L22.7656 30.8281ZM21.5 29.5625L22 29.5625C22 29.1396 22.3428 28.7969 22.7656 28.7969L22.7656 28.2969L22.7656 27.7969C21.7905 27.7969 21 28.5874 21 29.5625L21.5 29.5625ZM22.7656 28.2969V28.7969H23.7969V28.2969V27.7969H22.7656V28.2969ZM23.7969 28.2969V28.7969C24.4607 28.7969 25 28.2576 25 27.5938H24.5H24C24 27.7053 23.9084 27.7969 23.7969 27.7969V28.2969ZM24.5 27.5938H25V18.5938H24.5H24V27.5938H24.5ZM24.5 18.5938L25 18.5938C25 18.1709 25.3428 17.8281 25.7656 17.8281L25.7656 17.3281L25.7656 16.8281C24.7905 16.8281 24 17.6186 24 18.5937L24.5 18.5938ZM14.7266 17.3281V17.8281C15.1106 17.8281 15.4219 18.1394 15.4219 18.5234L15.9219 18.5234L16.4219 18.5234C16.4219 17.5872 15.6628 16.8281 14.7266 16.8281V17.3281ZM15.9219 18.5234H15.4219V22.1328H15.9219H16.4219V18.5234H15.9219ZM15.9219 22.1328H15.4219C15.4219 22.5168 15.1106 22.8281 14.7266 22.8281V23.3281V23.8281C15.6628 23.8281 16.4219 23.0691 16.4219 22.1328H15.9219ZM14.7266 23.3281L14.7266 22.8281C14.3426 22.8281 14.0312 22.5168 14.0312 22.1328H13.5312H13.0312C13.0312 23.0691 13.7903 23.8281 14.7266 23.8281L14.7266 23.3281ZM13.5312 22.1328H14.0312V18.5234H13.5312H13.0312V22.1328H13.5312ZM13.5312 18.5234L14.0312 18.5234C14.0313 18.1394 14.3426 17.8281 14.7266 17.8281L14.7266 17.3281L14.7266 16.8281C13.7903 16.8281 13.0313 17.5872 13.0312 18.5234L13.5312 18.5234ZM34.5547 17.3281V17.8281C34.9387 17.8281 35.25 18.1394 35.25 18.5234L35.75 18.5234L36.25 18.5234C36.25 17.5872 35.491 16.8281 34.5547 16.8281V17.3281ZM35.75 18.5234H35.25V22.1328H35.75H36.25V18.5234H35.75ZM35.75 22.1328H35.25C35.25 22.5168 34.9387 22.8281 34.5547 22.8281V23.3281V23.8281C35.491 23.8281 36.25 23.0691 36.25 22.1328H35.75ZM34.5547 23.3281L34.5547 22.8281C34.1707 22.8281 33.8594 22.5168 33.8594 22.1328H33.3594H32.8594C32.8594 23.0691 33.6184 23.8281 34.5547 23.8281L34.5547 23.3281ZM33.3594 22.1328H33.8594V18.5234H33.3594H32.8594V22.1328H33.3594ZM33.3594 18.5234L33.8594 18.5234C33.8594 18.1394 34.1707 17.8281 34.5547 17.8281L34.5547 17.3281L34.5547 16.8281C33.6184 16.8281 32.8594 17.5872 32.8594 18.5234L33.3594 18.5234ZM13.6719 0.5V1C14.0688 1 14.3906 1.32181 14.3906 1.71875L14.8906 1.71875L15.3906 1.71875C15.3906 0.769529 14.6211 0 13.6719 0V0.5ZM14.8906 1.71875H14.3906C14.3906 2.11569 14.0688 2.4375 13.6719 2.4375V2.9375V3.4375C14.6211 3.4375 15.3906 2.66797 15.3906 1.71875H14.8906ZM13.6719 2.9375V2.4375H8.28125V2.9375V3.4375H13.6719V2.9375ZM8.28125 2.9375L8.28125 2.4375C5.05859 2.4375 2.4375 5.05854 2.4375 8.28125L2.9375 8.28125L3.4375 8.28125C3.4375 5.61083 5.61087 3.4375 8.28125 3.4375L8.28125 2.9375ZM2.9375 8.28125H2.4375V13.6719H2.9375H3.4375V8.28125H2.9375ZM2.9375 13.6719H2.4375C2.4375 14.0688 2.11569 14.3906 1.71875 14.3906V14.8906V15.3906C2.66797 15.3906 3.4375 14.6211 3.4375 13.6719H2.9375ZM1.71875 14.8906L1.71875 14.3906C1.32181 14.3906 1 14.0688 1 13.6719H0.5H0C0 14.6211 0.769529 15.3906 1.71875 15.3906L1.71875 14.8906ZM0.5 13.6719H1V8.28125H0.5H0V13.6719H0.5ZM0.5 8.28125L1 8.28125C1 4.26679 4.26683 1 8.28125 1L8.28125 0.5L8.28125 0C3.71455 1.33872e-07 1.33876e-07 3.7145 0 8.28125L0.5 8.28125ZM8.28125 0.5V1H13.6719V0.5V0H8.28125V0.5ZM40.7188 0.5V1C44.7332 1 48 4.26678 48 8.28125L48.5 8.28125L49 8.28125C49 3.7145 45.2855 0 40.7188 0V0.5ZM48.5 8.28125H48V13.6719H48.5H49V8.28125H48.5ZM48.5 13.6719H48C48 14.0688 47.6782 14.3906 47.2812 14.3906V14.8906V15.3906C48.2305 15.3906 49 14.6211 49 13.6719H48.5ZM47.2812 14.8906L47.2813 14.3906C46.8843 14.3906 46.5625 14.0688 46.5625 13.6719H46.0625H45.5625C45.5625 14.6211 46.332 15.3906 47.2812 15.3906L47.2812 14.8906ZM46.0625 13.6719H46.5625V8.28125H46.0625H45.5625V13.6719H46.0625ZM46.0625 8.28125L46.5625 8.28125C46.5625 5.05854 43.9414 2.4375 40.7188 2.4375V2.9375V3.4375C43.3891 3.4375 45.5625 5.61083 45.5625 8.28125L46.0625 8.28125ZM40.7188 2.9375V2.4375H35.3281V2.9375V3.4375H40.7188V2.9375ZM35.3281 2.9375L35.3281 2.4375C34.9312 2.4375 34.6094 2.11569 34.6094 1.71875H34.1094H33.6094C33.6094 2.66797 34.3789 3.4375 35.3281 3.4375L35.3281 2.9375ZM34.1094 1.71875L34.6094 1.71875C34.6094 1.32181 34.9312 1 35.3281 1L35.3281 0.5L35.3281 0C34.3789 2.76848e-08 33.6094 0.769529 33.6094 1.71875L34.1094 1.71875ZM35.3281 0.5V1H40.7188V0.5V0H35.3281V0.5Z" fill="#375DFB" mask="url(#path-1-outside-1_608_9563)"/>
</svg>
