<svg width="15" height="15" viewBox="0 0 15 15" fill="none" xmlns="http://www.w3.org/2000/svg">
<path d="M8.41568 1.20004C9.01578 1.20007 9.6077 1.33912 10.145 1.60628C10.6824 1.87343 11.1505 2.26143 11.5128 2.73986C11.875 3.21828 12.1215 3.77411 12.2329 4.36377C12.3443 4.95343 12.3176 5.56089 12.1549 6.1385C11.9922 6.71611 11.6979 7.24817 11.2951 7.69296C10.8922 8.13775 10.3918 8.48318 9.83313 8.70215C9.27442 8.92113 8.67257 9.0077 8.07479 8.95508C7.47701 8.90245 6.89955 8.71206 6.38768 8.39884C6.30548 8.34784 6.19568 8.40544 6.19568 8.50264V9.18004C6.19568 9.41874 6.10086 9.64766 5.93208 9.81644C5.7633 9.98522 5.53438 10.08 5.29568 10.08H4.57568C4.41655 10.08 4.26394 10.1433 4.15142 10.2558C4.0389 10.3683 3.97568 10.5209 3.97568 10.68V11.4C3.97568 11.6387 3.88086 11.8677 3.71208 12.0364C3.5433 12.2052 3.31438 12.3 3.07568 12.3H2.10068C1.86199 12.3 1.63307 12.2052 1.46429 12.0364C1.2955 11.8677 1.20068 11.6387 1.20068 11.4V10.0218C1.20075 9.70361 1.32722 9.39843 1.55228 9.17344L4.29188 6.43384C4.51748 6.20824 4.59848 5.88004 4.55948 5.56264C4.4918 5.01626 4.54102 4.46173 4.70389 3.93581C4.86675 3.40988 5.13954 2.92459 5.50416 2.51207C5.86879 2.09956 6.31693 1.76927 6.81888 1.54307C7.32083 1.31687 7.86512 1.19995 8.41568 1.20004Z" stroke="#375DFB" stroke-linejoin="round"/>
<path d="M9.15059 5.14999C9.59241 5.14999 9.95059 4.79182 9.95059 4.34999C9.95059 3.90816 9.59241 3.54999 9.15059 3.54999C8.70876 3.54999 8.35059 3.90816 8.35059 4.34999C8.35059 4.79182 8.70876 5.14999 9.15059 5.14999Z" fill="#375DFB"/>
</svg>
