<svg width="20" height="20" viewBox="0 0 20 20" fill="none" xmlns="http://www.w3.org/2000/svg">
<path d="M2.9165 9.16669V11.6667C2.9165 14.8092 2.9165 16.3809 3.89317 17.3567C4.86984 18.3325 6.44067 18.3334 9.58317 18.3334H10.4165C13.559 18.3334 15.1307 18.3334 16.1065 17.3567C17.0823 16.38 17.0832 14.8092 17.0832 11.6667V9.16669" stroke="#375DFB" stroke-width="1.2"/>
<path d="M7.91667 1.66669H12.0833L12.6267 7.09752C12.6625 7.46399 12.6212 7.8339 12.5055 8.18346C12.3898 8.53302 12.2022 8.8545 11.9548 9.12723C11.7074 9.39996 11.4057 9.6179 11.069 9.76705C10.7324 9.9162 10.3682 9.99325 10 9.99325C9.63179 9.99325 9.26765 9.9162 8.931 9.76705C8.59434 9.6179 8.29262 9.39996 8.04523 9.12723C7.79784 8.8545 7.61026 8.53302 7.49455 8.18346C7.37883 7.8339 7.33754 7.46399 7.37334 7.09752L7.91667 1.66669Z" stroke="#375DFB" stroke-width="1.2"/>
<path d="M2.77486 4.45919C2.92319 3.71752 2.99736 3.34669 3.14819 3.04585C3.30535 2.73255 3.52664 2.4558 3.79769 2.23356C4.06874 2.01132 4.3835 1.84857 4.72152 1.75585C5.04652 1.66669 5.42486 1.66669 6.18152 1.66669H7.91652L7.31236 7.70419C7.28047 8.04971 7.17841 8.38509 7.0124 8.6898C6.8464 8.99451 6.61996 9.26213 6.34693 9.47629C6.07391 9.69044 5.76005 9.84662 5.42457 9.93526C5.08909 10.0239 4.73905 10.0431 4.39588 9.99181C4.0527 9.94047 3.72362 9.81964 3.42876 9.6367C3.13391 9.45376 2.8795 9.21257 2.6811 8.9279C2.48269 8.64322 2.34448 8.32105 2.27492 7.9811C2.20535 7.64115 2.2059 7.29058 2.27652 6.95085L2.77486 4.45919ZM17.2249 4.45919C17.0765 3.71752 17.0024 3.34669 16.8515 3.04585C16.6944 2.73255 16.4731 2.4558 16.202 2.23356C15.931 2.01132 15.6162 1.84857 15.2782 1.75585C14.9532 1.66669 14.5749 1.66669 13.8182 1.66669H12.0832L12.6874 7.70419C12.7192 8.04971 12.8213 8.38509 12.9873 8.6898C13.1533 8.99451 13.3798 9.26213 13.6528 9.47629C13.9258 9.69044 14.2397 9.84662 14.5751 9.93526C14.9106 10.0239 15.2607 10.0431 15.6038 9.99181C15.947 9.94047 16.2761 9.81964 16.5709 9.6367C16.8658 9.45376 17.1202 9.21257 17.3186 8.9279C17.517 8.64322 17.6552 8.32105 17.7248 7.9811C17.7944 7.64115 17.7938 7.29058 17.7232 6.95085L17.2249 4.45919Z" stroke="#375DFB" stroke-width="1.2"/>
<path d="M7.9165 17.9167V15.4167C7.9165 14.6375 7.9165 14.2484 8.084 13.9584C8.19371 13.7684 8.3515 13.6106 8.5415 13.5009C8.8315 13.3334 9.22067 13.3334 9.99984 13.3334C10.779 13.3334 11.1682 13.3334 11.4582 13.5009C11.6482 13.6106 11.806 13.7684 11.9157 13.9584C12.0832 14.2484 12.0832 14.6375 12.0832 15.4167V17.9167" stroke="#375DFB" stroke-width="1.2" stroke-linecap="round"/>
</svg>
