<svg width="14" height="14" viewBox="0 0 14 14" fill="none" xmlns="http://www.w3.org/2000/svg">
<path d="M5.15175 5.82937C6.64917 5.82937 7.86306 4.61547 7.86306 3.11806C7.86306 1.62064 6.64917 0.406738 5.15175 0.406738C3.65433 0.406738 2.44043 1.62064 2.44043 3.11806C2.44043 4.61547 3.65433 5.82937 5.15175 5.82937Z" stroke="#856023" stroke-width="0.813395" stroke-linecap="round" stroke-linejoin="round"/>
<path d="M5.35489 8.54057H3.11806C2.39897 8.54057 1.70934 8.82622 1.20086 9.3347C0.692394 9.84317 0.406738 10.5328 0.406738 11.2519V12.6075M8.54069 8.87948V7.86274C8.54069 7.5032 8.68352 7.15838 8.93775 6.90414C9.19199 6.64991 9.53681 6.50708 9.89635 6.50708C10.2559 6.50708 10.6007 6.64991 10.8549 6.90414C11.1092 7.15838 11.252 7.5032 11.252 7.86274V8.87948" stroke="#856023" stroke-width="0.813395" stroke-linecap="round" stroke-linejoin="round"/>
<path d="M11.9983 9.21851H7.79443C7.45788 9.21851 7.18506 9.49133 7.18506 9.82787V11.9983C7.18506 12.3348 7.45788 12.6077 7.79443 12.6077H11.9983C12.3349 12.6077 12.6077 12.3348 12.6077 11.9983V9.82787C12.6077 9.49133 12.3349 9.21851 11.9983 9.21851Z" stroke="#856023" stroke-width="0.813395" stroke-linecap="round" stroke-linejoin="round"/>
</svg>
