<svg width="20" height="20" viewBox="0 0 20 20" fill="none" xmlns="http://www.w3.org/2000/svg">
<path d="M16.6668 5.83366V14.167C16.6668 17.5003 15.8335 18.3337 12.5002 18.3337H7.50016C4.16683 18.3337 3.3335 17.5003 3.3335 14.167V5.83366C3.3335 2.50033 4.16683 1.66699 7.50016 1.66699H12.5002C15.8335 1.66699 16.6668 2.50033 16.6668 5.83366Z" stroke="#1B4DAA" stroke-width="1.25" stroke-linecap="round" stroke-linejoin="round"/>
<path d="M11.6668 4.58398H8.3335" stroke="#1B4DAA" stroke-width="1.25" stroke-linecap="round" stroke-linejoin="round"/>
<path d="M10.0002 15.9173C10.7135 15.9173 11.2918 15.339 11.2918 14.6257C11.2918 13.9123 10.7135 13.334 10.0002 13.334C9.2868 13.334 8.7085 13.9123 8.7085 14.6257C8.7085 15.339 9.2868 15.9173 10.0002 15.9173Z" stroke="#1B4DAA" stroke-width="1.25" stroke-linecap="round" stroke-linejoin="round"/>
</svg>
