<svg width="15" height="15" viewBox="0 0 15 15" fill="none" xmlns="http://www.w3.org/2000/svg">
<path d="M9.37508 9.68744C9.37508 9.35869 9.43133 9.04307 9.53508 8.74994H3.9082C3.53535 8.74994 3.17776 8.89801 2.91406 9.1616C2.65035 9.42519 2.50212 9.78271 2.50195 10.1556V10.5162C2.50195 11.0743 2.70195 11.6137 3.06445 12.0381C3.9357 13.0599 5.21508 13.6206 6.87508 13.7312V13.0718C6.87508 12.9776 6.8855 12.8849 6.90633 12.7937C5.50133 12.6956 4.46633 12.2374 3.77695 11.4299C3.55947 11.1756 3.4398 10.8521 3.43945 10.5174V10.1562C3.43945 10.0319 3.48884 9.91264 3.57675 9.82473C3.66465 9.73683 3.78388 9.68744 3.9082 9.68744H9.37508ZM7.50008 1.25244C8.32888 1.25244 9.12374 1.58168 9.70979 2.16773C10.2958 2.75378 10.6251 3.54864 10.6251 4.37744C10.6251 5.20624 10.2958 6.0011 9.70979 6.58715C9.12374 7.1732 8.32888 7.50244 7.50008 7.50244C6.67128 7.50244 5.87642 7.1732 5.29037 6.58715C4.70432 6.0011 4.37508 5.20624 4.37508 4.37744C4.37508 3.54864 4.70432 2.75378 5.29037 2.16773C5.87642 1.58168 6.67128 1.25244 7.50008 1.25244ZM7.50008 2.18994C6.91992 2.18994 6.36352 2.42041 5.95328 2.83065C5.54305 3.24088 5.31258 3.79728 5.31258 4.37744C5.31258 4.9576 5.54305 5.514 5.95328 5.92424C6.36352 6.33447 6.91992 6.56494 7.50008 6.56494C8.08024 6.56494 8.63664 6.33447 9.04687 5.92424C9.45711 5.514 9.68758 4.9576 9.68758 4.37744C9.68758 3.79728 9.45711 3.24088 9.04687 2.83065C8.63664 2.42041 8.08024 2.18994 7.50008 2.18994ZM12.1876 11.8749C12.6441 11.8748 13.0891 11.7318 13.4603 11.466C13.8315 11.2003 14.1102 10.825 14.2574 10.3929C14.4046 9.9608 14.413 9.49345 14.2813 9.05635C14.1496 8.61925 13.8844 8.23431 13.523 7.95546C13.1615 7.67661 12.7219 7.51783 12.2657 7.50136C11.8095 7.4849 11.3595 7.61158 10.9789 7.86364C10.5983 8.11571 10.3061 8.48054 10.1432 8.90701C9.98038 9.33347 9.95501 9.80021 10.0707 10.2418L7.6832 12.6293C7.56599 12.7465 7.50011 12.9054 7.50008 13.0712V14.0624C7.50008 14.1453 7.533 14.2248 7.59161 14.2834C7.65021 14.342 7.7297 14.3749 7.81258 14.3749H9.06258C9.14546 14.3749 9.22494 14.342 9.28355 14.2834C9.34215 14.2248 9.37508 14.1453 9.37508 14.0624V13.7499H10.0001C10.083 13.7499 10.1624 13.717 10.221 13.6584C10.2797 13.5998 10.3126 13.5203 10.3126 13.4374V12.8124H10.9376C11.0205 12.8124 11.0999 12.7795 11.1585 12.7209C11.2172 12.6623 11.2501 12.5828 11.2501 12.4999V11.8749H12.1876ZM12.5001 8.74994C12.6658 8.74994 12.8248 8.81579 12.942 8.933C13.0592 9.05021 13.1251 9.20918 13.1251 9.37494C13.1251 9.5407 13.0592 9.69967 12.942 9.81688C12.8248 9.93409 12.6658 9.99994 12.5001 9.99994C12.3343 9.99994 12.1753 9.93409 12.0581 9.81688C11.9409 9.69967 11.8751 9.5407 11.8751 9.37494C11.8751 9.20918 11.9409 9.05021 12.0581 8.933C12.1753 8.81579 12.3343 8.74994 12.5001 8.74994Z" fill="#375DFB"/>
</svg>
