<svg width="14" height="14" viewBox="0 0 14 14" fill="none" xmlns="http://www.w3.org/2000/svg">
<path d="M10.8624 7.0705L12.1002 5.83325M12.1002 5.83325L13.3375 4.596M12.1002 5.83325L10.8618 4.596M12.1002 5.83325L13.3375 7.0705M0.583496 11.6666V11.0833C0.583496 10.0003 1.0137 8.96167 1.77948 8.1959C2.54525 7.43013 3.58386 6.99992 4.66683 6.99992M4.66683 6.99992C5.7498 6.99992 6.78841 7.43013 7.55418 8.1959C8.31996 8.96167 8.75016 10.0003 8.75016 11.0833V11.6666M4.66683 6.99992C5.28567 6.99992 5.87916 6.75409 6.31675 6.3165C6.75433 5.87892 7.00016 5.28542 7.00016 4.66659C7.00016 4.04775 6.75433 3.45425 6.31675 3.01667C5.87916 2.57908 5.28567 2.33325 4.66683 2.33325C4.04799 2.33325 3.4545 2.57908 3.01691 3.01667C2.57933 3.45425 2.3335 4.04775 2.3335 4.66659C2.3335 5.28542 2.57933 5.87892 3.01691 6.3165C3.4545 6.75409 4.04799 6.99992 4.66683 6.99992Z" stroke="#9E142E" stroke-linecap="round" stroke-linejoin="round"/>
</svg>
