<svg width="20" height="20" viewBox="0 0 20 20" fill="none" xmlns="http://www.w3.org/2000/svg">
<path d="M8.7418 1.85879L4.58346 3.42546C3.62513 3.78379 2.8418 4.91712 2.8418 5.93379V12.1255C2.8418 13.1088 3.4918 14.4005 4.28346 14.9921L7.8668 17.6671C9.0418 18.5505 10.9751 18.5505 12.1501 17.6671L15.7335 14.9921C16.5251 14.4005 17.1751 13.1088 17.1751 12.1255V5.93379C17.1751 4.90879 16.3918 3.77546 15.4335 3.41712L11.2751 1.85879C10.5668 1.60046 9.43346 1.60046 8.7418 1.85879Z" stroke="#1F1F1F" stroke-width="1.25" stroke-linecap="round" stroke-linejoin="round"/>
<path d="M10.0002 10.4163C10.9206 10.4163 11.6668 9.67015 11.6668 8.74967C11.6668 7.8292 10.9206 7.08301 10.0002 7.08301C9.07969 7.08301 8.3335 7.8292 8.3335 8.74967C8.3335 9.67015 9.07969 10.4163 10.0002 10.4163Z" stroke="#1F1F1F" stroke-width="1.25" stroke-miterlimit="10" stroke-linecap="round" stroke-linejoin="round"/>
<path d="M10 10.417V12.917" stroke="#1F1F1F" stroke-width="1.25" stroke-miterlimit="10" stroke-linecap="round" stroke-linejoin="round"/>
</svg>
