<svg width="32" height="32" viewBox="0 0 32 32" fill="none" xmlns="http://www.w3.org/2000/svg">
<path d="M5.62614 14.52V27.8534" stroke="#266DF0" stroke-width="2" stroke-linecap="round" stroke-linejoin="round"/>
<path d="M26.3737 14.52V27.8534" stroke="#266DF0" stroke-width="2" stroke-linecap="round" stroke-linejoin="round"/>
<path d="M18.9629 27.8524V21.927C18.9629 20.291 17.6363 18.9644 16.0003 18.9644C14.3643 18.9644 13.0376 20.291 13.0376 21.927V27.8524" stroke="#266DF0" stroke-width="2" stroke-linecap="round" stroke-linejoin="round"/>
<path d="M2.6665 27.8537H29.3332" stroke="#266DF0" stroke-width="2" stroke-linecap="round" stroke-linejoin="round"/>
<path fill-rule="evenodd" clip-rule="evenodd" d="M5.73395 14.5186C3.46995 14.5026 1.99395 12.2613 2.97528 10.3293L5.26195 5.82662C5.78328 4.79995 6.87928 4.14795 8.08195 4.14795H23.9166C25.1193 4.14795 26.2153 4.79995 26.7366 5.82662L29.0246 10.3293C30.0059 12.2613 28.5299 14.5026 26.2659 14.5186C24.3766 14.5186 22.8446 13.2279 22.8446 11.6346V11.5706C22.8446 13.1986 21.3126 14.5186 19.4233 14.5186C17.534 14.5186 16.002 13.1986 16.002 11.5706C16.002 13.1986 14.47 14.5186 12.5806 14.5186C10.6913 14.5186 9.15928 13.1986 9.15928 11.5706V11.6346C9.15528 13.2279 7.62328 14.5186 5.73395 14.5186Z" stroke="#266DF0" stroke-width="2" stroke-linecap="round" stroke-linejoin="round"/>
</svg>
