<svg width="20" height="20" viewBox="0 0 20 20" fill="none" xmlns="http://www.w3.org/2000/svg">
<g clip-path="url(#clip0_672_8466)">
<path d="M11.7678 8.98223C12.7441 9.95854 12.7441 11.5415 11.7678 12.5178C10.7915 13.4941 9.20854 13.4941 8.23223 12.5178C7.25592 11.5415 7.25592 9.95854 8.23223 8.98223C9.20854 8.00592 10.7915 8.00592 11.7678 8.98223" stroke="#375DFB" stroke-width="1.5" stroke-linecap="round" stroke-linejoin="round"/>
<path d="M17.2538 2.98223C18.2302 3.95854 18.2302 5.54145 17.2538 6.51776C16.2775 7.49407 14.6946 7.49407 13.7183 6.51776C12.742 5.54145 12.742 3.95854 13.7183 2.98223C14.6946 2.00592 16.2775 2.00592 17.2538 2.98223" stroke="#375DFB" stroke-width="1.5" stroke-linecap="round" stroke-linejoin="round"/>
<path d="M16 10.25C17.533 10.25 19 10.783 20 11.583" stroke="#375DFB" stroke-width="1.5" stroke-linecap="round" stroke-linejoin="round"/>
<path d="M6.28168 2.98223C7.25799 3.95854 7.25799 5.54145 6.28168 6.51776C5.30537 7.49407 3.72246 7.49407 2.74615 6.51776C1.76984 5.54145 1.76984 3.95854 2.74615 2.98223C3.72246 2.00592 5.30537 2.00592 6.28168 2.98223" stroke="#375DFB" stroke-width="1.5" stroke-linecap="round" stroke-linejoin="round"/>
<path d="M0 11.583C1 10.783 2.467 10.25 4 10.25" stroke="#375DFB" stroke-width="1.5" stroke-linecap="round" stroke-linejoin="round"/>
<path d="M14.5909 17.75C13.4259 16.849 11.7519 16.25 9.99994 16.25C8.24794 16.25 6.57394 16.849 5.40894 17.75" stroke="#375DFB" stroke-width="1.5" stroke-linecap="round" stroke-linejoin="round"/>
</g>
<defs>
<clipPath id="clip0_672_8466">
<rect width="20" height="20" fill="white"/>
</clipPath>
</defs>
</svg>
