<svg width="15" height="15" viewBox="0 0 15 15" fill="none" xmlns="http://www.w3.org/2000/svg">
<g clip-path="url(#clip0_729_8448)">
<path d="M4.7251 2.63904C5.46237 2.63913 6.17997 2.87635 6.77197 3.3158C7.36403 3.75532 7.79875 4.37366 8.01221 5.07947C8.22563 5.78523 8.20675 6.54082 7.95752 7.23474C7.72083 7.89361 7.28665 8.46088 6.71826 8.86658C7.77693 9.28122 8.68079 10.0162 9.30127 10.9711L9.30225 10.972C9.37373 11.0852 9.39711 11.2221 9.36865 11.3529C9.34012 11.4838 9.26116 11.599 9.14893 11.6722C9.03679 11.7452 8.90016 11.7711 8.76904 11.7445C8.63793 11.7178 8.52253 11.6406 8.44775 11.5297L8.44678 11.5287C8.04365 10.9087 7.4923 10.399 6.84229 10.0463C6.19235 9.69361 5.46454 9.50923 4.7251 9.50916C3.98551 9.50916 3.25699 9.69354 2.60693 10.0463C1.95695 10.399 1.40555 10.9087 1.00244 11.5287L1.00146 11.5277C0.965393 11.5846 0.918987 11.6346 0.86377 11.6732C0.808489 11.7119 0.746083 11.7389 0.680176 11.7533C0.614138 11.7677 0.545479 11.7694 0.479004 11.7572C0.412666 11.745 0.348983 11.7198 0.29248 11.683C0.236071 11.6462 0.187801 11.598 0.149902 11.5424C0.111931 11.4864 0.0852247 11.423 0.0717773 11.3568C0.0583356 11.2906 0.058618 11.2219 0.0717773 11.1556C0.0849307 11.0897 0.110493 11.0269 0.147949 10.9711L0.271973 10.7894C0.885895 9.92318 1.73996 9.25454 2.72998 8.86658C2.16195 8.46091 1.72829 7.89333 1.4917 7.23474C1.24248 6.54084 1.22361 5.78521 1.43701 5.07947C1.65046 4.37369 2.08522 3.75532 2.67725 3.3158C3.26937 2.87626 3.98767 2.63904 4.7251 2.63904ZM8.40088 2.88416C9.18902 2.57033 10.066 2.55907 10.8618 2.85291C11.658 3.14696 12.3174 3.72564 12.7124 4.47693C13.1074 5.22843 13.2099 6.10045 13.0005 6.92322C12.8002 7.70967 12.3256 8.39483 11.6675 8.8656C12.7266 9.28018 13.6308 10.0158 14.2515 10.9711C14.3253 11.0843 14.3506 11.2225 14.3228 11.3549C14.2949 11.4871 14.2162 11.6032 14.103 11.6771C13.9898 11.751 13.8515 11.7772 13.7192 11.7494C13.5869 11.7215 13.4709 11.6419 13.397 11.5287C12.9943 10.9083 12.4427 10.3979 11.7925 10.0453C11.1424 9.69283 10.4138 9.50914 9.67432 9.51013C9.53919 9.51004 9.40953 9.45627 9.31396 9.36072C9.21841 9.26517 9.16465 9.13549 9.16455 9.00037C9.16455 8.86511 9.21832 8.73468 9.31396 8.63904C9.40952 8.54355 9.53924 8.48972 9.67432 8.48962C10.0298 8.48929 10.3811 8.41082 10.7026 8.25916C11.0243 8.10736 11.3093 7.88602 11.5356 7.61169C11.7618 7.33751 11.9243 7.01661 12.0122 6.67224C12.1001 6.32765 12.1107 5.96774 12.0435 5.61853C11.9762 5.26931 11.8331 4.93905 11.6235 4.65173C11.414 4.36447 11.1435 4.1271 10.8315 3.95642C10.5196 3.7858 10.1737 3.686 9.81885 3.66443C9.46434 3.64294 9.10877 3.69909 8.77881 3.83044C8.71639 3.8574 8.64953 3.8728 8.58154 3.87341C8.51339 3.87399 8.44533 3.86033 8.38232 3.83435C8.31947 3.80839 8.26221 3.77037 8.21436 3.72205C8.16642 3.6736 8.12834 3.61541 8.10303 3.55212C8.07782 3.48895 8.0656 3.42091 8.06689 3.35291C8.06824 3.2849 8.0832 3.21779 8.11084 3.15564C8.13852 3.09343 8.17834 3.03716 8.22803 2.9906C8.25286 2.96735 8.28028 2.94686 8.30908 2.92908L8.40088 2.88416ZM5.1958 3.70642C4.72734 3.61324 4.24158 3.66133 3.80029 3.84412C3.35919 4.02689 2.98161 4.33581 2.71631 4.73279C2.45102 5.12982 2.31014 5.59708 2.31006 6.07458C2.31078 6.71488 2.56531 7.32886 3.01807 7.78162C3.47082 8.23436 4.08481 8.4889 4.7251 8.48962C5.20239 8.48954 5.669 8.34845 6.06592 8.08337C6.46298 7.81807 6.77277 7.44055 6.95557 6.99939C7.13835 6.55812 7.18643 6.07233 7.09326 5.60388C7.00008 5.13543 6.76986 4.70529 6.43213 4.36755C6.09439 4.02981 5.66426 3.7996 5.1958 3.70642Z" fill="#375DFB" stroke="#375DFB" stroke-width="0.12"/>
</g>
<defs>
<clipPath id="clip0_729_8448">
<rect width="14.4" height="14.4" fill="white"/>
</clipPath>
</defs>
</svg>
