<svg width="16" height="16" viewBox="0 0 16 16" fill="none" xmlns="http://www.w3.org/2000/svg">
<g clip-path="url(#clip0_605_7733)">
<path d="M7.99968 0C12.4181 0 15.9997 3.5816 15.9997 8V13.6C15.9997 14.2365 15.7468 14.847 15.2967 15.2971C14.8466 15.7471 14.2362 16 13.5997 16H8.39968V12.4904C8.39968 11.6896 8.44848 10.86 8.86848 10.1784C9.16917 9.68993 9.57141 9.27185 10.0479 8.95251C10.5244 8.63318 11.064 8.42005 11.6301 8.3276L11.7833 8.3028C11.8464 8.28121 11.9013 8.24041 11.9401 8.18612C11.9789 8.13182 11.9998 8.06675 11.9998 8C11.9998 7.93325 11.9789 7.86818 11.9401 7.81388C11.9013 7.75959 11.8464 7.71879 11.7833 7.6972L11.6301 7.6724C10.8029 7.53728 10.0391 7.14578 9.44652 6.55315C8.8539 5.96053 8.46239 5.19673 8.32728 4.3696L8.30248 4.2164C8.28089 4.15324 8.24009 4.09841 8.18579 4.05959C8.1315 4.02077 8.06642 3.9999 7.99968 3.9999C7.93293 3.9999 7.86785 4.02077 7.81356 4.05959C7.75926 4.09841 7.71847 4.15324 7.69688 4.2164L7.67208 4.3696C7.57965 4.93571 7.36654 5.47531 7.0472 5.95181C6.72786 6.4283 6.30976 6.83052 5.82128 7.1312C5.13968 7.5512 4.31008 7.6 3.50928 7.6H0.00927734C0.218477 3.3676 3.71568 0 7.99968 0Z" fill="#22C55E"/>
<path d="M0 8.4H3.5096C4.3104 8.4 5.14 8.4488 5.8216 8.8688C6.35439 9.19711 6.8029 9.64561 7.1312 10.1784C7.5512 10.86 7.6 11.6896 7.6 12.4904V16H2.4C1.76348 16 1.15303 15.7471 0.702944 15.2971C0.252856 14.847 0 14.2365 0 13.6L0 8.4ZM16 0.8C16 1.01217 15.9157 1.21566 15.7657 1.36569C15.6157 1.51571 15.4122 1.6 15.2 1.6C14.9878 1.6 14.7843 1.51571 14.6343 1.36569C14.4843 1.21566 14.4 1.01217 14.4 0.8C14.4 0.587827 14.4843 0.384344 14.6343 0.234315C14.7843 0.0842855 14.9878 0 15.2 0C15.4122 0 15.6157 0.0842855 15.7657 0.234315C15.9157 0.384344 16 0.587827 16 0.8Z" fill="#22C55E"/>
</g>
<defs>
<clipPath id="clip0_605_7733">
<rect width="16" height="16" fill="white"/>
</clipPath>
</defs>
</svg>
