<svg width="15" height="15" viewBox="0 0 15 15" fill="none" xmlns="http://www.w3.org/2000/svg">
<g clip-path="url(#clip0_796_4453)">
<path d="M2.87412 4.17537C2.87412 3.68152 3.06376 3.2079 3.40133 2.85869C3.73889 2.50949 4.19673 2.3133 4.67412 2.3133C5.15151 2.3133 5.60935 2.50949 5.94691 2.85869C6.28448 3.2079 6.47412 3.68152 6.47412 4.17537C6.47412 4.66922 6.28448 5.14285 5.94691 5.49205C5.60935 5.84126 5.15151 6.03744 4.67412 6.03744C4.19673 6.03744 3.73889 5.84126 3.40133 5.49205C3.06376 5.14285 2.87412 4.66922 2.87412 4.17537ZM4.67412 1.48572C3.98456 1.48572 3.32324 1.76909 2.83564 2.2735C2.34805 2.77791 2.07412 3.46203 2.07412 4.17537C2.07412 4.88871 2.34805 5.57284 2.83564 6.07725C3.32324 6.58165 3.98456 6.86503 4.67412 6.86503C5.36368 6.86503 6.025 6.58165 6.5126 6.07725C7.00019 5.57284 7.27412 4.88871 7.27412 4.17537C7.27412 3.46203 7.00019 2.77791 6.5126 2.2735C6.025 1.76909 5.36368 1.48572 4.67412 1.48572ZM7.27412 7.69261C7.47412 7.69372 7.66265 7.7293 7.83972 7.79937C7.45092 7.93344 7.11492 8.18834 6.87412 8.5202H2.07412C1.86195 8.5202 1.65846 8.60739 1.50844 8.7626C1.35841 8.9178 1.27412 9.1283 1.27412 9.34779V9.41234L1.27972 9.48103C1.32313 9.87774 1.45993 10.2574 1.67812 10.5867C2.06772 11.1693 2.88452 11.8305 4.67412 11.8305C5.43652 11.8305 6.02292 11.7105 6.47412 11.5276V12.2443C6.47412 12.2973 6.47599 12.3497 6.47972 12.4016C5.98212 12.5621 5.38612 12.6581 4.67412 12.6581C2.66372 12.6581 1.58052 11.8968 1.01972 11.0576C0.72444 10.6125 0.540293 10.0987 0.483721 9.56213C0.479157 9.51396 0.475956 9.46567 0.474121 9.4173V9.34779C0.474121 8.90881 0.642692 8.48781 0.94275 8.1774C1.24281 7.867 1.64977 7.69261 2.07412 7.69261H7.27412ZM9.67412 4.79606C9.67412 4.46683 9.80055 4.15108 10.0256 3.91827C10.2506 3.68547 10.5559 3.55468 10.8741 3.55468C11.1924 3.55468 11.4976 3.68547 11.7226 3.91827C11.9477 4.15108 12.0741 4.46683 12.0741 4.79606C12.0741 5.1253 11.9477 5.44105 11.7226 5.67385C11.4976 5.90665 11.1924 6.03744 10.8741 6.03744C10.5559 6.03744 10.2506 5.90665 10.0256 5.67385C9.80055 5.44105 9.67412 5.1253 9.67412 4.79606ZM10.8741 2.7271C10.3437 2.7271 9.83498 2.94508 9.45991 3.33308C9.08484 3.72109 8.87412 4.24734 8.87412 4.79606C8.87412 5.34479 9.08484 5.87104 9.45991 6.25904C9.83498 6.64705 10.3437 6.86503 10.8741 6.86503C11.4046 6.86503 11.9133 6.64705 12.2883 6.25904C12.6634 5.87104 12.8741 5.34479 12.8741 4.79606C12.8741 4.24734 12.6634 3.72109 12.2883 3.33308C11.9133 2.94508 11.4046 2.7271 10.8741 2.7271ZM7.27412 9.76158C7.27412 9.43235 7.40055 9.1166 7.62559 8.88379C7.85064 8.65099 8.15586 8.5202 8.47412 8.5202H13.2741C13.5924 8.5202 13.8976 8.65099 14.1226 8.88379C14.3477 9.1166 14.4741 9.43235 14.4741 9.76158V12.2443C14.4741 12.5736 14.3477 12.8893 14.1226 13.1221C13.8976 13.3549 13.5924 13.4857 13.2741 13.4857H8.47412C8.15586 13.4857 7.85064 13.3549 7.62559 13.1221C7.40055 12.8893 7.27412 12.5736 7.27412 12.2443V9.76158ZM8.07412 9.76158V10.5892C8.39238 10.5892 8.69761 10.4584 8.92265 10.2256C9.14769 9.99277 9.27412 9.67702 9.27412 9.34779H8.47412C8.47412 9.45753 8.43198 9.56278 8.35696 9.64038C8.28195 9.71798 8.18021 9.76158 8.07412 9.76158ZM13.6741 10.5892V9.76158C13.568 9.76158 13.4663 9.71798 13.3913 9.64038C13.3163 9.56278 13.2741 9.45753 13.2741 9.34779H12.4741C12.4741 9.67702 12.6005 9.99277 12.8256 10.2256C13.0506 10.4584 13.3559 10.5892 13.6741 10.5892ZM12.4741 12.6581H13.2741C13.2741 12.5484 13.3163 12.4431 13.3913 12.3655C13.4663 12.2879 13.568 12.2443 13.6741 12.2443V11.4168C13.3559 11.4168 13.0506 11.5475 12.8256 11.7803C12.6005 12.0131 12.4741 12.3289 12.4741 12.6581ZM8.07412 11.4168V12.2443C8.18021 12.2443 8.28195 12.2879 8.35696 12.3655C8.43198 12.4431 8.47412 12.5484 8.47412 12.6581H9.27412C9.27412 12.3289 9.14769 12.0131 8.92265 11.7803C8.69761 11.5475 8.39238 11.4168 8.07412 11.4168ZM10.8741 12.2443C11.1924 12.2443 11.4976 12.1136 11.7226 11.8807C11.9477 11.6479 12.0741 11.3322 12.0741 11.003C12.0741 10.6737 11.9477 10.358 11.7226 10.1252C11.4976 9.89237 11.1924 9.76158 10.8741 9.76158C10.5559 9.76158 10.2506 9.89237 10.0256 10.1252C9.80055 10.358 9.67412 10.6737 9.67412 11.003C9.67412 11.3322 9.80055 11.6479 10.0256 11.8807C10.2506 12.1136 10.5559 12.2443 10.8741 12.2443Z" fill="#375DFB"/>
</g>
<defs>
<clipPath id="clip0_796_4453">
<rect width="14.4" height="14.4" fill="white"/>
</clipPath>
</defs>
</svg>
